<svg xmlns="http://www.w3.org/2000/svg" xmlns:xlink="http://www.w3.org/1999/xlink" fill="none" version="1.1" width="24" height="24" viewBox="0 0 24 24"><clipPath id="master_svg0_58_06"><rect x="0" y="0" width="24" height="24" rx="0"/></clipPath><g style="mix-blend-mode:passthrough"><g><g clip-path="url(#master_svg0_58_06)"><g><path d="M14.434659136047364,4.160027402114868L15.426149136047364,2.718125402114868C15.468599136047363,2.656726402114868,15.453009136047363,2.571584502114868,15.391609136047363,2.529133302114868L15.366909136047363,2.5121050021148683C15.305509136047363,2.4694140021148683,15.220849136047363,2.4852430821148683,15.178399136047362,2.5466416021148683L14.158369136047362,4.030037402114868C13.492099136047363,3.740307402114868,12.748849136047363,3.5784174021148685,11.964579136047362,3.5784174021148685C11.220359136047364,3.5784174021148685,10.512599136047363,3.724247402114868,9.873199136047363,3.9868674021148682L8.898499136047363,2.569426102114868C8.856289136047364,2.508027802114868,8.771379136047363,2.492438312114868,8.709979136047362,2.534889502114868L8.685279136047363,2.5519178021148683C8.623879136047364,2.594369402114868,8.608289136047363,2.6795114021148683,8.650499136047364,2.741149402114868L9.593069136047363,4.111337402114868C8.111109136047363,4.821497402114868,7.046232136047363,6.175617402114868,6.829419136047363,7.774617402114868L17.099719136047362,7.774617402114868C16.887919136047365,6.211357402114868,15.865289136047362,4.881937402114868,14.434659136047364,4.160027402114868ZM9.801959136047364,6.225507402114868C9.519429136047364,6.225507402114868,9.290149136047363,5.9955074021148675,9.290149136047363,5.712017402114868C9.290149136047363,5.428527402114868,9.519429136047364,5.198767402114868,9.801959136047364,5.198767402114868C10.084729136047363,5.198767402114868,10.313779136047364,5.428527402114868,10.313779136047364,5.712017402114868C10.313779136047364,5.9955074021148675,10.084729136047363,6.225507402114868,9.801959136047364,6.225507402114868ZM14.219769136047363,6.225507402114868C13.937239136047364,6.225507402114868,13.707949136047363,5.9955074021148675,13.707949136047363,5.712017402114868C13.707949136047363,5.428527402114868,13.937239136047364,5.198767402114868,14.219769136047363,5.198767402114868C14.502539136047364,5.198767402114868,14.731579136047364,5.428527402114868,14.731579136047364,5.712017402114868C14.731579136047364,5.9955074021148675,14.502539136047364,6.225507402114868,14.219769136047363,6.225507402114868Z" fill="#FFFFFF" fill-opacity="1"/><path d="M6.11494006477356,9.83218102355957L6.11494006477356,14.037971023559571C6.11494006477356,14.75892102355957,5.6556500647735595,15.34892102355957,5.093950064773559,15.34892102355957L4.86707006477356,15.34892102355957C4.305609064773559,15.34892102355957,3.8460800647735596,14.75892102355957,3.8460800647735596,14.037971023559571L3.8460800647735596,9.83218102355957C3.8460800647735596,9.11123102355957,4.305609064773559,8.52147102355957,4.86707006477356,8.52147102355957L5.093950064773559,8.52147102355957C5.6556500647735595,8.52147006988557,6.11494006477356,9.11123102355957,6.11494006477356,9.83218102355957Z" fill="#FFFFFF" fill-opacity="1"/><path d="M20.153820174560547,9.85712342163086L20.153820174560547,14.06291342163086C20.153820174560547,14.78410342163086,19.694530174560548,15.373863421630858,19.132840174560545,15.373863421630858L18.905950174560548,15.373863421630858C18.344490174560548,15.373863421630858,17.884960174560547,14.78410342163086,17.884960174560547,14.06291342163086L17.884960174560547,9.85712342163086C17.884960174560547,9.136174421630859,18.344488174560546,8.54641342163086,18.905950174560548,8.54641342163086L19.132840174560545,8.54641342163086C19.694530174560548,8.54641342163086,20.153820174560547,9.13617342163086,20.153820174560547,9.85712342163086Z" fill="#FFFFFF" fill-opacity="1"/><path d="M17.178117349243166,8.456954002380371L17.178117349243166,16.75556400238037C17.178117349243166,17.331654002380372,16.708317349243163,17.802934002380372,16.133907349243167,17.802934002380372L15.272657349243165,17.802934002380372L15.272657349243165,20.20105400238037C15.272657349243165,20.92205400238037,14.813127349243164,21.51175400238037,14.251667349243164,21.51175400238037L14.024777349243164,21.51175400238037C13.463317349243164,21.51175400238037,13.003797349243165,20.92205400238037,13.003797349243165,20.20105400238037L13.003797349243165,17.802934002380372L11.085097349243163,17.802934002380372L11.085097349243163,20.17345400238037C11.085097349243163,20.89445400238037,10.625807349243164,21.48445400238037,10.064107349243164,21.48445400238037L9.837217349243165,21.48445400238037C9.275757349243165,21.48445400238037,8.816237349243163,20.89445400238037,8.816237349243163,20.17345400238037L8.816237349243163,17.802934002380372L7.877267349243164,17.802934002380372C7.302858349243164,17.802934002380372,6.833017349243164,17.331654002380372,6.833017349243164,16.75556400238037L6.833017349243164,8.456954002380371L17.178117349243166,8.456954002380371Z" fill="#FFFFFF" fill-opacity="1"/></g></g></g></g></svg>