<svg xmlns="http://www.w3.org/2000/svg" viewBox="0 0 500 500"><g id="freepik--Floor--inject-107"><path d="M106.86,409.4c84.09,43.93,220.42,43.93,304.51,0s84.08-115.15,0-159.08-220.42-43.93-304.51,0S22.77,365.48,106.86,409.4Z" style="fill:#fafafa"></path></g><g id="freepik--Shadows--inject-107"><path d="M427,375.9c-18.59,8.87-48.73,8.87-67.33,0s-18.59-23.22,0-32.09,48.74-8.86,67.33,0S445.63,367,427,375.9Z" style="fill:#f0f0f0"></path><path d="M170.73,348l109-62.9a9.57,9.57,0,0,1,8.66,0l32.23,18.59c2.39,1.38,2.39,3.62,0,5L211.72,372a9.42,9.42,0,0,1-8.63,0l-32.38-19C168.33,351.62,168.34,349.36,170.73,348Z" style="fill:#f0f0f0"></path></g><g id="freepik--Plants--inject-107"><path d="M104.15,369.47s5.72,1.62,7.46,2.75-1.34,1.58-5.29,1a41,41,0,0,1,5.78,4.36c1.82,1.88-3.08-.26-3.08-.26s2,5.35-.57,5.75-7.18-4.76-7.18-4.76-2.17,2.69-2.8,1.47-.06-3.65-.06-3.65a53.34,53.34,0,0,1-5.66,3.56c-1.37.54-1-1.83-1-1.83s-9.82,2.67-10.93,2,3.33-4.44,4.9-5.65c0,0-4.32-.41-3.48-1.1s4.57-1.7,7.57-2.18c0,0-6.2-.75-6.77-1.33s2.35-1.24,2.35-1.24-5.51-2.37-4.75-3.81,9,1.23,9,1.23-1.55-1.69.08-1.84,8,3.9,8,3.9.53-3.53,2.19-3.64C102.37,364.05,104.15,369.47,104.15,369.47Z" style="fill:#FF5050"></path><path d="M83,379.23a.27.27,0,0,1-.24-.17.26.26,0,0,1,.14-.34c.11,0,11-4.47,21.09-9.49s13.64-8.33,13.68-8.37a.27.27,0,0,1,.37,0,.28.28,0,0,1,0,.38c-.15.13-3.71,3.41-13.81,8.45s-21,9.46-21.12,9.51Z" style="fill:#FF5050"></path><path d="M93.86,377.7a.26.26,0,0,1-.21-.11.27.27,0,0,1,0-.37A9.92,9.92,0,0,0,97,373l-10.87.28h0a.26.26,0,0,1-.26-.26.27.27,0,0,1,.26-.27l11.59-.3-.09.34A9.89,9.89,0,0,1,94,377.64.27.27,0,0,1,93.86,377.7Z" style="fill:#FF5050"></path><path d="M106.58,381.28a.26.26,0,0,1-.18-.07c-.25-.24-5.89-5.77-5.58-10a101.07,101.07,0,0,1-17.43-5.28.26.26,0,1,1,.21-.48,100.76,100.76,0,0,0,17.56,5.29l.24,0,0,.25c-.53,4,5.34,9.78,5.4,9.84a.27.27,0,0,1,0,.37A.27.27,0,0,1,106.58,381.28Z" style="fill:#FF5050"></path><path d="M95.32,369.79l-7.82,0a.26.26,0,1,1,0-.52h0l7,0a15.7,15.7,0,0,0-3.15-3.38.27.27,0,0,1,0-.37.26.26,0,0,1,.37,0c1.16,1,3.13,2.9,3.47,4Z" style="fill:#FF5050"></path><path d="M100.27,377.43l-.11,0a.27.27,0,0,1-.13-.35l1.54-3.38.19,0a30.38,30.38,0,0,1,6.44,2.17.28.28,0,0,1,.14.35.27.27,0,0,1-.35.13,32,32,0,0,0-6.11-2.09l-1.37,3A.27.27,0,0,1,100.27,377.43Z" style="fill:#FF5050"></path><path d="M109,372.63h0l-8.12-1.44-.82-4.71a.27.27,0,0,1,.22-.3.25.25,0,0,1,.3.21l.76,4.35,7.75,1.38a.25.25,0,0,1,.21.3A.26.26,0,0,1,109,372.63Z" style="fill:#FF5050"></path><g style="opacity:0.1"><path d="M83,379.23a.27.27,0,0,1-.24-.17.26.26,0,0,1,.14-.34c.11,0,11-4.47,21.09-9.49s13.64-8.33,13.68-8.37a.27.27,0,0,1,.37,0,.28.28,0,0,1,0,.38c-.15.13-3.71,3.41-13.81,8.45s-21,9.46-21.12,9.51Z"></path><path d="M93.86,377.7a.26.26,0,0,1-.21-.11.27.27,0,0,1,0-.37A9.92,9.92,0,0,0,97,373l-10.87.28h0a.26.26,0,0,1-.26-.26.27.27,0,0,1,.26-.27l11.59-.3-.09.34A9.89,9.89,0,0,1,94,377.64.27.27,0,0,1,93.86,377.7Z"></path><path d="M106.58,381.28a.26.26,0,0,1-.18-.07c-.25-.24-5.89-5.77-5.58-10a101.07,101.07,0,0,1-17.43-5.28.26.26,0,1,1,.21-.48,100.76,100.76,0,0,0,17.56,5.29l.24,0,0,.25c-.53,4,5.34,9.78,5.4,9.84a.27.27,0,0,1,0,.37A.27.27,0,0,1,106.58,381.28Z"></path><path d="M95.32,369.79l-7.82,0a.26.26,0,1,1,0-.52h0l7,0a15.7,15.7,0,0,0-3.15-3.38.27.27,0,0,1,0-.37.26.26,0,0,1,.37,0c1.16,1,3.13,2.9,3.47,4Z"></path><path d="M100.27,377.43l-.11,0a.27.27,0,0,1-.13-.35l1.54-3.38.19,0a30.38,30.38,0,0,1,6.44,2.17.28.28,0,0,1,.14.35.27.27,0,0,1-.35.13,32,32,0,0,0-6.11-2.09l-1.37,3A.27.27,0,0,1,100.27,377.43Z"></path><path d="M109,372.63h0l-8.12-1.44-.82-4.71a.27.27,0,0,1,.22-.3.25.25,0,0,1,.3.21l.76,4.35,7.75,1.38a.25.25,0,0,1,.21.3A.26.26,0,0,1,109,372.63Z"></path></g><path d="M148.62,369.47s-5.72,1.62-7.46,2.75,1.34,1.58,5.29,1a41.58,41.58,0,0,0-5.78,4.36c-1.82,1.88,3.09-.26,3.09-.26s-2,5.35.56,5.75,7.18-4.76,7.18-4.76,2.17,2.69,2.8,1.47.06-3.65.06-3.65a53.34,53.34,0,0,0,5.66,3.56c1.37.54.95-1.83.95-1.83s9.82,2.67,10.93,2-3.33-4.44-4.9-5.65c0,0,4.32-.41,3.48-1.1s-4.57-1.7-7.57-2.18c0,0,6.2-.75,6.78-1.33s-2.36-1.24-2.36-1.24,5.51-2.37,4.75-3.81-9,1.23-9,1.23,1.55-1.69-.08-1.84-8,3.9-8,3.9-.53-3.53-2.19-3.64C150.4,364.05,148.62,369.47,148.62,369.47Z" style="fill:#FF5050"></path><path d="M169.73,379.23a.27.27,0,0,0,.1-.51c-.11,0-11-4.47-21.09-9.49s-13.64-8.33-13.68-8.37a.27.27,0,0,0-.37,0,.28.28,0,0,0,0,.38c.15.13,3.71,3.41,13.81,8.45s21,9.46,21.12,9.51Z" style="fill:#FF5050"></path><path d="M158.91,377.7a.26.26,0,0,0,.21-.11.27.27,0,0,0-.05-.37,9.92,9.92,0,0,1-3.29-4.23l10.87.28h0a.26.26,0,0,0,.26-.26.27.27,0,0,0-.26-.27l-11.59-.3.09.34a9.89,9.89,0,0,0,3.59,4.86A.27.27,0,0,0,158.91,377.7Z" style="fill:#FF5050"></path><path d="M146.19,381.28a.26.26,0,0,0,.18-.07c.25-.24,5.89-5.77,5.58-10a101.07,101.07,0,0,0,17.43-5.28.27.27,0,0,0,.14-.34.26.26,0,0,0-.34-.14,101.35,101.35,0,0,1-17.57,5.29l-.24,0,0,.25c.53,4-5.34,9.78-5.39,9.84a.26.26,0,0,0,0,.37A.27.27,0,0,0,146.19,381.28Z" style="fill:#FF5050"></path><path d="M157.45,369.79l7.82,0a.26.26,0,0,0,.26-.26.25.25,0,0,0-.26-.26h0l-7.05,0a16,16,0,0,1,3.15-3.38.27.27,0,0,0,0-.37.26.26,0,0,0-.37,0c-1.16,1-3.13,2.9-3.47,4Z" style="fill:#FF5050"></path><path d="M152.5,377.43l.11,0a.27.27,0,0,0,.13-.35l-1.54-3.38-.19,0a30.38,30.38,0,0,0-6.44,2.17.28.28,0,0,0-.14.35.27.27,0,0,0,.35.13,31.78,31.78,0,0,1,6.12-2.09l1.36,3A.27.27,0,0,0,152.5,377.43Z" style="fill:#FF5050"></path><path d="M143.73,372.63h0l8.12-1.44.82-4.71a.27.27,0,0,0-.22-.3.26.26,0,0,0-.3.21l-.75,4.35-7.76,1.38a.25.25,0,0,0-.21.3A.26.26,0,0,0,143.73,372.63Z" style="fill:#FF5050"></path><g style="opacity:0.1"><path d="M169.73,379.23a.27.27,0,0,0,.1-.51c-.11,0-11-4.47-21.09-9.49s-13.64-8.33-13.68-8.37a.27.27,0,0,0-.37,0,.28.28,0,0,0,0,.38c.15.13,3.71,3.41,13.81,8.45s21,9.46,21.12,9.51Z"></path><path d="M158.91,377.7a.26.26,0,0,0,.21-.11.27.27,0,0,0-.05-.37,9.92,9.92,0,0,1-3.29-4.23l10.87.28h0a.26.26,0,0,0,.26-.26.27.27,0,0,0-.26-.27l-11.59-.3.09.34a9.89,9.89,0,0,0,3.59,4.86A.27.27,0,0,0,158.91,377.7Z"></path><path d="M146.19,381.28a.26.26,0,0,0,.18-.07c.25-.24,5.89-5.77,5.58-10a101.07,101.07,0,0,0,17.43-5.28.27.27,0,0,0,.14-.34.26.26,0,0,0-.34-.14,101.35,101.35,0,0,1-17.57,5.29l-.24,0,0,.25c.53,4-5.34,9.78-5.39,9.84a.26.26,0,0,0,0,.37A.27.27,0,0,0,146.19,381.28Z"></path><path d="M157.45,369.79l7.82,0a.26.26,0,0,0,.26-.26.25.25,0,0,0-.26-.26h0l-7.05,0a16,16,0,0,1,3.15-3.38.27.27,0,0,0,0-.37.26.26,0,0,0-.37,0c-1.16,1-3.13,2.9-3.47,4Z"></path><path d="M152.5,377.43l.11,0a.27.27,0,0,0,.13-.35l-1.54-3.38-.19,0a30.38,30.38,0,0,0-6.44,2.17.28.28,0,0,0-.14.35.27.27,0,0,0,.35.13,31.78,31.78,0,0,1,6.12-2.09l1.36,3A.27.27,0,0,0,152.5,377.43Z"></path><path d="M143.73,372.63h0l8.12-1.44.82-4.71a.27.27,0,0,0-.22-.3.26.26,0,0,0-.3.21l-.75,4.35-7.76,1.38a.25.25,0,0,0-.21.3A.26.26,0,0,0,143.73,372.63Z"></path></g><path d="M99,338.77A20.22,20.22,0,0,0,95.62,340c-.8.52.61.73,2.42.44a18.46,18.46,0,0,0-2.64,2c-.84.86,1.41-.12,1.41-.12s-.92,2.46.26,2.64,3.29-2.19,3.29-2.19,1,1.24,1.28.68a3.17,3.17,0,0,0,0-1.67,24.9,24.9,0,0,0,2.6,1.63c.63.25.43-.84.43-.84s4.51,1.22,5,.93-1.53-2-2.25-2.58c0,0,2-.19,1.59-.51a11.29,11.29,0,0,0-3.47-1,15.54,15.54,0,0,0,3.11-.61c.26-.26-1.08-.57-1.08-.57s2.53-1.08,2.18-1.74-4.11.56-4.11.56.72-.78,0-.85S102,338,102,338s-.24-1.62-1-1.67C99.85,336.28,99,338.77,99,338.77Z" style="fill:#FF5050"></path><path d="M108.72,343.24a.11.11,0,0,0,.11-.07.12.12,0,0,0-.06-.16s-5.07-2-9.68-4.35a29.36,29.36,0,0,1-6.27-3.84.12.12,0,1,0-.16.18A29,29,0,0,0,99,338.88c4.61,2.3,9.63,4.34,9.69,4.36Z" style="fill:#FF5050"></path><path d="M103.76,342.54a.1.1,0,0,0,.09-.05.11.11,0,0,0,0-.16,4.65,4.65,0,0,1-1.51-1.95l5,.13h0a.11.11,0,0,0,.12-.11.12.12,0,0,0-.12-.13l-5.31-.14,0,.16a4.5,4.5,0,0,0,1.65,2.23Z" style="fill:#FF5050"></path><path d="M97.92,344.19a.12.12,0,0,0,.09,0c.11-.11,2.7-2.64,2.56-4.6a46.11,46.11,0,0,0,8-2.42.12.12,0,0,0,.06-.16.11.11,0,0,0-.15-.06,46.31,46.31,0,0,1-8.06,2.42l-.11,0,0,.12c.24,1.85-2.45,4.48-2.48,4.51a.12.12,0,0,0,0,.17A.12.12,0,0,0,97.92,344.19Z" style="fill:#FF5050"></path><path d="M103.09,338.92h3.59a.13.13,0,0,0,0-.25h0l-3.23,0a7.44,7.44,0,0,1,1.44-1.56.12.12,0,0,0,0-.17.12.12,0,0,0-.17,0,6.14,6.14,0,0,0-1.59,1.82Z" style="fill:#FF5050"></path><path d="M100.82,342.42h.05a.12.12,0,0,0,.06-.16l-.71-1.55-.09,0a13.36,13.36,0,0,0-2.95,1,.12.12,0,0,0,.1.22,14.8,14.8,0,0,1,2.8-1l.63,1.38A.12.12,0,0,0,100.82,342.42Z" style="fill:#FF5050"></path><path d="M96.8,340.22h0l3.72-.66.37-2.16a.12.12,0,0,0-.23,0l-.35,2-3.56.63a.12.12,0,0,0,0,.24Z" style="fill:#FF5050"></path><g style="opacity:0.1"><path d="M108.72,343.24a.11.11,0,0,0,.11-.07.12.12,0,0,0-.06-.16s-5.07-2-9.68-4.35a29.36,29.36,0,0,1-6.27-3.84.12.12,0,1,0-.16.18A29,29,0,0,0,99,338.88c4.61,2.3,9.63,4.34,9.69,4.36Z"></path><path d="M103.76,342.54a.1.1,0,0,0,.09-.05.11.11,0,0,0,0-.16,4.65,4.65,0,0,1-1.51-1.95l5,.13h0a.11.11,0,0,0,.12-.11.12.12,0,0,0-.12-.13l-5.31-.14,0,.16a4.5,4.5,0,0,0,1.65,2.23Z"></path><path d="M97.92,344.19a.12.12,0,0,0,.09,0c.11-.11,2.7-2.64,2.56-4.6a46.11,46.11,0,0,0,8-2.42.12.12,0,0,0,.06-.16.11.11,0,0,0-.15-.06,46.31,46.31,0,0,1-8.06,2.42l-.11,0,0,.12c.24,1.85-2.45,4.48-2.48,4.51a.12.12,0,0,0,0,.17A.12.12,0,0,0,97.92,344.19Z"></path><path d="M103.09,338.92h3.59a.13.13,0,0,0,0-.25h0l-3.23,0a7.44,7.44,0,0,1,1.44-1.56.12.12,0,0,0,0-.17.12.12,0,0,0-.17,0,6.14,6.14,0,0,0-1.59,1.82Z"></path><path d="M100.82,342.42h.05a.12.12,0,0,0,.06-.16l-.71-1.55-.09,0a13.36,13.36,0,0,0-2.95,1,.12.12,0,0,0,.1.22,14.8,14.8,0,0,1,2.8-1l.63,1.38A.12.12,0,0,0,100.82,342.42Z"></path><path d="M96.8,340.22h0l3.72-.66.37-2.16a.12.12,0,0,0-.23,0l-.35,2-3.56.63a.12.12,0,0,0,0,.24Z"></path></g><circle cx="75.49" cy="192.88" r="42.53" transform="translate(-122.23 254.55) rotate(-85.95)" style="fill:#FF5050"></circle><circle cx="170.82" cy="175.75" r="60.51" transform="translate(-26.65 320.91) rotate(-82.13)" style="fill:#FF5050"></circle><rect x="112.09" y="251.45" width="60.63" height="4.96" transform="translate(-148.48 265.96) rotate(-63.08)" style="fill:#455a64"></rect><rect x="111.78" y="218.94" width="4.96" height="50.85" transform="matrix(0.85, -0.53, 0.53, 0.85, -111.51, 96.72)" style="fill:#455a64"></rect><path d="M132.82,216.3V346.6a2.06,2.06,0,0,1-1.21,1.7,6.52,6.52,0,0,1-5.87,0,2.06,2.06,0,0,1-1.21-1.7V216.3Z" style="fill:#455a64"></path><path d="M189.79,160.27c7.8-24.57,16.12-34.18,10.84-37.18a60.51,60.51,0,1,0,16.87,91.17C199.57,219.49,179.67,192.15,189.79,160.27Z" style="fill:#FF5050"></path><path d="M189.79,160.27c7.8-24.57,16.12-34.18,10.84-37.18a60.51,60.51,0,1,0,16.87,91.17C199.57,219.49,179.67,192.15,189.79,160.27Z" style="opacity:0.1"></path><path d="M75.49,150.35a42.34,42.34,0,0,0-24.85,8c-1.15,26,20.9,51.32,14.74,59.83S44,221.48,38.73,214.26a42.53,42.53,0,1,0,36.76-63.91Z" style="fill:#FF5050"></path><path d="M75.49,150.35a42.34,42.34,0,0,0-24.85,8c-1.15,26,20.9,51.32,14.74,59.83S44,221.48,38.73,214.26a42.53,42.53,0,1,0,36.76-63.91Z" style="opacity:0.1"></path><circle cx="128.68" cy="147.02" r="78.02" transform="translate(-66.27 134.05) rotate(-45)" style="fill:#FF5050"></circle><path d="M204.62,164.85A78,78,0,1,1,90.29,79.1,78.17,78.17,0,0,0,72,93.41a78,78,0,0,0,132.6,71.44Z" style="fill:#FF5050"></path><path d="M204.62,164.85A78,78,0,1,1,90.29,79.1,78.17,78.17,0,0,0,72,93.41a78,78,0,0,0,132.6,71.44Z" style="opacity:0.1"></path><circle cx="283.95" cy="137.77" r="25.67" transform="translate(102.14 395.75) rotate(-80.71)" style="fill:#FF5050"></circle><circle cx="341.49" cy="127.43" r="36.52" transform="translate(172.94 450.61) rotate(-82.92)" style="fill:#FF5050"></circle><rect x="306.04" y="173.12" width="36.6" height="2.99" transform="translate(21.81 384.77) rotate(-63.08)" style="fill:#455a64"></rect><rect x="305.85" y="153.5" width="2.99" height="30.69" transform="translate(-42.85 187.04) rotate(-31.76)" style="fill:#455a64"></rect><path d="M318.56,151.91v78.64a1.27,1.27,0,0,1-.74,1,3.94,3.94,0,0,1-3.54,0,1.26,1.26,0,0,1-.73-1V151.91Z" style="fill:#455a64"></path><path d="M352.94,118.09c4.71-14.83,9.73-20.63,6.54-22.44a36.52,36.52,0,1,0,10.18,55C358.84,153.83,346.83,137.33,352.94,118.09Z" style="fill:#FF5050"></path><path d="M352.94,118.09c4.71-14.83,9.73-20.63,6.54-22.44a36.52,36.52,0,1,0,10.18,55C358.84,153.83,346.83,137.33,352.94,118.09Z" style="opacity:0.1"></path><path d="M284,112.1a25.58,25.58,0,0,0-15,4.84c-.69,15.68,12.62,31,8.9,36.11s-12.89,2-16.08-2.38A25.67,25.67,0,1,0,284,112.1Z" style="fill:#FF5050"></path><path d="M284,112.1a25.58,25.58,0,0,0-15,4.84c-.69,15.68,12.62,31,8.9,36.11s-12.89,2-16.08-2.38A25.67,25.67,0,1,0,284,112.1Z" style="opacity:0.1"></path><circle cx="316.05" cy="110.09" r="47.09" style="fill:#FF5050"></circle><path d="M361.89,120.85a47.09,47.09,0,1,1-69-51.76,47.76,47.76,0,0,0-11,8.65,47.1,47.1,0,0,0,45.85,57.84A47,47,0,0,0,361.89,120.85Z" style="fill:#FF5050"></path><path d="M361.89,120.85a47.09,47.09,0,1,1-69-51.76,47.76,47.76,0,0,0-11,8.65,47.1,47.1,0,0,0,45.85,57.84A47,47,0,0,0,361.89,120.85Z" style="opacity:0.1"></path></g><g id="freepik--Bench--inject-107"><path d="M272.24,211.07a2.44,2.44,0,0,0-1.11,1.93c0,.71.49,1,1.11.64a2.45,2.45,0,0,0,1.12-1.93C273.36,211,272.86,210.71,272.24,211.07Z" style="fill:#FF5050"></path><path d="M260.11,306.78a3,3,0,0,1-1.5-.41l-32.32-18.66a11.48,11.48,0,0,1-5.73-9.93V240.45a3,3,0,0,1,6,0v37.33a5.46,5.46,0,0,0,2.73,4.73l32.32,18.67a3,3,0,0,1-1.5,5.6Z" style="fill:#37474f"></path><path d="M211.29,334.84a2.92,2.92,0,0,1-1.5-.41l-32.33-18.66a11.51,11.51,0,0,1-5.73-9.93V268.51a3,3,0,0,1,6,0v37.33a5.48,5.48,0,0,0,2.73,4.73l32.33,18.67a3,3,0,0,1-1.5,5.6Z" style="fill:#37474f"></path><path d="M308.79,278.64a2.92,2.92,0,0,1-1.49-.41L275,259.57a11.47,11.47,0,0,1-5.73-9.92V212.32a3,3,0,0,1,6,0v37.33a5.47,5.47,0,0,0,2.73,4.72L310.3,273a3,3,0,0,1-1.51,5.6Z" style="fill:#37474f"></path><path d="M216.88,331.12v34.54a1.7,1.7,0,0,1-1,1.4,5.36,5.36,0,0,1-4.81,0,1.7,1.7,0,0,1-1-1.4V331.12Z" style="fill:#455a64"></path><path d="M188.37,314.87v34.55a1.67,1.67,0,0,1-1,1.39,5.32,5.32,0,0,1-4.82,0,1.69,1.69,0,0,1-1-1.39V314.87Z" style="fill:#455a64"></path><path d="M314.28,274.88v34.55a1.7,1.7,0,0,1-1,1.39,5.32,5.32,0,0,1-4.82,0,1.68,1.68,0,0,1-1-1.39V274.88Z" style="fill:#455a64"></path><path d="M285.76,258.64v34.55a1.7,1.7,0,0,1-1,1.39,5.3,5.3,0,0,1-4.81,0,1.7,1.7,0,0,1-1-1.39V258.64Z" style="fill:#455a64"></path><path d="M165.05,277l-.6-.34a3.84,3.84,0,0,1-1.73-3v-5.38a3.81,3.81,0,0,1,1.73-3l110.27-63.67a3.86,3.86,0,0,1,3.47,0l.6.35a3.83,3.83,0,0,1,1.73,3v5.38a3.86,3.86,0,0,1-1.73,3L168.51,277A3.83,3.83,0,0,1,165.05,277Z" style="fill:#37474f"></path><path d="M170.84,271l-7.61-4.4a3.45,3.45,0,0,0-.51,1.71v5.38a3.84,3.84,0,0,0,1.73,3l.6.34a3.83,3.83,0,0,0,3.46,0l2.33-1.34Z" style="fill:#263238"></path><path d="M165.05,293.43l-.6-.34a3.82,3.82,0,0,1-1.73-3v-5.38a3.81,3.81,0,0,1,1.73-3L274.72,218a3.86,3.86,0,0,1,3.47,0l.6.35a3.83,3.83,0,0,1,1.73,3v5.38a3.85,3.85,0,0,1-1.73,3L168.51,293.43A3.77,3.77,0,0,1,165.05,293.43Z" style="fill:#37474f"></path><path d="M170.84,287.4l-7.61-4.4a3.48,3.48,0,0,0-.51,1.71v5.38a3.82,3.82,0,0,0,1.73,3l.6.34a3.77,3.77,0,0,0,3.46,0l2.33-1.34Z" style="fill:#263238"></path><path d="M165.05,309.89l-.6-.35a3.81,3.81,0,0,1-1.73-3v-5.38a3.82,3.82,0,0,1,1.73-3l110.27-63.67a3.86,3.86,0,0,1,3.47,0l.6.35a3.83,3.83,0,0,1,1.73,3v5.38a3.85,3.85,0,0,1-1.73,3L168.51,309.89A3.83,3.83,0,0,1,165.05,309.89Z" style="fill:#37474f"></path><path d="M170.84,303.85l-7.61-4.4a3.51,3.51,0,0,0-.51,1.71v5.38a3.81,3.81,0,0,0,1.73,3l.6.35a3.83,3.83,0,0,0,3.46,0l2.33-1.35Z" style="fill:#263238"></path><path d="M170.84,319.85v.69a3.83,3.83,0,0,0,1.74,3l4.66,2.69a3.83,3.83,0,0,0,3.46,0L291,262.56a3.81,3.81,0,0,0,1.73-3v-.69a3.82,3.82,0,0,0-1.73-3l-4.66-2.69a3.83,3.83,0,0,0-3.46,0L172.58,316.85A3.82,3.82,0,0,0,170.84,319.85Z" style="fill:#37474f"></path><path d="M179,317.85v8.79a3.57,3.57,0,0,1-1.73-.41l-4.66-2.69a3.83,3.83,0,0,1-1.74-3v-.69a3.82,3.82,0,0,1,1.74-3l2.33-1.35Z" style="fill:#263238"></path><path d="M185.06,328.06v.69a3.86,3.86,0,0,0,1.73,3l4.66,2.69a3.86,3.86,0,0,0,3.47,0l110.27-63.67a3.81,3.81,0,0,0,1.73-3v-.69a3.82,3.82,0,0,0-1.73-3l-4.66-2.69a3.83,3.83,0,0,0-3.46,0L186.79,325.06A3.83,3.83,0,0,0,185.06,328.06Z" style="fill:#37474f"></path><path d="M193.19,326.06v8.79a3.62,3.62,0,0,1-1.73-.41l-4.66-2.69a3.86,3.86,0,0,1-1.73-3v-.69a3.83,3.83,0,0,1,1.73-3l2.33-1.35Z" style="fill:#263238"></path><path d="M199.28,336.26V337a3.81,3.81,0,0,0,1.73,3l4.66,2.69a3.77,3.77,0,0,0,3.46,0L319.41,279a3.85,3.85,0,0,0,1.73-3v-.69a3.83,3.83,0,0,0-1.73-3l-4.66-2.69a3.86,3.86,0,0,0-3.47,0L201,333.26A3.84,3.84,0,0,0,199.28,336.26Z" style="fill:#37474f"></path><path d="M207.4,334.26v8.8a3.52,3.52,0,0,1-1.73-.42L201,340a3.81,3.81,0,0,1-1.73-3v-.69a3.84,3.84,0,0,1,1.73-3l2.33-1.34Z" style="fill:#263238"></path><path d="M168.51,267.6l110.28-63.66c.95-.56,1.73-.11,1.73,1v5.38a3.86,3.86,0,0,1-1.73,3L168.51,277c-.95.55-1.73.11-1.73-1V270.6A3.85,3.85,0,0,1,168.51,267.6Z" style="fill:#455a64"></path><path d="M168.51,284.05l110.28-63.66c.95-.55,1.73-.11,1.73,1v5.38a3.85,3.85,0,0,1-1.73,3L168.51,293.43c-.95.56-1.73.11-1.73-1v-5.38A3.86,3.86,0,0,1,168.51,284.05Z" style="fill:#455a64"></path><path d="M168.51,300.51l110.28-63.67c.95-.55,1.73-.11,1.73,1v5.38a3.85,3.85,0,0,1-1.73,3L168.51,309.89c-.95.55-1.73.1-1.73-1v-5.38A3.83,3.83,0,0,1,168.51,300.51Z" style="fill:#455a64"></path><path d="M180.7,321.54,291,257.87a1.05,1.05,0,0,0,0-2l-4.66-2.69a3.83,3.83,0,0,0-3.46,0L172.58,316.85a1.05,1.05,0,0,0,0,2l4.66,2.69A3.83,3.83,0,0,0,180.7,321.54Z" style="fill:#455a64"></path><path d="M194.92,329.75l110.27-63.67a1.05,1.05,0,0,0,0-2l-4.66-2.69a3.83,3.83,0,0,0-3.46,0L186.79,325.06a1.06,1.06,0,0,0,0,2l4.66,2.69A3.86,3.86,0,0,0,194.92,329.75Z" style="fill:#455a64"></path><path d="M209.13,338l110.28-63.66a1.06,1.06,0,0,0,0-2l-4.66-2.69a3.86,3.86,0,0,0-3.47,0L201,333.26c-1,.56-1,1.45,0,2l4.66,2.69A3.77,3.77,0,0,0,209.13,338Z" style="fill:#455a64"></path><path d="M174.73,267.22a2.48,2.48,0,0,0-1.11,1.94c0,.71.5,1,1.11.64a2.46,2.46,0,0,0,1.12-1.93C175.85,267.16,175.35,266.87,174.73,267.22Z" style="fill:#263238"></path><path d="M174.73,283.64a2.48,2.48,0,0,0-1.11,1.93c0,.71.5,1,1.11.65a2.46,2.46,0,0,0,1.12-1.93C175.85,283.57,175.35,283.29,174.73,283.64Z" style="fill:#263238"></path><path d="M174.73,300.06a2.47,2.47,0,0,0-1.11,1.93c0,.71.5,1,1.11.64a2.45,2.45,0,0,0,1.12-1.93C175.85,300,175.35,299.7,174.73,300.06Z" style="fill:#263238"></path><path d="M272.24,227.49a2.44,2.44,0,0,0-1.11,1.93c0,.71.49,1,1.11.64a2.45,2.45,0,0,0,1.12-1.93C273.36,227.42,272.86,227.13,272.24,227.49Z" style="fill:#263238"></path><path d="M272.24,211.49a2.44,2.44,0,0,0-1.11,1.93c0,.71.49,1,1.11.64a2.45,2.45,0,0,0,1.12-1.93C273.36,211.42,272.86,211.13,272.24,211.49Z" style="fill:#263238"></path><path d="M272.24,243.9a2.45,2.45,0,0,0-1.11,1.93c0,.72.49,1,1.11.65a2.46,2.46,0,0,0,1.12-1.93C273.36,243.84,272.86,243.55,272.24,243.9Z" style="fill:#263238"></path><path d="M184,313.6c-.54.32-.54.82,0,1.13a2.12,2.12,0,0,0,2,0c.54-.31.54-.81,0-1.13A2.18,2.18,0,0,0,184,313.6Z" style="fill:#263238"></path><path d="M198.24,321.88a.6.6,0,0,0,0,1.13,2.18,2.18,0,0,0,2,0,.6.6,0,0,0,0-1.13A2.18,2.18,0,0,0,198.24,321.88Z" style="fill:#263238"></path><path d="M212.5,330.15c-.54.32-.55.82,0,1.14a2.18,2.18,0,0,0,2,0c.55-.32.55-.82,0-1.14A2.18,2.18,0,0,0,212.5,330.15Z" style="fill:#263238"></path><path d="M281.38,257.41c-.54.32-.55.82,0,1.14a2.18,2.18,0,0,0,2,0c.55-.32.55-.82,0-1.14A2.18,2.18,0,0,0,281.38,257.41Z" style="fill:#263238"></path><path d="M295.63,265.69a.6.6,0,0,0,0,1.13,2.18,2.18,0,0,0,2,0,.6.6,0,0,0,0-1.13A2.18,2.18,0,0,0,295.63,265.69Z" style="fill:#263238"></path><path d="M309.89,274c-.54.31-.54.81,0,1.13a2.18,2.18,0,0,0,2,0c.54-.32.54-.82,0-1.13A2.12,2.12,0,0,0,309.89,274Z" style="fill:#263238"></path><path d="M223.56,239.21a2.45,2.45,0,0,0-1.12,1.93c0,.71.5,1,1.12.64a2.47,2.47,0,0,0,1.11-1.93C224.67,239.14,224.17,238.85,223.56,239.21Z" style="fill:#263238"></path><path d="M223.56,255.62a2.47,2.47,0,0,0-1.12,1.94c0,.71.5,1,1.12.64a2.48,2.48,0,0,0,1.11-1.93C224.67,255.56,224.17,255.27,223.56,255.62Z" style="fill:#263238"></path><path d="M223.56,272a2.46,2.46,0,0,0-1.12,1.93c0,.71.5,1,1.12.65a2.48,2.48,0,0,0,1.11-1.94C224.67,272,224.17,271.69,223.56,272Z" style="fill:#263238"></path><path d="M232.69,285.55a.6.6,0,0,0,0,1.13,2.12,2.12,0,0,0,2,0c.54-.31.54-.81,0-1.13A2.18,2.18,0,0,0,232.69,285.55Z" style="fill:#263238"></path><path d="M247,293.83a.6.6,0,0,0,0,1.13,2.18,2.18,0,0,0,2,0,.6.6,0,0,0,0-1.13A2.18,2.18,0,0,0,247,293.83Z" style="fill:#263238"></path><path d="M261.21,302.1c-.54.32-.55.82,0,1.13a2.12,2.12,0,0,0,2,0c.55-.31.55-.81,0-1.13A2.18,2.18,0,0,0,261.21,302.1Z" style="fill:#263238"></path></g><g id="freepik--Character--inject-107"><path d="M375.91,238.07h21.36a5.74,5.74,0,0,0,5.74-5.74V186.9a16.42,16.42,0,0,0-16.42-16.42h0a16.42,16.42,0,0,0-16.41,16.42v45.43A5.74,5.74,0,0,0,375.91,238.07Z" style="fill:#263238"></path><path d="M372.92,218.26,367.39,284s12.3,6.66,26,1.05V226.5Z" style="fill:#FF5050"></path><path d="M372.92,218.26,367.39,284s12.3,6.66,26,1.05V226.5Z" style="fill:#fff;opacity:0.6000000000000001"></path><path d="M425,332.34c1.29-.67,2.11,1,3.29,2.29.82.93,2.11,2.39,2.3,3.45.28,1.56-1.13,4-2.69,5.37s-3.36,2.33-3.93,5.3a7.23,7.23,0,0,1-4.8,6.06c-3.37,1.45-7.89,1-9.42,0-1.82-1.17-.16-2.46,2.39-6.1,3.32-4.75,5.9-8.15,5.9-12.58Z" style="fill:#FF5050"></path><path d="M422.37,328.45l2.73,4a3.83,3.83,0,0,1-.92,5.32l-.09.06a4.11,4.11,0,0,1-5.22-.81l-4.25-4.64Z" style="fill:#f28f8f"></path><path d="M373.36,252.6c-.17,5.09-1.07,23.66,2.65,33.41a90,90,0,0,0,7.73,15.89c1.11,1.9,33,33,33,33s5.41-.4,6.28-5.64c0,0-13.07-22.22-15.9-26.78s-12.86-11.54-12.86-11.54l.91-42.72Z" style="fill:#FF5050"></path><path d="M373.36,252.6c-.17,5.09-1.07,23.66,2.65,33.41a90,90,0,0,0,7.73,15.89c1.11,1.9,33,33,33,33s5.41-.4,6.28-5.64c0,0-13.07-22.22-15.9-26.78s-12.86-11.54-12.86-11.54l.91-42.72Z" style="opacity:0.4"></path><rect x="373.62" y="348.26" width="6.92" height="10.07" transform="translate(87.7 -74.8) rotate(12.81)" style="fill:#f28f8f"></rect><path d="M384.6,268.15a42.88,42.88,0,0,1-6.16-7.1c-5.16-7.12-4.36-13.45-4.36-13.45h2.11l27.89.57c2.76,4.53,3.37,11.41,2.43,18.1-1.94,13.9-13.45,38-13.45,38,.17,1.9,1,9.88-.84,17-2.86,11.18-10.66,30.08-10.66,30.08s-4.88.7-7.3-2.13c0,0,4.31-38.38,5.47-48.21C381,290.28,384.6,268.15,384.6,268.15Z" style="fill:#FF5050"></path><path d="M384.6,268.15a42.88,42.88,0,0,1-6.16-7.1c-5.16-7.12-4.36-13.45-4.36-13.45h2.11l27.89.57c2.76,4.53,3.37,11.41,2.43,18.1-1.94,13.9-13.45,38-13.45,38,.17,1.9,1,9.88-.84,17-2.86,11.18-10.66,30.08-10.66,30.08s-4.88.7-7.3-2.13c0,0,4.31-38.38,5.47-48.21C381,290.28,384.6,268.15,384.6,268.15Z" style="opacity:0.4"></path><path d="M402.61,227.25c-.29-.5-8.95-12.63-.05-18.88-4.72,2.55-5,6-5,9.33C397.6,220.84,398.89,223.46,402.61,227.25Z" style="fill:#f28f8f"></path><path d="M373.34,354.11l.22-1c-.71.14-3.73,5.16-6.74,7.35-3.28,2.39-6.14,3.8-7.61,4.88-2,1.45.88,4.4,5.72,4.66,2.4.13,6.77-.6,8.12-1.88s2.32-3.39,3.39-4.31,3.23-1.73,4-2.9a8.18,8.18,0,0,0,.42-3.63c0-1.27-.08-2.65-.51-2.63,0,.14-.17.73-.17.73a8.43,8.43,0,0,1-4.1.91C374.9,356.26,372.78,356,373.34,354.11Z" style="fill:#FF5050"></path><path d="M380.59,294.4s3.25-23.09,4-26.25c0,0-5.73-2.18-7.49-4.19,0,0,1.26,2.8,5.36,5.29Z" style="fill:#FF5050;opacity:0.17"></path><path d="M397.91,293.72s-3.45,8.6-4.85,10.5c0,0,.35,6.54.3,7.86l1.81,1.58a40.78,40.78,0,0,0-.81-8.83Z" style="fill:#FF5050;opacity:0.17"></path><path d="M374.93,228.71c-.44,4-1.57,23.89-1.57,23.89,13.34,7.12,29.89,2.41,32.43-.53a28.33,28.33,0,0,0-7.5-12.75l4.33-12.06s.51-1.24.5-1.25c-.28-.49-6.32-7.29-.59-18.09l-7.79-.71-11.4-.33c-2.48.14-4.25.38-4.25.38-1.59,1.49-4.1,5.58-5.73,9.75C372.31,219.69,370.89,224.78,374.93,228.71Z" style="fill:#fff"></path><path d="M377,177.63c-1.73,1-3.88,5.39-3.66,14.53.17,7.75,2.69,9.66,3.95,10.22s3.69.21,6.06-.18v4.65s-3.27,3.79-3.07,5.93,4.72,2.63,7.78.55a24.56,24.56,0,0,0,5.63-6.14l-.05-10.7s1.39,1.35,3.75-.71c1.95-1.7,2.61-4.57,1.09-6.11a3.39,3.39,0,0,0-5.4,1.07,18.65,18.65,0,0,1-8.79-2.62A14.08,14.08,0,0,1,377,177.63Z" style="fill:#ffa8a7"></path><path d="M382,190.21a1,1,0,1,0,1-1A1,1,0,0,0,382,190.21Z" style="fill:#263238"></path><path d="M381.77,196.78l-2.27.72a1.18,1.18,0,0,0,1.48.82A1.26,1.26,0,0,0,381.77,196.78Z" style="fill:#f28f8f"></path><path d="M374,187.22l2-1.36a1.15,1.15,0,0,0-1.64-.34A1.26,1.26,0,0,0,374,187.22Z" style="fill:#263238"></path><path d="M374.49,189.51a1,1,0,0,0,.92,1.06,1,1,0,0,0,1-1,1,1,0,0,0-.92-1.06A1,1,0,0,0,374.49,189.51Z" style="fill:#263238"></path><polygon points="379.09 188.95 378.93 194.82 375.85 193.86 379.09 188.95" style="fill:#f28f8f"></polygon><path d="M383.39,202.2c2.49-.33,7.61-1.8,8.41-3.83A5.24,5.24,0,0,1,390,201c-1.54,1.31-6.62,2.79-6.62,2.79Z" style="fill:#f28f8f"></path><polygon points="400.87 232.12 393.37 241.75 398.29 239.32 400.87 232.12" style="fill:#FF5050"></polygon><path d="M400.19,178.73l3.8-2a2.09,2.09,0,0,0-2.88-1A2.28,2.28,0,0,0,400.19,178.73Z" style="fill:#263238"></path><path d="M400.27,178.75l3.74,2.17a2.09,2.09,0,0,0-.71-2.95A2.26,2.26,0,0,0,400.27,178.75Z" style="fill:#263238"></path><path d="M376,328.45s-2.77,20.12-3.48,23.38-5.9,7.53-10.25,10.44c-4,2.65-5.1,3.74-3.69,6.81,2.34,3,8.45,2.36,11.81,1s5.09-4.69,8.53-6.29c2.64-1.23,3.31-2.17,3.22-5.5-.13-5.24,7.13-26.39,7.13-26.39C387.62,328.33,379.58,326.79,376,328.45Z" style="fill:#FF5050"></path><path d="M404.65,323.48c2.8,3.08,11.67,11.42,12.65,12.77,1.32,1.81-1,5.43-2.35,7.94-1.63,3-6.05,7.31-6.2,8.95s1,2.64,3.32,3.09,7.48.15,10.19-2.94,3.23-6.17,4.74-8.1,4.42-4.8,4-6.77c-.34-1.52-2.42-4.18-5.21-7.43s-11.16-16-11.16-16C414,318.49,408.37,323.33,404.65,323.48Z" style="fill:#FF5050"></path><path d="M382.14,358.26a6.9,6.9,0,0,1-3.76,3.63c-1.73.81-4.43,3.44-5.79,4.67-2.25,2.05-7.1,3.59-10.45,2.81a11.36,11.36,0,0,0,6.14,0A11.61,11.61,0,0,0,374,366a21,21,0,0,1,4.41-3.41c1.37-.53,3.32-1.78,3.7-3.36Z" style="fill:#FF5050"></path><path d="M382.14,358.26a6.9,6.9,0,0,1-3.76,3.63c-1.73.81-4.43,3.44-5.79,4.67-2.25,2.05-7.1,3.59-10.45,2.81a11.36,11.36,0,0,0,6.14,0A11.61,11.61,0,0,0,374,366a21,21,0,0,1,4.41-3.41c1.37-.53,3.32-1.78,3.7-3.36Z" style="opacity:0.1"></path><path d="M430.14,336.6a8.4,8.4,0,0,1-2.66,5.24,22.77,22.77,0,0,0-3.76,5.63c-2,3.82-3.89,6.78-8,7.51a7.75,7.75,0,0,0,5-2.1,16.27,16.27,0,0,0,3.62-5.41,29.63,29.63,0,0,1,3.33-5.13,8.93,8.93,0,0,0,2.82-5.19Z" style="fill:#FF5050"></path><path d="M430.14,336.6a8.4,8.4,0,0,1-2.66,5.24,22.77,22.77,0,0,0-3.76,5.63c-2,3.82-3.89,6.78-8,7.51a7.75,7.75,0,0,0,5-2.1,16.27,16.27,0,0,0,3.62-5.41,29.63,29.63,0,0,1,3.33-5.13,8.93,8.93,0,0,0,2.82-5.19Z" style="opacity:0.1"></path><path d="M393.73,206.68l8.8.73s-3.9,10.5.59,18.6l-1.95,10.3v3.95s5.18,8.52,6.14,16.08.7,30.43.7,30.43-10.32,5.17-20.42,1.71c0,0,1.13-61.83,2.89-70.19S393.73,206.68,393.73,206.68Z" style="fill:#FF5050"></path><path d="M393.73,206.68l8.8.73s-3.9,10.5.59,18.6l-1.95,10.3v3.95s5.18,8.52,6.14,16.08.7,30.43.7,30.43-10.32,5.17-20.42,1.71c0,0,1.13-61.83,2.89-70.19S393.73,206.68,393.73,206.68Z" style="fill:#fff;opacity:0.7000000000000001"></path><path d="M393.25,268l-.19,16s6.33,1.06,10.89-1c0,0-1.68,2.11-6,2.35S392,285,392,285Z" style="fill:#FF5050"></path><path d="M402.5,229.27a47.53,47.53,0,0,1-3-10.8,25.48,25.48,0,0,0,2.53,13.15Z" style="fill:#FF5050"></path><path d="M383.39,206.85a44.24,44.24,0,0,0-10.47,11.41s.59-7.4,1.51-9.21c1.1-2.17,4.24-2.77,9-2.84Z" style="fill:#FF5050"></path><path d="M383.39,206.85a44.24,44.24,0,0,0-10.47,11.41s.59-7.4,1.51-9.21c1.1-2.17,4.24-2.77,9-2.84Z" style="fill:#fff;opacity:0.6000000000000001"></path><path d="M409.68,241.35c-4.66,3.19-10.6,7.47-15.23,8.54a3.46,3.46,0,0,1-2.46-.36c-2-1.08-3.43-1.15-5.45-1.67-1.58-.41-2.32-1.11-2.58-.8a1.88,1.88,0,0,0,.44,2.5,13.44,13.44,0,0,0,2.61,1.65,16.94,16.94,0,0,1-5.53-.09c-4.2-.73-4.56,2.18-3.41,4.92,1.32,3.13,4.45,4,12.24,2.6a49.06,49.06,0,0,0,8.75-2.77,164.7,164.7,0,0,0,17.77-8.9" style="fill:#ffa8a7"></path><path d="M402.53,207.41a8.42,8.42,0,0,1,7.06,4.53c1.53,2.55,7,20.19,9.86,31a3.8,3.8,0,0,1-1.87,4.33c-2.48,1.34-6.65,3.7-9.54,5a51.34,51.34,0,0,0-3.52-8l3.11-2.12-5.13-12.85S395.73,216.8,402.53,207.41Z" style="fill:#FF5050"></path><path d="M402.53,207.41a8.42,8.42,0,0,1,7.06,4.53c1.53,2.55,7,20.19,9.86,31a3.8,3.8,0,0,1-1.87,4.33c-2.48,1.34-6.65,3.7-9.54,5a51.34,51.34,0,0,0-3.52-8l3.11-2.12-5.13-12.85S395.73,216.8,402.53,207.41Z" style="fill:#fff;opacity:0.7000000000000001"></path><circle cx="438.92" cy="308.06" r="1.21" style="fill:#FF5050"></circle><path d="M440.51,312.41a.48.48,0,0,1-.46-.31l-1.6-3.85a.5.5,0,0,1,.93-.38l1.59,3.85a.49.49,0,0,1-.27.65A.43.43,0,0,1,440.51,312.41Z" style="fill:#37474f"></path><polygon points="440.06 307.68 421.27 253.03 410.27 257.44 437.86 308.64 440.06 307.68" style="fill:#FF5050"></polygon><path d="M411.12,258c.68-1.35-1-3.66,0-4.72s2.52.66,3.79.11c1.53-.66,1.22-2.86,2.27-3,1.48-.17,2.09,2.94,3.81,3Z" style="fill:#FF5050"></path><path d="M411.12,258c.68-1.35-1-3.66,0-4.72s2.52.66,3.79.11c1.53-.66,1.22-2.86,2.27-3,1.48-.17,2.09,2.94,3.81,3Z" style="opacity:0.2"></path><path d="M405.79,243.37l1.13-.77s1.3-1.35,2.31.77c.86,1.85,4.25,9.36,5.51,12.15a1.06,1.06,0,0,0,1.48.49h0a1.08,1.08,0,0,0,.45-1.36c-1.26-2.79-5.09-11.34-5.55-12.49-.56-1.39-1.76-3.35-4.3-2A2.34,2.34,0,0,0,405.79,243.37Z" style="fill:#37474f"></path><path d="M411.84,255.6c-1.66,2.1-.89,3.14.89,3.33a9.55,9.55,0,0,0,7.79-3.09c1.65-2.1,1.33-2.42-1.31-2.81A8.12,8.12,0,0,0,411.84,255.6Z" style="fill:#FF5050"></path><path d="M411.84,255.6c-1.66,2.1-.89,3.14.89,3.33a9.55,9.55,0,0,0,7.79-3.09c1.65-2.1,1.33-2.42-1.31-2.81A8.12,8.12,0,0,0,411.84,255.6Z" style="opacity:0.2"></path><polygon points="413.79 258.99 436.06 302.29 414.62 257.99 413.79 258.99" style="fill:#FF5050"></polygon><polygon points="413.79 258.99 436.06 302.29 414.62 257.99 413.79 258.99" style="opacity:0.2"></polygon><polygon points="419.71 255.6 434.58 296.34 418.73 256.68 419.71 255.6" style="fill:#FF5050"></polygon><polygon points="419.71 255.6 434.58 296.34 418.73 256.68 419.71 255.6" style="opacity:0.2"></polygon><path d="M415,258.87c.65-.14-1.17-3.86.29-4.58s2.91,3.27,3.64,3a2.54,2.54,0,0,1-1.28,2.5C416.22,260.39,415,258.87,415,258.87Z" style="fill:#FF5050"></path><path d="M420,256.41c.39-.32-.94-4.58.63-5.3l1.88,5.53Z" style="fill:#FF5050"></path><path d="M413.79,259c-.45.18-1.28-1.07-2-2.15s-1.92-1.7-2.56-1.37l1.9,3.52S412.76,260.23,413.79,259Z" style="fill:#FF5050"></path></g></svg>