<svg xmlns="http://www.w3.org/2000/svg" viewBox="0 0 500 500"><g id="freepik--Floor--inject-99"><g id="freepik--Mountains--inject-99"><path d="M465.34,209.28l-61-103.34a3,3,0,0,0-5.1,0l-28.56,48.29L352.8,131.38a3,3,0,0,0-4.72.07L283.38,220v79.83H465.46Z" style="fill:#FF5050"></path><path d="M465.34,209.28l-61-103.34a3,3,0,0,0-5.1,0l-28.56,48.29L352.8,131.38a3,3,0,0,0-4.72.07L283.38,220v79.83H465.46Z" style="fill:#fff;opacity:0.7000000000000001"></path><path d="M418.6,143.3a3.49,3.49,0,0,1-4.86-.16l-8.33-8.67a3.49,3.49,0,0,0-5.12.1l-1.9,2.13a3.49,3.49,0,0,1-5.1.12,3.49,3.49,0,0,0-5.39.49l-1.21,1.79a3.48,3.48,0,0,1-6.29-1.18l0-.14,18.84-31.85a3,3,0,0,1,5.1,0l19.36,32.78Z" style="fill:#fff;opacity:0.7000000000000001"></path><path d="M363.87,146.63l-4.74-1.95a2.26,2.26,0,0,0-2.78.91L355.5,147a2.26,2.26,0,0,1-3.47.47l-1-.93a2.26,2.26,0,0,0-3.48.5l-1.64,2.75a2.26,2.26,0,0,1-4-.31l-.62-1.52a2.25,2.25,0,0,0-3-1.22,2.27,2.27,0,0,1-1.42.13l11.25-15.4a3,3,0,0,1,4.72-.07l12,15.41A2.23,2.23,0,0,1,363.87,146.63Z" style="fill:#fff;opacity:0.7000000000000001"></path><polygon points="365 154.22 352.8 131.38 370.64 154.22 356.22 175.35 365 154.22" style="fill:#FF5050;opacity:0.30000000000000004"></polygon></g><g id="freepik--floor--inject-99"><g id="freepik--Shrubbery--inject-99"><path id="freepik--shrubbery--inject-99" d="M472.56,302.53c3.08,1.46,5.66,5.57,2.52,8.67-1.57,1.56-4.66,1.63-6.69,1.13a10.16,10.16,0,0,1-1.07-.33c-11.22-17.63-29.08-34.17-53.6-48.32-38.81-22.4-88-35.2-138.61-38.38H275c-2.07-.26-4.14-.52-6.19-.84-6.28-1-13.08-1.58-18.38-5.53a8,8,0,0,1-2.26-4,7.6,7.6,0,0,1,.82-5.44c2-3.7,8.57-5.39,14.36-3.58,1.21.38,8.77,5.3,7.82,6.84,1.66-2.68,5.37-5.65,5.36-.1,2.49-1.71,5.69-2.78,6.22,1.32,1.56-2.35,2.86-5.07,5.15-6.82s6.46-2.06,8.41.41a7.24,7.24,0,0,1,1.28,3.25,2.9,2.9,0,0,1,3.82-1.7c1.27.38,1.62,1.07,2.06,2.21.76-1.8,3.44-3,5.31-2.85,1.42.13,2.35,1.54,2.76,2.79.49,1.49-.15,2.37-.23,3.75a3.48,3.48,0,0,1,3.09-1.16,5.07,5.07,0,0,1,3.21,2.55c.51-1.6,2.58-3.49,4.37-2.56.92.47,1.05,1.92.74,2.74.66-1,2.64-.57,3.42,0a4.84,4.84,0,0,1,1.51,2.31,6.24,6.24,0,0,1,2.68-.55,4.71,4.71,0,0,1,2.2.58,3.52,3.52,0,0,1,1.85,3.84c2.94-4.29,11.38-3.94,11.91,2.2,4.81-6.31,10.8-8.59,11,.79,4.51-5.64,9.66,0,10.18,4.86,1.43-2.8,6.5-3.62,9.26-2.55,2.49,1,3.05,2.82,4,5.29,6.05-5.68,12.95-2.11,14.53,5.27,4-3,14.69-5.28,14.11,4.87,2.88-3.16,9.05-4.57,12.46-.62,1.61,1.86,1.32,6.17,1.13,8.47,2.71-4.94,11.07-3.8,14.6-.32,3.17,3.12,1.7,5.95,1.38,9.6,3.53-3.7,11.78-1.32,14.07,2.76,1.69,3,.36,6.12-.56,9.17.67-2.22,4.82-1.37,6.34-.94a9.85,9.85,0,0,1,6,4.5c2.34,4.1,3.95,9.41,1.62,13.1,3.52.11,7.62,1.4,9.87,4.39a5.24,5.24,0,0,1,.36,5.49C475.67,300.82,473.9,301.65,472.56,302.53Z" style="fill:#455a64"></path></g><g id="freepik--Grass--inject-99"><ellipse id="freepik--grass--inject-99" cx="250" cy="348.82" rx="231.53" ry="133.67" style="fill:#FF5050"></ellipse><ellipse id="freepik--grass--inject-99" cx="250" cy="348.82" rx="231.53" ry="133.67" style="fill:#fff;opacity:0.30000000000000004"></ellipse><path d="M452.3,306.68a72.18,72.18,0,0,0,21.4,7.61c-10.14-22-30.13-42.76-60-60-71.79-41.45-179-50-265.39-25.61a16,16,0,0,0,1.71,2.2c7.23,7.8,21.09,13.14,30.62,17.22,21.33,9.13,48.51,9.61,71.47,11.89a291.79,291.79,0,0,1,33.17,4.92c18.92,4.14-6.2,8.39,6,14.87,8.11,4.3,18.1,2.4,26.62,6.1-2.24.62-13.76,1.05-14.14,4.59-.5,4.6,10.49,6.85,13.56,7.62,7.61,1.91,17.4,3.74,25.18,2.54,6.73-1,10.77-6.31,4.14-11.39,10-.36,21.6,5.78,31.25,8.48.43,3.64-3.34,2.81-4,5.38-1.28,4.89,3.75,6.74,7.3,8.56s19.54,7.57,18.89-.79c5.89,5.78,39.34,17.47,42.9,8.59,2.9-7.24-12.36-12.19-13.18-18.9C438.27,297.68,445.23,302.55,452.3,306.68Z" style="fill:#FF5050;opacity:0.2"></path></g><g id="freepik--Rocks--inject-99"><g id="freepik--Rock--inject-99"><polygon points="341.81 327.29 343.25 330.22 340.17 330.14 337.3 332.89 336.35 335.23 336.26 339.3 336.62 344.87 333.63 340.87 334.89 335.8 336.57 332.24 339.86 329.87 341.81 327.29" style="fill:#263238"></polygon><polygon points="342.82 342.99 347.3 340.87 342.19 331.67 342.82 342.99" style="fill:#263238"></polygon><polygon points="334.89 324.72 341.81 327.29 339.86 329.87 336.57 332.24 334.89 335.8 335.3 332.05 336.88 328.42 334.89 324.72" style="fill:#37474f"></polygon><polygon points="330.95 325.72 325.81 331.83 324.54 335.52 328.88 334.9 334.89 335.8 335.3 332.05 331.91 329.44 330.95 325.72" style="fill:#37474f"></polygon><polygon points="340.17 330.14 337.3 332.89 336.35 335.23 336.26 339.3 338.33 342.43 342.82 342.99 342.19 331.67 340.17 330.14" style="fill:#37474f"></polygon><polygon points="325.81 331.83 322.2 335.94 320.61 337.3 320.76 338.82 323.31 339.79 333.04 340.12 333.56 338.9 329.66 337.01 327.44 337.88 324.54 335.52 325.81 331.83" style="fill:#37474f"></polygon><polygon points="324.54 335.52 327.44 337.88 329.66 337.01 328.88 334.9 324.54 335.52" style="fill:#263238"></polygon><polygon points="323.69 343.53 325.72 343.43 326.33 342.11 330.51 341.21 323.93 341.13 323.69 343.53" style="fill:#263238"></polygon><polygon points="332.33 341.01 330.51 341.21 329.45 343.64 331.78 345.34 332.33 341.01" style="fill:#37474f"></polygon><polygon points="343.25 330.22 349.31 337.59 347.3 340.87 342.19 331.67 340.17 330.14 343.25 330.22" style="fill:#455a64"></polygon><polygon points="336.62 344.87 338.33 342.43 336.26 339.3 336.62 344.87" style="fill:#455a64"></polygon><polygon points="334.89 335.8 333.56 338.9 329.66 337.01 328.88 334.9 334.89 335.8" style="fill:#455a64"></polygon><polygon points="330.95 325.72 334.89 324.72 336.88 328.42 335.3 332.05 331.91 329.44 330.95 325.72" style="fill:#455a64"></polygon><polygon points="319.28 339.45 319.13 342.31 323.69 343.53 323.93 341.13 319.28 339.45" style="fill:#455a64"></polygon><polygon points="336.62 344.87 331.78 345.34 332.33 341.01 333.63 340.87 336.62 344.87" style="fill:#455a64"></polygon><polygon points="325.72 343.43 329.45 343.64 330.51 341.21 326.33 342.11 325.72 343.43" style="fill:#455a64"></polygon><polygon points="327.95 329.28 326.43 332.66 326.34 334.32 328.68 333.75 334.89 335.8 328.88 334.9 324.54 335.52 325.81 331.83 327.95 329.28" style="fill:#455a64"></polygon><polygon points="334.89 324.72 335.93 328.5 334.42 331.37 335.3 332.05 336.88 328.42 334.89 324.72" style="fill:#455a64"></polygon><polygon points="333.63 340.87 330.51 341.21 323.93 341.13 319.28 339.45 320.05 336.99 322.2 335.94 320.61 337.3 320.76 338.82 323.31 339.79 333.04 340.12 334.89 335.8 333.63 340.87" style="fill:#455a64"></polygon><g style="opacity:0.1"><polygon points="327.95 329.28 326.43 332.66 326.34 334.32 328.68 333.75 334.89 335.8 328.88 334.9 324.54 335.52 325.81 331.83 327.95 329.28" style="fill:#fff"></polygon><polygon points="334.89 324.72 335.93 328.5 334.42 331.37 335.3 332.05 336.88 328.42 334.89 324.72" style="fill:#fff"></polygon><polygon points="333.63 340.87 330.51 341.21 323.93 341.13 319.28 339.45 320.05 336.99 322.2 335.94 320.61 337.3 320.76 338.82 323.31 339.79 333.04 340.12 334.89 335.8 333.63 340.87" style="fill:#fff"></polygon></g></g><g id="freepik--Bullrush--inject-99"><path d="M341.24,338.56h0c.08,1.1.19,2.17.34,3.19h0c.06.5.14,1,.22,1.46v0h0l.72.27a0,0,0,0,0,0,0l.2.08h0s0,0,0-.05c0-.18-.07-.35-.11-.53a45.82,45.82,0,0,1-.7-4.77h0a42.3,42.3,0,0,1-.14-6.07c0-.71.09-1.38.17-2a40.14,40.14,0,0,1,.74-4.23c.1-.47.21-.84.28-1.1s.15-.49.12-.5a1.72,1.72,0,0,0-.21.5l-.37,1.12a26.72,26.72,0,0,0-.94,4.3c-.09.62-.17,1.23-.23,1.83A37.86,37.86,0,0,0,341.24,338.56Z" style="fill:#FF5050"></path><path d="M341.24,338.56h0c.08,1.1.19,2.17.34,3.19h0c.06.5.14,1,.22,1.46v0h0l.72.27a0,0,0,0,0,0,0l.2.08h0s0,0,0-.05c0-.18-.07-.35-.11-.53a45.82,45.82,0,0,1-.7-4.77h0a42.3,42.3,0,0,1-.14-6.07c0-.71.09-1.38.17-2a40.14,40.14,0,0,1,.74-4.23c.1-.47.21-.84.28-1.1s.15-.49.12-.5a1.72,1.72,0,0,0-.21.5l-.37,1.12a26.72,26.72,0,0,0-.94,4.3c-.09.62-.17,1.23-.23,1.83A37.86,37.86,0,0,0,341.24,338.56Z" style="opacity:0.15"></path><path d="M336.16,326v.26a29.37,29.37,0,0,0,.55,5.38c.05.28.11.55.16.82a41,41,0,0,0,3.68,10.3l.75.3.18.07.32.13h0v0c-.1-.17-.2-.34-.29-.51s-.35-.63-.51-.94a43.5,43.5,0,0,1-3.68-9.39c-.08-.31-.15-.6-.22-.89a38.08,38.08,0,0,1-.78-5.32c0-.08,0-.15,0-.22a13,13,0,0,0-.08-1.43A8.66,8.66,0,0,0,336.16,326Z" style="fill:#FF5050"></path><path d="M336.16,326v.26a29.37,29.37,0,0,0,.55,5.38c.05.28.11.55.16.82a41,41,0,0,0,3.68,10.3l.75.3.18.07.32.13h0v0c-.1-.17-.2-.34-.29-.51s-.35-.63-.51-.94a43.5,43.5,0,0,1-3.68-9.39c-.08-.31-.15-.6-.22-.89a38.08,38.08,0,0,1-.78-5.32c0-.08,0-.15,0-.22a13,13,0,0,0-.08-1.43A8.66,8.66,0,0,0,336.16,326Z" style="opacity:0.15"></path><path d="M343.52,343.91l.13,0,.69.25a42.8,42.8,0,0,1,5.18-9.49,36,36,0,0,1,4.15-4.73c.75-.75,1.25-1.08,1.21-1.13a12.27,12.27,0,0,0-1.37,1.05,30.86,30.86,0,0,0-4.32,4.49,40.7,40.7,0,0,0-5.45,9h0Z" style="fill:#FF5050"></path><path d="M343.52,343.91l.13,0,.69.25a42.8,42.8,0,0,1,5.18-9.49,36,36,0,0,1,4.15-4.73c.75-.75,1.25-1.08,1.21-1.13a12.27,12.27,0,0,0-1.37,1.05,30.86,30.86,0,0,0-4.32,4.49,40.7,40.7,0,0,0-5.45,9h0Z" style="opacity:0.15"></path><path d="M342.53,343.51v0a0,0,0,0,0,0,0l.2.08h0l.77.29.13,0,.09-.54h0a59.71,59.71,0,0,1,4.35-14.31l.12-.25c.26-.56.52-1.1.78-1.6.47-.93.94-1.77,1.39-2.52.55-.93,1.07-1.72,1.51-2.4h0c.15-.21.29-.41.41-.61.26-.4.5-.73.7-1,.4-.53.64-.8.6-.83a5.15,5.15,0,0,0-.75.8c-.28.33-.57.7-.78,1s-.24.29-.34.44a.1.1,0,0,0-.05.06v0a29.31,29.31,0,0,0-1.81,2.58c-.48.74-.92,1.49-1.34,2.24q-.5.9-1,1.8l-.11.21a55.55,55.55,0,0,0-4.7,13.45h0c-.05.2-.09.39-.13.58S342.56,343.36,342.53,343.51Z" style="fill:#FF5050"></path><path d="M351.83,322.15s.38.36-.06,1.22-1.69,2.9-2.2,3.62c-.33.46-1.65,0-1.27-.81a23.55,23.55,0,0,1,2.12-3.54c.52-.68.82-.86,1.2-.67l0,0s0,.12.06.17a.14.14,0,0,0,.16,0Z" style="fill:#FF5050"></path><path d="M351.83,322.15s.38.36-.06,1.22-1.69,2.9-2.2,3.62c-.33.46-1.65,0-1.27-.81a23.55,23.55,0,0,1,2.12-3.54c.52-.68.82-.86,1.2-.67l0,0s0,.12.06.17a.14.14,0,0,0,.16,0Z" style="opacity:0.4"></path><path d="M339.59,329.37c0,.47,0,.95,0,1.41a49.74,49.74,0,0,0,1.41,11c.1.44.2.86.3,1.27l.18.07.32.13h0l.72.27v0c-.32-1-.6-2-.85-3-.16-.63-.31-1.27-.44-1.89h0a54.67,54.67,0,0,1-1.06-7.93c0-.42,0-.82-.05-1.21,0-.64,0-1.25,0-1.83,0-.84.06-1.62.11-2.34.09-1.05.2-2,.3-2.73,0-.23.06-.44.09-.65s.09-.59.14-.83a4.45,4.45,0,0,0,.18-1.13,5.44,5.44,0,0,0-.33,1.14c-.07.31-.14.63-.2.86s-.08.38-.11.57c-.2.95-.34,1.9-.45,2.84-.09.75-.15,1.5-.19,2.24S339.61,328.77,339.59,329.37Z" style="fill:#FF5050"></path><path d="M340.43,322.34s.44.14.43,1-.22,3-.35,3.75c-.08.49-1.32.63-1.33-.16a21.19,21.19,0,0,1,.31-3.65c.15-.74.32-1,.7-1l0,.06s0,.09.12.1a.1.1,0,0,0,.13-.05Z" style="fill:#FF5050"></path><path d="M340.43,322.34s.44.14.43,1-.22,3-.35,3.75c-.08.49-1.32.63-1.33-.16a21.19,21.19,0,0,1,.31-3.65c.15-.74.32-1,.7-1l0,.06s0,.09.12.1a.1.1,0,0,0,.13-.05Z" style="opacity:0.4"></path><path d="M341.48,343.13l.32.13h0l.72.27a0,0,0,0,0,0,0l.2.08v-.05c0-.37,0-.75,0-1.11h0a60.49,60.49,0,0,1,1.71-12.83c.31-1.24.64-2.42,1-3.5.15-.46.3-.91.45-1.34a42.48,42.48,0,0,1,1.72-4.15c.37-.8.71-1.49,1-2.08.05-.09.1-.18.14-.27.65-1.28,1.15-1.91,1.08-2a16.82,16.82,0,0,0-1.32,1.94l-.19.31c-.42.69-.81,1.39-1.17,2.09a40.72,40.72,0,0,0-1.85,4.14c-.15.36-.29.71-.42,1.07-.5,1.32-.93,2.64-1.29,3.94a55.34,55.34,0,0,0-1.7,8.46h0c-.1.76-.18,1.49-.25,2.2,0,.44-.07.87-.1,1.3h0c0,.32-.05.64-.07,1Z" style="fill:#FF5050"></path></g><g id="freepik--rock--inject-99"><polygon points="357.62 337.86 358.13 339.87 356.23 339.42 354.09 340.76 353.19 342.1 352.61 344.62 352.12 348.13 350.77 345.25 352.21 342.26 353.72 340.26 356.07 339.21 357.62 337.86" style="fill:#263238"></polygon><polygon points="355.89 345.83 358.83 342.91 357.29 340.63 355.89 345.83" style="fill:#263238"></polygon><polygon points="353.65 335.37 357.62 337.86 356.07 339.21 353.72 340.26 352.21 342.26 352.95 339.98 354.41 337.93 353.65 335.37" style="fill:#37474f"></polygon><polygon points="351.06 335.48 347.07 338.61 345.81 340.75 348.59 340.93 352.21 342.26 352.95 339.98 351.18 337.92 351.06 335.48" style="fill:#37474f"></polygon><polygon points="356.23 339.42 354.09 340.76 353.19 342.1 352.61 344.62 353.49 346.83 355.89 345.83 357.29 340.63 356.23 339.42" style="fill:#37474f"></polygon><polygon points="347.07 338.61 344.3 340.71 343.13 341.35 343.03 342.31 344.49 343.25 350.5 344.71 350.99 344.02 348.8 342.34 347.3 342.59 345.81 340.75 347.07 338.61" style="fill:#37474f"></polygon><polygon points="345.81 340.75 347.3 342.59 348.8 342.34 348.59 340.93 345.81 340.75" style="fill:#263238"></polygon><polygon points="344.24 345.62 345.52 345.82 346.07 345.08 348.79 345.06 344.7 344.16 344.24 345.62" style="fill:#263238"></polygon><polygon points="349.94 345.17 348.79 345.06 347.81 346.44 349.04 347.8 349.94 345.17" style="fill:#37474f"></polygon><polygon points="358.13 339.87 359.78 341.72 358.83 342.91 357.29 340.63 356.23 339.42 358.13 339.87" style="fill:#455a64"></polygon><polygon points="352.12 348.13 353.49 346.83 352.61 344.62 352.12 348.13" style="fill:#455a64"></polygon><polygon points="352.21 342.26 350.99 344.02 348.8 342.34 348.59 340.93 352.21 342.26" style="fill:#455a64"></polygon><polygon points="351.06 335.48 353.65 335.37 354.41 337.93 352.95 339.98 351.18 337.92 351.06 335.48" style="fill:#455a64"></polygon><polygon points="342.03 342.51 341.56 344.27 344.24 345.62 344.7 344.16 342.03 342.51" style="fill:#455a64"></polygon><polygon points="352.12 348.13 349.04 347.8 349.94 345.17 350.77 345.25 352.12 348.13" style="fill:#455a64"></polygon><polygon points="345.52 345.82 347.81 346.44 348.79 345.06 346.07 345.08 345.52 345.82" style="fill:#455a64"></polygon><polygon points="348.74 337.31 347.35 339.21 347.08 340.24 348.61 340.18 352.21 342.26 348.59 340.93 345.81 340.75 347.07 338.61 348.74 337.31" style="fill:#455a64"></polygon><polygon points="353.65 335.37 353.8 337.85 352.49 339.44 352.95 339.98 354.41 337.93 353.65 335.37" style="fill:#455a64"></polygon><polygon points="350.77 345.25 348.79 345.06 344.7 344.16 342.03 342.51 342.82 341.08 344.3 340.71 343.13 341.35 343.03 342.31 344.49 343.25 350.5 344.71 352.21 342.26 350.77 345.25" style="fill:#455a64"></polygon><g style="opacity:0.1"><polygon points="348.74 337.31 347.35 339.21 347.08 340.24 348.61 340.18 352.21 342.26 348.59 340.93 345.81 340.75 347.07 338.61 348.74 337.31" style="fill:#fff"></polygon><polygon points="353.65 335.37 353.8 337.85 352.49 339.44 352.95 339.98 354.41 337.93 353.65 335.37" style="fill:#fff"></polygon><polygon points="350.77 345.25 348.79 345.06 344.7 344.16 342.03 342.51 342.82 341.08 344.3 340.71 343.13 341.35 343.03 342.31 344.49 343.25 350.5 344.71 352.21 342.26 350.77 345.25" style="fill:#fff"></polygon></g></g></g><g id="freepik--grass--inject-99"><path d="M269.84,405.8c-.74,9.46,3,21,3,21l-2.12-.92C267.81,413,269.84,405.8,269.84,405.8Z" style="fill:#FF5050"></path><path d="M269.84,405.8c-.74,9.46,3,21,3,21l-2.12-.92C267.81,413,269.84,405.8,269.84,405.8Z" style="opacity:0.15"></path><path d="M271.72,426.19a.54.54,0,0,1,0,.1l-1-.45c-2.9-12.83-.87-20-.87-20C268.8,410.46,270.14,421.26,271.72,426.19Z" style="opacity:0.15"></path><path d="M272.83,426.76A59.7,59.7,0,0,1,275,410.68c2.33-7.6,5.94-11.28,5.94-11.28s-4.61,2.77-7.7,11a49.93,49.93,0,0,0-3.21,15.15Z" style="fill:#FF5050"></path><path d="M271.37,426.12h0l-1.32-.57a49.93,49.93,0,0,1,3.21-15.15c3.09-8.23,7.7-11,7.7-11C276.57,403,271.39,413.74,271.37,426.12Z" style="opacity:0.1"></path><path d="M272.83,426.76s.6-7.06,8.51-13.79a24.09,24.09,0,0,0-10.63,12.87Z" style="fill:#FF5050"></path><path d="M271.72,426.19a.24.24,0,0,1,0,.08l-1-.43A24.09,24.09,0,0,1,281.34,413C277.62,415.73,273.22,420.2,271.72,426.19Z" style="opacity:0.1"></path></g><g id="freepik--grass--inject-99"><path d="M97.62,387.1c.75,9.46-3,21-3,21l2.12-.93C99.65,394.31,97.62,387.1,97.62,387.1Z" style="fill:#FF5050"></path><path d="M97.62,387.1c.75,9.46-3,21-3,21l2.12-.93C99.65,394.31,97.62,387.1,97.62,387.1Z" style="opacity:0.15"></path><path d="M95.74,407.49l0,.1,1-.46c2.9-12.82.87-20,.87-20C98.66,391.76,97.32,402.56,95.74,407.49Z" style="opacity:0.15"></path><path d="M94.63,408.06A59.79,59.79,0,0,0,92.44,392c-2.33-7.59-5.94-11.28-5.94-11.28s4.61,2.78,7.7,11a50.15,50.15,0,0,1,3.22,15.15Z" style="fill:#FF5050"></path><path d="M96.09,407.42h0l1.33-.57A50.15,50.15,0,0,0,94.2,391.7c-3.09-8.23-7.7-11-7.7-11C90.89,384.29,96.07,395,96.09,407.42Z" style="opacity:0.1"></path><path d="M94.63,408.06s-.6-7.06-8.5-13.79a24.09,24.09,0,0,1,10.62,12.86Z" style="fill:#FF5050"></path><path d="M95.74,407.49a.24.24,0,0,0,0,.08l1-.44a24.09,24.09,0,0,0-10.62-12.86C89.85,397,94.24,401.49,95.74,407.49Z" style="opacity:0.1"></path></g></g></g><g id="freepik--Sun--inject-99"><circle id="freepik--sun--inject-99" cx="74.48" cy="70.35" r="15.12" transform="translate(-27.93 73.27) rotate(-45)" style="fill:#ffbda7"></circle></g><g id="freepik--Clouds--inject-99"><path id="freepik--Cloud--inject-99" d="M225.91,53c-1.39,1-3.45,1-5.25.87-2.11-.2-4.5-.41-6.1,1a17.09,17.09,0,0,0-1.93,2.59c-1.83,2.33-5.55.86-7,4-.21.45-.15,1.88-.73,2s-1.83-.71-2.45-.78a20.2,20.2,0,0,0-6,.53A6.87,6.87,0,0,0,192,66.23c-.5.76-.93,1.7-1.82,2a2.94,2.94,0,0,1-1.55-.13,18.34,18.34,0,0,0-5.36-1c-1.84.07-3.78,1-4.45,2.61-.09.24-.19.51-.44.58s-.49-.12-.68-.28a5.55,5.55,0,0,0-4.93-1,2.68,2.68,0,0,0-1.43.87c-.47.64-.44,1.55-.91,2.19-.83,1.13-2.59.89-4,.59-1.84-.4-4-.62-5.44.56-.4.32-.71.72-1.12,1-1.12.8-2.65.65-4,.59-.91,0-11.53.88-11.33,1.77s2.86.56,3.46.58c.89,0,1.77.18,2.67.16a7.21,7.21,0,0,1,2.7.06c.56.21.94.66,1.56.82a7,7,0,0,0,4.24-.54c1.56-.61,3.21-1.6,4.94-1.62a7.76,7.76,0,0,1,2.36.72,8.24,8.24,0,0,0,4.79-.17c.89-.28,2.27-1,3.27-.8.56.11,1.19.64,1.77.81a11.89,11.89,0,0,0,2.36.47c2.86.25,5.56-1.45,8.21-2.25,3.38-1,5.32-.38,8,1.5a8.24,8.24,0,0,0,7.78.8,21.57,21.57,0,0,1,2.26-1,9,9,0,0,1,6,.13,14,14,0,0,0,3.49,1.51c4.08.72,7.7-4.2,11.73-3.21a10.52,10.52,0,0,1,2.31,1,35,35,0,0,0,7,2.33,3.1,3.1,0,0,0,3.07-.51,18,18,0,0,1,3.13-1.77,4.35,4.35,0,0,1,3.5,0,8.4,8.4,0,0,0,1.71.94c1.62.4,2.92-1.48,4.57-1.77s3.1,1,4.74.76,3.32-1.17,5.11-1.35c4-.4,8.15.45,12.11-.68a20.18,20.18,0,0,1,4.55-1.12c2.88-.14,5.75,1.57,8.53.83a.85.85,0,0,0,.31-.13c.29-.24.12-.77-.21-1a2,2,0,0,0-1.13-.11,9.21,9.21,0,0,1-3.5-.38,34.69,34.69,0,0,0-3.52-1.19c-3.74-.72-7.73,2.1-11.26.66a26.61,26.61,0,0,0-2.8-1.35c-2-.56-4.15.67-6.2.3a7.3,7.3,0,0,1-4-2.84,13.26,13.26,0,0,0-3.58-3.47c-1.47-.79-3.58-.72-4.53.66a13.52,13.52,0,0,0-1.61-3.76A4.55,4.55,0,0,0,241,58.6a3.19,3.19,0,0,1-1.75-.24c-.52-.36-.61-1.08-.74-1.71a7.73,7.73,0,0,0-3.73-5.17,14.39,14.39,0,0,0-4.15-1.57,3.29,3.29,0,0,0-2.85.72,18.25,18.25,0,0,0-1.24,1.78A3.52,3.52,0,0,1,225.91,53Z" style="fill:#f0f0f0"></path><path id="freepik--cloud--inject-99" d="M323.05,82.47l-.3.16c-1.63.75-3.52.12-5.3.14a7.31,7.31,0,0,0-4.71,1.82c-.77.68-1.38,1.52-2.12,2.23a8.93,8.93,0,0,1-7.25,2.36,19.12,19.12,0,0,0-2.49-.35c-2.1,0-3.93,1.36-5.94,2-4.41,1.35-9.21-1.08-13.75-.24-2.54.47-4.82,1.93-7.39,2.26-1.57.21-3.2,0-4.76.34,0,.92,3.37,1.15,4.11,1.19a13,13,0,0,0,5.06-.74,26.23,26.23,0,0,1,3.07-1.12c2.58-.61,5.18.36,7.46,1.51a16,16,0,0,0,3,.82c1.33.38,2.59,1,3.93,1.44a12.62,12.62,0,0,0,7.78.19c1.51-.54,2.86-1.48,4.41-1.88,2.6-.68,5.35.29,7.72,1.55,1.47.78,3,1.71,4.66,1.49,2.3-.29,3.74-2.67,5.86-3.63,2.8-1.27,6.25-.2,8.89.89a30.85,30.85,0,0,0,4.65,1.62,10.07,10.07,0,0,0,4.88,0,27.56,27.56,0,0,1,3.57-1.17c1.46-.21,2.95.26,4.42.06A11.51,11.51,0,0,0,354,95a10.89,10.89,0,0,1,3.79-.59.44.44,0,0,0,.32-.06.33.33,0,0,0,.07-.3.91.91,0,0,0-.61-.65,2.58,2.58,0,0,0-.92-.09q-2.88,0-5.75.3a14.39,14.39,0,0,1-5.07-.69c-1.21-.34-2.34-.84-3.56-1.08a4.84,4.84,0,0,1-2.65-2.07c-1-1.29-2.07-2.94-3.86-3.06a2.37,2.37,0,0,1-1-.15c-.46-.24-.6-.82-.74-1.33a9.53,9.53,0,0,0-4.39-5.16,3.63,3.63,0,0,0-4.37.49A14,14,0,0,1,323.05,82.47Z" style="fill:#f0f0f0"></path></g><g id="freepik--Birds--inject-99"><g id="freepik--birds--inject-99"><path d="M415.81,59.79A20.62,20.62,0,0,0,391.22,56c6-2,18.63-.8,24.59,8.59,6-9.39,18.61-10.63,24.59-8.59A20.61,20.61,0,0,0,415.81,59.79Z" style="fill:#ebebeb"></path><path d="M438.93,74.23a13.82,13.82,0,0,0-16.51-2.53c4-1.37,12.51-.54,16.51,5.77,4-6.31,12.49-7.14,16.5-5.77A13.81,13.81,0,0,0,438.93,74.23Z" style="fill:#ebebeb"></path></g></g><g id="freepik--Waterfall--inject-99"><g id="freepik--waterfall--inject-99"><g id="freepik--rock--inject-99"><polygon points="68.05 212.38 56.08 242.55 50.3 244.96 38.49 294.35 60.19 312.23 93.66 320.52 149.6 316.44 188.16 320.52 217.48 303.14 247.28 301.72 283.92 278.83 262.93 228.62 253.7 223.06 241.57 194.15 227.05 209.87 199.5 218.39 163.38 217.77 149.6 214.33 135.82 220.82 114.97 219.82 94.12 227.18 78.66 224.76 68.05 212.38" style="fill:#37474f"></polygon><polygon points="216.63 277.34 217.48 303.14 247.28 301.72 239.68 273.75 216.63 277.34" style="fill:#263238"></polygon><polygon points="262.93 270.12 216.63 277.34 227.05 268.64 262.93 270.12" style="fill:#455a64"></polygon><polygon points="89.28 196.09 68.05 212.38 78.66 224.76 94.12 227.18 114.97 219.82 135.82 220.82 149.6 214.33 163.38 217.77 199.5 218.39 227.05 209.87 241.57 194.15 216.63 180.45 182.37 174.49 89.28 196.09" style="fill:#455a64"></polygon><polygon points="68.05 212.38 56.08 242.55 50.3 244.96 38.49 294.35 60.19 312.23 78.66 224.76 68.05 212.38" style="fill:#263238"></polygon><polygon points="60.19 312.23 93.66 320.52 94.12 227.18 78.66 224.76 60.19 312.23" style="fill:#263238"></polygon><polygon points="114.97 219.82 122.82 259.89 135.4 265.29 135.82 220.82 114.97 219.82" style="fill:#263238"></polygon><polygon points="149.6 214.33 149.6 316.44 188.16 320.52 163.38 217.77 149.6 214.33" style="fill:#263238"></polygon><polygon points="199.5 218.39 209.79 245.79 224.03 247.8 227.05 209.87 199.5 218.39" style="fill:#263238"></polygon><polygon points="253.7 223.06 255.97 228.8 252.76 234.86 224.03 247.8 255.97 239.15 262.93 228.62 253.7 223.06" style="fill:#455a64"></polygon><polygon points="135.4 265.29 118.57 268.64 99.29 266.96 117.35 264.39 122.82 259.89 135.4 265.29" style="fill:#455a64"></polygon><polygon points="50.3 244.96 69.1 259.89 81.9 261.86 69.73 257.55 56.08 242.55 50.3 244.96" style="fill:#455a64"></polygon><polygon points="216.63 180.45 216.29 174.02 212.82 172.27 211.9 166.06 172.44 180.45 171.52 194.76 196.41 194.76 209.29 190.29 216.63 180.45" style="fill:#37474f"></polygon><polygon points="172.44 180.45 163.35 174.49 161.9 184.91 171.52 194.76 172.44 180.45" style="fill:#263238"></polygon><polygon points="163.35 174.49 163.35 169.63 131.26 184.63 101.39 186.55 101.39 194.76 99.29 196.48 101.39 205.99 130.82 203.99 161.9 184.91 163.35 174.49" style="fill:#37474f"></polygon><polygon points="101.39 186.55 91.21 180.19 89.28 196.09 101.39 205.99 99.29 196.48 101.39 194.76 101.39 186.55" style="fill:#263238"></polygon><polygon points="211.9 166.06 200.47 160.44 168.88 148.33 127.36 153.9 91.21 180.19 101.39 186.55 131.26 184.63 163.35 169.63 163.35 174.49 172.44 180.45 211.9 166.06" style="fill:#455a64"></polygon><polygon points="212.82 172.27 212.82 173.84 207.74 176.71 197.49 178.88 208.9 178.31 216.29 174.02 212.82 172.27" style="fill:#455a64"></polygon><polygon points="197.49 178.88 196.41 194.76 209.29 190.29 208.9 178.31 197.49 178.88" style="fill:#263238"></polygon><polygon points="99.29 196.48 106.01 197.17 116.02 194.15 105.18 194.76 101.39 194.76 96.41 192.23 99.29 196.48" style="fill:#455a64"></polygon><polygon points="200.47 160.44 196.41 164.11 172.44 160.44 157.85 155.22 157.85 135.35 164.61 139.33 194.07 141.51 195.66 147.68 198.33 149 200.47 160.44" style="fill:#37474f"></polygon><polygon points="195.02 152.38 196.41 164.11 189.06 162.98 187.14 150.25 195.02 152.38" style="fill:#263238"></polygon><polygon points="172.44 160.44 164.61 139.33 157.85 135.35 157.85 155.22 172.44 160.44" style="fill:#263238"></polygon><polygon points="165.15 157.83 163.35 145.51 159.31 144.15 157.96 131.61 114.28 143.03 114.28 176.71 143.62 171.22 165.15 157.83" style="fill:#37474f"></polygon><polygon points="114.28 143.03 108.21 141.26 108.21 156.77 105.18 158.16 102.4 172.05 114.28 176.71 118.03 161.59 114.28 143.03" style="fill:#263238"></polygon><polygon points="158.21 133.94 170.59 129.25 194.07 141.51 164.61 139.33 158.4 135.68 158.21 133.94" style="fill:#455a64"></polygon><polygon points="157.96 131.61 150.85 127.1 150.85 121.1 141.32 118.03 108.21 141.26 114.28 143.03 157.96 131.61" style="fill:#455a64"></polygon><polygon points="150.85 121.1 143.78 124.33 141.63 127.71 136.4 130.53 150.85 127.1 150.85 121.1" style="fill:#37474f"></polygon><polygon points="143.62 171.22 145.25 148.33 152.06 165.97 143.62 171.22" style="fill:#263238"></polygon><polygon points="159.31 144.15 156.85 145.93 155.26 149 148.71 151.22 157.96 150.59 163.35 145.51 159.31 144.15" style="fill:#263238"></polygon><polygon points="195.66 147.68 196.09 148.93 193.54 150.25 187.14 150.25 195.02 152.38 198.33 149 195.66 147.68" style="fill:#455a64"></polygon><polygon points="105.18 158.16 108.21 160.44 113.51 159.77 108.21 156.77 105.18 158.16" style="fill:#455a64"></polygon></g><g id="freepik--waterfall--inject-99"><path d="M407.39,365c-47.16-16.64-105.84-25.23-140.74-32.39-45.11-9.26-57.21-15.1-63.8-20.8h0l-4.26-85.13a19.92,19.92,0,0,0-6.53-13.86L168.2,191.24a3.14,3.14,0,0,1-1-2.33v-11.1a4.25,4.25,0,0,1,.54-2.06l7.87-13.84a4,4,0,0,0,.52-2c0-2.41,0-8.51,0-13.6a11.53,11.53,0,0,0-5.11-9.6l-7.32-4.89-5.49,2.07.19,1.74,2.65,2.66a6.88,6.88,0,0,1,2,4.86v15.93l-19.95,18.82a7.66,7.66,0,0,0-2.41,5.58V196a4.17,4.17,0,0,0,1.43,3.15l14.46,12.66a19.9,19.9,0,0,1,6.78,15l-.15,91.1h0c.27,9.35,3.79,16.35,32.78,30.93s90.89,32.9,113,43.47,60.77,33.13,31.61,79.44l.27.06c26.47-6.51,51.26-16,72.86-28.45,17.84-10.31,32.15-21.88,42.95-34.21C456.5,407.44,453,381.1,407.39,365Z" style="fill:#FF5050"></path><path d="M407.39,365c-47.16-16.64-105.84-25.23-140.74-32.39-45.11-9.26-57.21-15.1-63.8-20.8h0l-4.26-85.13a19.92,19.92,0,0,0-6.53-13.86L168.2,191.24a3.14,3.14,0,0,1-1-2.33v-11.1a4.25,4.25,0,0,1,.54-2.06l7.87-13.84a4,4,0,0,0,.52-2c0-2.41,0-8.51,0-13.6a11.53,11.53,0,0,0-5.11-9.6l-7.32-4.89-5.49,2.07.19,1.74,2.65,2.66a6.88,6.88,0,0,1,2,4.86v15.93l-19.95,18.82a7.66,7.66,0,0,0-2.41,5.58V196a4.17,4.17,0,0,0,1.43,3.15l14.46,12.66a19.9,19.9,0,0,1,6.78,15l-.15,91.1h0c.27,9.35,3.79,16.35,32.78,30.93s90.89,32.9,113,43.47,60.77,33.13,31.61,79.44l.27.06c26.47-6.51,51.26-16,72.86-28.45,17.84-10.31,32.15-21.88,42.95-34.21C456.5,407.44,453,381.1,407.39,365Z" style="fill:#fff;opacity:0.7000000000000001"></path><g style="opacity:0.4"><path d="M366.8,456.18c-6.16-5.14-1.91-8.49,3.93-12.11,5.51-3.42,13.31-5.28,13.79-12.36.37-5.43-3.17-7.63-7.3-10.63-11.58-8.38-25-13.15-38.63-17,15.44-5.79-20.2-16-24.64-17.94,3-1.54,7.05-1.8,9.5-4.15-3.91-5.32-18.78-6.24-24.76-7.11-12.83-1.87-25.45-4-38.12-6.94-12.15-2.76-24.51-4.67-36.64-7.66-1.88-.47-3.72-1-5.55-1.68,31.25,12.31,73.24,25.42,90.6,33.73,22.09,10.57,60.77,33.13,31.61,79.44l.27.06a313.17,313.17,0,0,0,32.81-10C372,460.05,369.52,458.45,366.8,456.18Z" style="fill:#fff"></path><path d="M456.67,409.13c-.17-1.69-3.64-28-49.28-44.13-47.16-16.64-105.84-25.23-140.74-32.39-5.51-1.13-10.52-2.21-15.09-3.24a3.63,3.63,0,0,0-2,3.19c.07,6.91,18.1,3.49,22.21,5.52-5.38,6.66,13.95,5.07,17.11,5.6,5.53.93,11,2.09,16.58,2.34,13.47.61,29.78.25,42.11,6.21-1.6,2.56-9.58,3.64-8.11,7,1.84,4.15,23.06,5.32,27.3,6.06,10.5,1.85,21,3.9,31.32,6.46,5.7,1.41,15.1,2.81,18.82,7.72-2.1,1.34-8.08,1-7.67,5,.28,2.74,6.67,4.68,8.95,6.11,7.43,4.64,15.13,10.83,18,19.15,2,5.85,3.25,11,1.79,17.16A146.83,146.83,0,0,0,456.67,409.13Z" style="fill:#fff"></path><path d="M198.42,251.77a2.81,2.81,0,0,0,1.38-.81l-1.21-24.28a19.88,19.88,0,0,0-5.15-12.48c-.72-.48-1.46-.69-1.93,0-.58.81.85,3.68,1.19,4.42,2.16,4.74,4.53,11.45,2.12,16.64-3.76-.23-1.52-7.09-3.68-8.27s-1.7,6.43-4.15,1.77c-1.57-3-.32-7-1.41-10.21-.54-1.59-1.72-4.06-3.3-4.89-4.49-2.34-1.92,6.4-1.7,8.07s1.06,7.2-2.14,6.83c-4.19-.47-2.14-7.74-4.62-9.21-3.32-2-.82,12.49-5.87,8.06-3-2.65-2.41-9.45-4.6-12.9-.94-1.49-2.68-3.73-4.77-2.48a2.12,2.12,0,0,0-.85.91,19.91,19.91,0,0,1,5.65,13.88v1.53c1.59,1.71,2.06,4.52,3.07,6.41,1.33,2.49,4.27,3.93,6,1.16.88-1.38.57-4.39,2.71-3.75s3.67,8.83,5.81,3c.37-1,.71-4.22,2.25-4s1.74,3.84,2,5,.61,5.82,2.83,3.58c1.14-1.13-.09-3.54,2.31-2.86C194.91,238.07,191.77,253.12,198.42,251.77Z" style="fill:#fff"></path><path d="M158.28,183.45c.69-.9,1.16-4,2.66-2.79.88.74.63,2.24,1,3.16a3.62,3.62,0,0,0,2.68,2,2.88,2.88,0,0,0,2.53-1v-7a4.25,4.25,0,0,1,.54-2.06l2.31-4.06c-1.43-.61-4.2,4-4.72,4.83s-1.86,2.76-2.93,1.17c-.4-.6.14-2-.75-2.24-1.19-.31-1.34,2-2.33,2.13-1.28.14-.51-1.18-.78-1.87-.61-1.6-2.32.35-3.33.95-1.42.84-4.37,1.61-3.56-.92a17.69,17.69,0,0,1,2.91-5c.34-.42,1.61-1.68.92-2.37-.48-.47-1.76,0-2.68.43l-9.65,9.11a7.66,7.66,0,0,0-2.41,5.58v5.89c1.14-2.79,1.78-5.83,3.68-8.25.65-.82,1.64-1.79,2.78-1.06.91.59.5,1.58.56,2.57.07,1.31.27,3.09,1.9,2.94,1.23-.12,1.61-1.33,2.11-2.24s1.61-3.56,3.07-2.53C155.81,181.55,156.42,185.87,158.28,183.45Z" style="fill:#fff"></path><path d="M163.16,138.48c-.87-.7-2.31-2.11-3.45-1.57a.22.22,0,0,0,0,.08l1.34,1.34a6.88,6.88,0,0,1,2,4.86v5.67a2.83,2.83,0,0,0,.69-1.16,6.78,6.78,0,0,0,.49-2.71c0-.6-.65-3.46.6-2.44.55.45.66,1.75,1.38,2s.45-.75.33-1.19-.41-1.38.05-1.57c.65-.25,1.45.84,1.76,1.19.47.53,1.77,2.5,2.66,1.83.48-.36.11-1.13.14-1.59s.49-.3.79-.09a3.09,3.09,0,0,1,.88,1c.46.82.72,1.73,1.14,2.57a8.44,8.44,0,0,0,1.64,2.59,6.34,6.34,0,0,0,.51.45v-3.42a11.5,11.5,0,0,0-5-9.51H171c-.84.07.37,1.32.61,1.58s1.49,1.15.9,1.51c-.43.26-1.21-.15-1.55-.41-.54-.43-1.07-.88-1.64-1.29-.3-.22-1.59-1.48-2-1.07-.23.23.39.84.51,1,.34.46.74.91,1.06,1.38s0,.77-.55.55a5.72,5.72,0,0,1-1.24-.83c-.5-.38-1-.76-1.48-1.16-.24-.19-1.2-.91-1.28-.21,0,.32.33.57.25.9C164.46,139.44,163.45,138.7,163.16,138.48Z" style="fill:#fff"></path><path d="M395.26,421.36c-1.95-2.08-4.21-3.69-6.32-5.58-1-.9-2.23-2.17-2-3.64.28-1.67,2.42-2.57,3.73-3.25A41,41,0,0,1,395,407c1.33-.49,2.93-.75,4-1.73,2.75-2.5-.89-5.83-3-7.26a39.61,39.61,0,0,0-8.75-4.14q-4.83-1.83-9.77-3.35c-13.59-4.19-27.64-6.66-41.65-9-8.53-1.42-17.07-2.53-25.64-3.59-4-.5-8-.88-12-1.37a124.55,124.55,0,0,0-12.78-1.28c-.18,0-.24.36-.07.4,3.45.83,7,1.32,10.47,1.87,3.75.6,7.46,1.31,11.19,2,7.14,1.27,14.26,2.62,21.41,3.86,13.26,2.29,26.56,4.42,39.61,7.77a163.44,163.44,0,0,1,18.95,6,36.25,36.25,0,0,1,7.87,3.76c.81.58,3.34,2.3,1.67,3.11-1.49.71-3.15,1.11-4.66,1.79-2.27,1-5.54,2.26-6.85,4.52s0,4.53,1.63,6.16c1.88,1.89,4.16,3.32,6.05,5.2a31.6,31.6,0,0,1,5.08,6.55c2.93,5.08,4.15,11.14,2.35,16.81s-6.45,10.77-12.47,11.8c-.67.11-.16,1.24.42,1.19,10.41-.89,16.5-12,14.95-21.66A29.06,29.06,0,0,0,395.26,421.36Zm24.66,4.69c-1.28-3.59-4.16-5.11-8.64-8.64-1.56-1.23-3.18-2.84-3.62-4.83s1.07-3.64,2.43-4.84c2.53-2.24,5.68-4.64,4.52-8.48-1-3.43-4.6-5.62-7.42-7.46a79,79,0,0,0-21-9.64,97.57,97.57,0,0,0-26.47-4.31c-.24,0-.2.52.05.54,13.72,1.17,29.94,5.52,42.81,13.15,2.94,1.75,6.41,3.65,8.54,6.38,1.24,1.58,1.73,3.54.56,5.32a20.48,20.48,0,0,1-3.36,3.35c-2.42,2.31-3.48,5-1.54,8,2.16,3.37,6.29,5.74,9.41,9.13,5.52,6,1.77,16.13-6.33,24.16-.3.3,2.5-.54,2.87-.87C418.31,442.08,422.37,432.91,419.92,426.05Zm-76.36-60.42c17-.87,34.29-.52,50.69,4.38,2,.6,4,1.28,6,2,.53.19.43-.77,0-.94-15.37-6.45-32.34-7.65-48.83-7.53-17.32.12-34.56,2.27-51.89,2.26a146.94,146.94,0,0,1-26.16-2.08c-.95-.18-5.18-.63-4.51-2.33s3.7-1.58,5.06-1.67c3-.22,6.75-.8,8.33-3.81s-.43-5.69-3-7.08c-3.2-1.72-7.2-2.17-10.72-2.83-8.59-1.63-17.29-2.57-26-3.43S225,341,216.32,339.91c-8-.94-16.64-2.11-23.77-6a25.71,25.71,0,0,1-5.33-3.94c-.18-.17-.28.23-.17.36,4.55,5.73,12,8.18,18.85,9.74a237,237,0,0,0,26.37,4.15c8.89,1,17.8,1.72,26.66,3,4.33.62,8.64,1.36,12.92,2.29,2.22.48,7.71,1.15,8,4.24.28,3.44-5.6,3.2-7.66,3.48a8.89,8.89,0,0,0-4.63,1.78c-1.18,1-1.92,2.71-.95,4.11a5.76,5.76,0,0,0,3.82,1.95c2.32.45,4.67.81,7,1.15q6.44.91,12.93,1.22C308.08,368.34,325.84,366.53,343.56,365.63ZM168.93,234.49l-.24-9a42.45,42.45,0,0,0-.68-8c-1.19-5.24-5.6-8.52-10-11,0,0-.05.05,0,.07,4,3,8.42,5.94,9.3,11.29a59.34,59.34,0,0,1,.32,8.33l.15,8.52c.18,11.39.27,22.78.59,34.17.19,6.82.29,13.65.52,20.47,0,.13.14,0,.14-.05.42-12.27.5-24.58.33-36.86Q169.16,243.47,168.93,234.49Zm3-25.6c-.06,0-.11.12-.05.16,7.66,5.69,6.58,12.85,6.68,19.52.13,8.26.14,16.54.69,24.78,0,.11.12,0,.12,0,.35-9.06.06-18.16-.07-27.22C179.22,220.1,179.54,214.33,171.93,208.89Zm19.23,18.17c0,5.56.2,11.13.33,16.7.27,11.18.5,22.38.82,33.56.19,6.73.37,13.46.88,20.17,0,.18.18,0,.19-.08.33-11.86-.12-23.74-.39-35.6-.27-11.57-.39-23.14-.87-34.7-.12-2.82-.38-5.5-1.83-8a23.43,23.43,0,0,0-5.19-5.78c-.06-.06-.12.12-.08.17a31.52,31.52,0,0,1,4.76,6C191.07,221.89,191.15,224.41,191.16,227.06Zm-25.44-62.2c.06-.06,0-.21-.07-.12-1.73,1.95-3.46,3.91-5.2,5.85-1.46,1.64-3.29,3.21-4.36,5.14s-1,4-1.09,6c-.16,2.59-.35,5.24-.26,7.83,0,.26.25.17.28,0a66.24,66.24,0,0,0,.62-7c.15-2.36,0-4.81,1.31-6.86a57.8,57.8,0,0,1,4-5.07Zm-1.18,8.44s0-.18,0-.12a11.29,11.29,0,0,0-1.84,1.75,4.09,4.09,0,0,0-.56,2.43c0,1-.09,2-.11,3a14.83,14.83,0,0,0,0,3c0,.12.12.06.15,0a13.16,13.16,0,0,0,.22-2.51c0-.95.08-1.91.12-2.86a5.3,5.3,0,0,1,.42-2.77A24.68,24.68,0,0,1,164.54,173.3Z" style="fill:#fff"></path></g><path d="M175.83,162.88a1.25,1.25,0,0,0,.51-1.7c.64.51,1.84-.33,1.77-1.29s-1.12-1.74-1.87-1.15c.15-1.13-1.86-2.43-3.39-1.62a2.1,2.1,0,0,0-1.13,1.66,1.1,1.1,0,0,0-1.66-.69c-.38.18-.5.52-.71.81a1.71,1.71,0,0,0-2-1.19,2.08,2.08,0,0,0-1.2,1c.24-1,.34-2.91-1.52-2.93-1.06,0-1.52.72-1.59,1.69-.55-.77-1.73.13-1.45.93,0-.13-.75.32-.81.37a1.35,1.35,0,0,0-.42.74c-.13.73.63,1.12,1.27,1,.09,0,.22-.1.3-.05s.16.28.23.36a.83.83,0,0,0,.44.26,1.81,1.81,0,0,0,1.5-.3c.12.4.46.48.87.5a2.13,2.13,0,0,0,1.31-.56,1.63,1.63,0,0,0,1.33,1,1.8,1.8,0,0,0,1.85-.68.72.72,0,0,0,.69.46,1.22,1.22,0,0,0,1-.36c0,.41.5.69.85.78a1.55,1.55,0,0,0,1.16-.18,1.53,1.53,0,0,0,.84,1.17A2.56,2.56,0,0,0,175.83,162.88Z" style="fill:#fff"></path><path d="M164,159.72c0,.6-1,.87-1.46.61a1,1,0,0,1-.43-.54,1.35,1.35,0,0,1,0-.4,1.71,1.71,0,0,1-1.77.05.08.08,0,0,0,0,.05c-.13.73.63,1.12,1.27,1,.09,0,.22-.1.3-.05s.16.28.23.36a.83.83,0,0,0,.44.26,1.81,1.81,0,0,0,1.5-.3c.12.4.46.48.87.5a2.13,2.13,0,0,0,1.31-.56v0a1.18,1.18,0,0,1,.11-.37C165.76,161.1,164,160.68,164,159.72Zm11.76,2.8a1.88,1.88,0,0,1-1.16-.21,2.26,2.26,0,0,1-.94-1.37,1.46,1.46,0,0,1-.6.46,1.66,1.66,0,0,1-1.1.07.92.92,0,0,1-.68-.85.77.77,0,0,1-.77.54,1,1,0,0,1-1-.92c0,.32-.56.51-.83.42a.57.57,0,0,1-.26-.2.9.9,0,0,1-.38,1.09,1.41,1.41,0,0,1-1,0,1.65,1.65,0,0,0,.53.15,1.8,1.8,0,0,0,1.85-.68.72.72,0,0,0,.69.46,1.22,1.22,0,0,0,1-.36c0,.41.5.69.85.78a1.55,1.55,0,0,0,1.16-.18,1.53,1.53,0,0,0,.84,1.17,2.56,2.56,0,0,0,1.81,0,1.32,1.32,0,0,0,.49-.48A2,2,0,0,1,175.8,162.52Z" style="fill:#FF5050;opacity:0.1"></path><path d="M139.31,198a2.62,2.62,0,0,1,0-2.45c.45-.65,1.57-1.11,2.14-.53a3.17,3.17,0,0,1,.33-1.89c.53-1,1.07-1.62,2.21-1.5,1.62.17,1.82,1.46,1.91,2.77a1.23,1.23,0,0,1,1.62-.34,1.3,1.3,0,0,1,.68,1c.1-1.2,1.22-2.25,2.13-1.05a3,3,0,0,1-.52-1.16,1.64,1.64,0,0,1,1.79-1.66,2.09,2.09,0,0,1,1.9,1,2.53,2.53,0,0,1,.31,1.09c.09-1.4,2.12-1.11,2.55-.06-.05-1.22.71-3,2.42-2.88a2,2,0,0,1,1.66,1.57,2.16,2.16,0,0,1,.5-1.11,2.08,2.08,0,0,1,2.22-.36,1.82,1.82,0,0,1,1.33,1.57,3.93,3.93,0,0,1,.93-2.32,2.58,2.58,0,0,1,2.84-1.19,2.16,2.16,0,0,1,1.27,2.64c1.55-1.28,3.48,2.14,1.1,2.52.51,1.14-.18,2.1-1.31,2.55a3,3,0,0,1-2.58-.33,4,4,0,0,1-.88-.61,2.87,2.87,0,0,1-2.65,2,3,3,0,0,1-3.15-2,1.56,1.56,0,0,1-.53,1.35,1,1,0,0,1-1.55-.4,1.63,1.63,0,0,1-1.51,1.95A2.24,2.24,0,0,1,154,197c0,.63-.27,1.57-.92,1.82a1.38,1.38,0,0,1-1.74-1,1.91,1.91,0,0,1-1.77,2c-1.24.07-2-1-2.56-2a1.57,1.57,0,0,1-1.14,1.63,1,1,0,0,1-1.31-1,2.59,2.59,0,0,1-2.37,1A3.21,3.21,0,0,1,139.31,198Z" style="fill:#fff"></path><g style="opacity:0.1"><path d="M171.72,192.48a.9.9,0,0,1-.54.37c-.47.11-.9-.33-1.27-.51a3.08,3.08,0,0,1-.08,1.38,2.12,2.12,0,0,1-1.58,1.59,2.56,2.56,0,0,1-2.14-1.08c-.1-.14-.37-.46-.37-.46a5.83,5.83,0,0,1-.17.74,2.76,2.76,0,0,1-.8,1.19,4.37,4.37,0,0,1-1.76,1,4.84,4.84,0,0,1-1.4.24l-.28,0a3.1,3.1,0,0,0,4.51-1.61,4,4,0,0,0,.88.61,3,3,0,0,0,2.58.33c1.13-.45,1.82-1.41,1.31-2.55A1.13,1.13,0,0,0,171.72,192.48Z" style="fill:#FF5050"></path><path d="M159.8,196.39a1.19,1.19,0,0,1-.77,0,3.88,3.88,0,0,1-1.38-1.29,3.34,3.34,0,0,1-.35,1.76,2.47,2.47,0,0,1-1.74,1.16l-.36.07a3.17,3.17,0,0,0,1.25.16A1.62,1.62,0,0,0,158,196.3a1,1,0,0,0,1.55.4A1,1,0,0,0,159.8,196.39Z" style="fill:#FF5050"></path><path d="M153.9,196.79A1.71,1.71,0,0,1,153,198a1.35,1.35,0,0,1-1.35-.23,2.79,2.79,0,0,1-.53-.68,2.07,2.07,0,0,1-1.06,1.56,3.89,3.89,0,0,1-2.18.43,2.14,2.14,0,0,0,1.68.73,1.91,1.91,0,0,0,1.77-2,1.38,1.38,0,0,0,1.74,1c.65-.25.9-1.17.92-1.8A.78.78,0,0,0,153.9,196.79Z" style="fill:#FF5050"></path><path d="M146.76,198.72a1.07,1.07,0,0,1-.85-.13,1.42,1.42,0,0,1-.48-1.23c-.6.29-1.54.31-1.85-.42a2.39,2.39,0,0,1-3,.44,2.63,2.63,0,0,1-1.19-1.49,1.25,1.25,0,0,1,0-.42s0,0-.06.07a2.62,2.62,0,0,0,0,2.45,3.21,3.21,0,0,0,2.83,1.55,2.59,2.59,0,0,0,2.37-1,1,1,0,0,0,1.31,1A1.35,1.35,0,0,0,146.76,198.72Z" style="fill:#FF5050"></path></g><path d="M214,312.15a4.53,4.53,0,0,0-1.29-4c-1.08-.81-3.15-.95-3.76.31a5.49,5.49,0,0,0-1.56-2.89c-1.38-1.25-2.62-2-4.4-1.23-2.53,1.15-2.15,3.36-1.59,5.53a2.11,2.11,0,0,0-2.81.32,2.25,2.25,0,0,0-.55,2c-.82-1.9-3.21-3-4-.55a5.26,5.26,0,0,0,.22-2.17,2.81,2.81,0,0,0-3.81-1.71,3.51,3.51,0,0,0-2.5,2.71,4,4,0,0,0,.08,1.93c-.91-2.21-4-.64-4.17,1.29-.57-2-2.78-4.48-5.48-3.35-1.41.6-1.82,2-1.84,3.44a3.7,3.7,0,0,0-1.42-1.52,3.57,3.57,0,0,0-3.79.61,3.13,3.13,0,0,0-1.3,3.27,6.67,6.67,0,0,0-2.78-3.25,4.4,4.4,0,0,0-5.24-.4c-1.47,1-1.75,3.88-.63,5-3.2-1.22-4.47,5.36-.41,4.69-.2,2.11,1.44,3.3,3.5,3.41a5.15,5.15,0,0,0,4-1.93,6.34,6.34,0,0,0,1.1-1.47,4.93,4.93,0,0,0,5.41,1.88,5.19,5.19,0,0,0,4-4.95,2.71,2.71,0,0,0,1.59,1.9,1.79,1.79,0,0,0,2.31-1.49,2.75,2.75,0,0,0,3.5,2.33c2.14-.55,3.17-1.68,3.34-3.45.37,1,1.29,2.4,2.49,2.44a2.33,2.33,0,0,0,2.28-2.5,3.3,3.3,0,0,0,4,2.34c2-.57,2.76-2.69,3.06-4.61a2.66,2.66,0,0,0,2.73,2,1.74,1.74,0,0,0,1.6-2.26c1,1,2.73.92,4.41.37A5.5,5.5,0,0,0,214,312.15Z" style="fill:#fff"></path><g style="opacity:0.1"><path d="M158.46,320.82a1.62,1.62,0,0,0,1.07.3c.81-.08,1.27-1,1.78-1.52a5.3,5.3,0,0,0,.87,2.2c.74,1,2.08,2,3.43,1.72a4.35,4.35,0,0,0,2.88-2.91c.09-.29.35-.95.35-.95a9.62,9.62,0,0,0,.68,1.1,4.74,4.74,0,0,0,1.93,1.5,7.41,7.41,0,0,0,3.42.68,8.4,8.4,0,0,0,2.39-.37,2.76,2.76,0,0,0,.43-.2,4.82,4.82,0,0,1-2.77,1.71,5,5,0,0,1-5.42-1.88,6,6,0,0,1-1.09,1.47,5.15,5.15,0,0,1-4,1.93c-2.06-.11-3.7-1.3-3.5-3.41A1.92,1.92,0,0,1,158.46,320.82Z" style="fill:#FF5050"></path><path d="M179.9,320.69a2,2,0,0,0,1.24-.43,6.47,6.47,0,0,0,1.53-2.83,5.87,5.87,0,0,0,1.52,2.66,4.21,4.21,0,0,0,3.46.93l.63-.08a5.21,5.21,0,0,1-1.95.93,2.75,2.75,0,0,1-3.5-2.33,1.79,1.79,0,0,1-2.31,1.49A2.06,2.06,0,0,1,179.9,320.69Z" style="fill:#FF5050"></path><path d="M189.67,318.13a2.91,2.91,0,0,0,2.2,1.49,2.26,2.26,0,0,0,2.06-1.1,5.41,5.41,0,0,0,.5-1.39,3.47,3.47,0,0,0,2.56,2,6.55,6.55,0,0,0,3.77-.5,3.71,3.71,0,0,1-2.33,2.11,3.3,3.3,0,0,1-4-2.34,2.33,2.33,0,0,1-2.28,2.5c-1.19,0-2.1-1.41-2.48-2.41A1.79,1.79,0,0,1,189.67,318.13Z" style="fill:#FF5050"></path><path d="M202.28,317.38a1.86,1.86,0,0,0,1.32-.66,2.47,2.47,0,0,0,.11-2.26c1.13.14,2.66-.33,2.77-1.68,1.42,1.05,4,.48,5.1-.93a4.57,4.57,0,0,0,1.13-3.05,2.55,2.55,0,0,0-.17-.71l.14.08a4.53,4.53,0,0,1,1.29,4,5.5,5.5,0,0,1-3.74,4.06c-1.68.55-3.39.59-4.41-.37a1.74,1.74,0,0,1-1.6,2.26A2.3,2.3,0,0,1,202.28,317.38Z" style="fill:#FF5050"></path></g></g></g></g><g id="freepik--Trees--inject-99"><g id="freepik--Pine--inject-99"><path d="M343.38,228.14v20.21a1,1,0,0,1-.56.78,3,3,0,0,1-2.7,0,1,1,0,0,1-.56-.78V228.14Z" style="fill:#263238"></path><path d="M325.18,236l15.23-36.77h2.12L357.76,236a2,2,0,0,1-1.42,2.66l-.25.05a1.93,1.93,0,0,0-1.55,2.15h0A2,2,0,0,1,352,243l-.76-.23a1.94,1.94,0,0,0-2.34,1l-.76,1.67a1.94,1.94,0,0,1-2.76.87l-3-1.75a2,2,0,0,0-2,0l-3,1.75a1.94,1.94,0,0,1-2.76-.87l-.76-1.67a1.94,1.94,0,0,0-2.34-1l-.76.23a2,2,0,0,1-2.5-2.1h0a1.94,1.94,0,0,0-1.55-2.15l-.25-.05A2,2,0,0,1,325.18,236Z" style="fill:#FF5050"></path><path d="M325.18,236l15.23-36.77h2.12L357.76,236a2,2,0,0,1-1.42,2.66l-.25.05a1.93,1.93,0,0,0-1.55,2.15h0A2,2,0,0,1,352,243l-.76-.23a1.94,1.94,0,0,0-2.34,1l-.76,1.67a1.94,1.94,0,0,1-2.76.87l-3-1.75a2,2,0,0,0-2,0l-3,1.75a1.94,1.94,0,0,1-2.76-.87l-.76-1.67a1.94,1.94,0,0,0-2.34-1l-.76.23a2,2,0,0,1-2.5-2.1h0a1.94,1.94,0,0,0-1.55-2.15l-.25-.05A2,2,0,0,1,325.18,236Z" style="fill:#fff;opacity:0.1"></path><path d="M347.59,211.48,342.53,200h-2.12l-8.36,19.46-3.67,8.87a1.18,1.18,0,0,0,1,1.32h0a1.48,1.48,0,0,1,1.23,1.63l0,.28a1.47,1.47,0,0,0,2,1.54l.75-.28a1.47,1.47,0,0,1,1.87.77l.93,2.1a1.47,1.47,0,0,0,2.1.66l2.53-1.68a1.44,1.44,0,0,1,1.5,0l2.82,1.68a1.47,1.47,0,0,0,2.1-.66l.93-2.1a1.47,1.47,0,0,1,1.87-.77l.75.28a1.47,1.47,0,0,0,2-1.54l0-.28a1.48,1.48,0,0,1,1.22-1.63,1.11,1.11,0,0,0,.92-.77Z" style="opacity:0.1"></path><path d="M328.58,225.35l11.83-27.55h2.12l12.13,27.55c.43.89.18,1.94-.79,2.1a1.47,1.47,0,0,0-1.22,1.62l0,.29a1.47,1.47,0,0,1-2,1.54l-.75-.29a1.49,1.49,0,0,0-1.87.78l-.93,2.1a1.48,1.48,0,0,1-2.1.66l-2.82-1.68a1.44,1.44,0,0,0-1.5,0l-2.53,1.68a1.48,1.48,0,0,1-2.1-.66l-.93-2.1a1.49,1.49,0,0,0-1.87-.78l-.75.29a1.48,1.48,0,0,1-2-1.54l0-.29a1.47,1.47,0,0,0-1.23-1.62h0C328.39,227.29,328.14,226.23,328.58,225.35Z" style="fill:#FF5050"></path><path d="M328.58,225.35l11.83-27.55h2.12l12.13,27.55c.43.89.18,1.94-.79,2.1a1.47,1.47,0,0,0-1.22,1.62l0,.29a1.47,1.47,0,0,1-2,1.54l-.75-.29a1.49,1.49,0,0,0-1.87.78l-.93,2.1a1.48,1.48,0,0,1-2.1.66l-2.82-1.68a1.44,1.44,0,0,0-1.5,0l-2.53,1.68a1.48,1.48,0,0,1-2.1-.66l-.93-2.1a1.49,1.49,0,0,0-1.87-.78l-.75.29a1.48,1.48,0,0,1-2-1.54l0-.29a1.47,1.47,0,0,0-1.23-1.62h0C328.39,227.29,328.14,226.23,328.58,225.35Z" style="fill:#fff;opacity:0.2"></path><path d="M351.31,217.75l-8.78-19.95h-2.12l-8.64,20.11a1.88,1.88,0,0,0,.23.16l.07,0a1.32,1.32,0,0,1,.67,1.27h0a1.32,1.32,0,0,0,1.66,1.39l.52-.13a1.31,1.31,0,0,1,1.5.65l.71,1.32a1.33,1.33,0,0,0,1.78.55l1.95-1a1.32,1.32,0,0,1,1.22,0l1.95,1a1.33,1.33,0,0,0,1.78-.55l.71-1.32a1.31,1.31,0,0,1,1.5-.65l.52.13a1.32,1.32,0,0,0,1.66-1.39,1.32,1.32,0,0,1,.67-1.27l.07,0A1.14,1.14,0,0,0,351.31,217.75Z" style="opacity:0.1"></path><path d="M331.52,214.51l8.9-18.69.07-.12a1.13,1.13,0,0,1,2,0l.07.12,8.9,18.69a1.35,1.35,0,0,1-.48,1.86l-.07,0a1.33,1.33,0,0,0-.67,1.27,1.33,1.33,0,0,1-1.66,1.4l-.52-.14a1.32,1.32,0,0,0-1.5.66l-.71,1.31a1.32,1.32,0,0,1-1.78.55l-1.95-1a1.32,1.32,0,0,0-1.22,0l-1.95,1a1.32,1.32,0,0,1-1.78-.55l-.71-1.31a1.32,1.32,0,0,0-1.5-.66l-.52.14a1.34,1.34,0,0,1-1.66-1.4h0a1.33,1.33,0,0,0-.67-1.27l-.07,0A1.35,1.35,0,0,1,331.52,214.51Z" style="fill:#FF5050"></path><path d="M331.52,214.51l8.9-18.69.07-.12a1.13,1.13,0,0,1,2,0l.07.12,8.9,18.69a1.35,1.35,0,0,1-.48,1.86l-.07,0a1.33,1.33,0,0,0-.67,1.27,1.33,1.33,0,0,1-1.66,1.4l-.52-.14a1.32,1.32,0,0,0-1.5.66l-.71,1.31a1.32,1.32,0,0,1-1.78.55l-1.95-1a1.32,1.32,0,0,0-1.22,0l-1.95,1a1.32,1.32,0,0,1-1.78-.55l-.71-1.31a1.32,1.32,0,0,0-1.5-.66l-.52.14a1.34,1.34,0,0,1-1.66-1.4h0a1.33,1.33,0,0,0-.67-1.27l-.07,0A1.35,1.35,0,0,1,331.52,214.51Z" style="fill:#fff;opacity:0.30000000000000004"></path></g><g id="freepik--pine--inject-99"><path d="M462.65,240.17v61.66a2.13,2.13,0,0,1-1.26,1.75,6.74,6.74,0,0,1-6.06,0,2.14,2.14,0,0,1-1.25-1.75V240.17Z" style="fill:#37474f"></path><path d="M421.76,263.65,456,180h4.77L495,263.65a4.39,4.39,0,0,1-3.19,6l-.56.11a4.37,4.37,0,0,0-3.49,4.83h0a4.37,4.37,0,0,1-5.62,4.72l-1.69-.52a4.37,4.37,0,0,0-5.27,2.37l-1.7,3.76a4.38,4.38,0,0,1-6.22,1.95l-6.64-3.94a4.4,4.4,0,0,0-4.46,0l-6.64,3.94a4.37,4.37,0,0,1-6.21-1.95l-1.7-3.76a4.38,4.38,0,0,0-5.27-2.37l-1.69.52a4.38,4.38,0,0,1-5.63-4.72h0a4.37,4.37,0,0,0-3.48-4.83l-.57-.11A4.37,4.37,0,0,1,421.76,263.65Z" style="fill:#FF5050"></path><path d="M421.76,263.65,456,180h4.77L495,263.65a4.39,4.39,0,0,1-3.19,6l-.56.11a4.37,4.37,0,0,0-3.49,4.83h0a4.37,4.37,0,0,1-5.62,4.72l-1.69-.52a4.37,4.37,0,0,0-5.27,2.37l-1.7,3.76a4.38,4.38,0,0,1-6.22,1.95l-6.64-3.94a4.4,4.4,0,0,0-4.46,0l-6.64,3.94a4.37,4.37,0,0,1-6.21-1.95l-1.7-3.76a4.38,4.38,0,0,0-5.27-2.37l-1.69.52a4.38,4.38,0,0,1-5.63-4.72h0a4.37,4.37,0,0,0-3.48-4.83l-.57-.11A4.37,4.37,0,0,1,421.76,263.65Z" style="fill:#fff;opacity:0.1"></path><path d="M472.11,207.47l-11.36-25.81H456L437.19,225.4l-8.25,20.9a2.67,2.67,0,0,0,2.22,3h0a3.32,3.32,0,0,1,2.75,3.65l-.08.63a3.3,3.3,0,0,0,4.46,3.47l1.7-.64a3.29,3.29,0,0,1,4.19,1.74l2.1,4.71a3.32,3.32,0,0,0,4.72,1.5l5.67-3.78a3.28,3.28,0,0,1,3.39,0l6.33,3.78a3.31,3.31,0,0,0,4.71-1.5l2.1-4.71a3.31,3.31,0,0,1,4.2-1.74l1.69.64a3.3,3.3,0,0,0,4.46-3.47l-.07-.63a3.3,3.3,0,0,1,2.75-3.65,2.49,2.49,0,0,0,2.06-1.73Z" style="opacity:0.1"></path><path d="M429.39,239.62,456,176.73h4.77L488,239.62c1,2,.42,4.36-1.77,4.72a3.3,3.3,0,0,0-2.75,3.65l.07.63a3.3,3.3,0,0,1-4.46,3.47l-1.69-.64a3.32,3.32,0,0,0-4.2,1.74l-2.1,4.71a3.31,3.31,0,0,1-4.71,1.5l-6.33-3.78a3.32,3.32,0,0,0-3.39,0L451,259.4a3.32,3.32,0,0,1-4.72-1.5l-2.1-4.71a3.3,3.3,0,0,0-4.19-1.74l-1.7.64a3.3,3.3,0,0,1-4.46-3.47l.08-.63a3.32,3.32,0,0,0-2.75-3.65h0C429,244,428.4,241.61,429.39,239.62Z" style="fill:#FF5050"></path><path d="M429.39,239.62,456,176.73h4.77L488,239.62c1,2,.42,4.36-1.77,4.72a3.3,3.3,0,0,0-2.75,3.65l.07.63a3.3,3.3,0,0,1-4.46,3.47l-1.69-.64a3.32,3.32,0,0,0-4.2,1.74l-2.1,4.71a3.31,3.31,0,0,1-4.71,1.5l-6.33-3.78a3.32,3.32,0,0,0-3.39,0L451,259.4a3.32,3.32,0,0,1-4.72-1.5l-2.1-4.71a3.3,3.3,0,0,0-4.19-1.74l-1.7.64a3.3,3.3,0,0,1-4.46-3.47l.08-.63a3.32,3.32,0,0,0-2.75-3.65h0C429,244,428.4,241.61,429.39,239.62Z" style="fill:#fff;opacity:0.2"></path><path d="M480.48,221.57l-19.73-44.84H456l-19.41,45.19a2.73,2.73,0,0,0,.52.37l.15.09a3,3,0,0,1,1.51,2.85h0a3,3,0,0,0,3.73,3.13l1.15-.3a3,3,0,0,1,3.39,1.47l1.58,3a3,3,0,0,0,4,1.23l4.37-2.28a2.93,2.93,0,0,1,2.76,0l4.38,2.28a3,3,0,0,0,4-1.23l1.59-3a3,3,0,0,1,3.38-1.47l1.16.3a3,3,0,0,0,3.73-3.13,3,3,0,0,1,1.51-2.85l.15-.09A3.08,3.08,0,0,0,480.48,221.57Z" style="opacity:0.1"></path><path d="M436,214.3l20-42,.15-.25a2.55,2.55,0,0,1,4.42,0l.16.26,20,42a3,3,0,0,1-1.07,4.16l-.15.08a3,3,0,0,0-1.51,2.85,3,3,0,0,1-3.73,3.14l-1.16-.31a3,3,0,0,0-3.38,1.48l-1.59,3a3,3,0,0,1-4,1.24l-4.38-2.29a3,3,0,0,0-2.76,0l-4.37,2.29a3,3,0,0,1-4-1.24l-1.58-3a3,3,0,0,0-3.39-1.48l-1.15.31a3,3,0,0,1-3.73-3.14h0a3,3,0,0,0-1.51-2.85l-.15-.08A3,3,0,0,1,436,214.3Z" style="fill:#FF5050"></path><path d="M436,214.3l20-42,.15-.25a2.55,2.55,0,0,1,4.42,0l.16.26,20,42a3,3,0,0,1-1.07,4.16l-.15.08a3,3,0,0,0-1.51,2.85,3,3,0,0,1-3.73,3.14l-1.16-.31a3,3,0,0,0-3.38,1.48l-1.59,3a3,3,0,0,1-4,1.24l-4.38-2.29a3,3,0,0,0-2.76,0l-4.37,2.29a3,3,0,0,1-4-1.24l-1.58-3a3,3,0,0,0-3.39-1.48l-1.15.31a3,3,0,0,1-3.73-3.14h0a3,3,0,0,0-1.51-2.85l-.15-.08A3,3,0,0,1,436,214.3Z" style="fill:#fff;opacity:0.30000000000000004"></path></g><g id="freepik--pine--inject-99"><path d="M270.64,183.22v37.06a1.37,1.37,0,0,1-.8,1.12,4.26,4.26,0,0,1-3.87,0,1.37,1.37,0,0,1-.8-1.12V183.22Z" style="fill:#37474f"></path><path d="M244.55,194.55l21.84-52.72h3l21.83,52.73a2.79,2.79,0,0,1-2,3.8l-.35.07a2.79,2.79,0,0,0-2.23,3.08h0a2.8,2.8,0,0,1-3.59,3l-1.08-.34a2.79,2.79,0,0,0-3.36,1.52l-1.08,2.39a2.8,2.8,0,0,1-4,1.25l-4.23-2.51a2.8,2.8,0,0,0-2.85,0l-4.23,2.51a2.8,2.8,0,0,1-4-1.25l-1.08-2.39a2.79,2.79,0,0,0-3.36-1.52l-1.08.34a2.8,2.8,0,0,1-3.59-3h0a2.79,2.79,0,0,0-2.22-3.08l-.36-.07A2.8,2.8,0,0,1,244.55,194.55Z" style="fill:#FF5050"></path><path d="M244.55,194.55l21.84-52.72h3l21.83,52.73a2.79,2.79,0,0,1-2,3.8l-.35.07a2.79,2.79,0,0,0-2.23,3.08h0a2.8,2.8,0,0,1-3.59,3l-1.08-.34a2.79,2.79,0,0,0-3.36,1.52l-1.08,2.39a2.8,2.8,0,0,1-4,1.25l-4.23-2.51a2.8,2.8,0,0,0-2.85,0l-4.23,2.51a2.8,2.8,0,0,1-4-1.25l-1.08-2.39a2.79,2.79,0,0,0-3.36-1.52l-1.08.34a2.8,2.8,0,0,1-3.59-3h0a2.79,2.79,0,0,0-2.22-3.08l-.36-.07A2.8,2.8,0,0,1,244.55,194.55Z" style="fill:#fff;opacity:0.1"></path><path d="M276.67,159.34l-7.24-16.47h-3l-12,27.9-5.26,12.72a1.69,1.69,0,0,0,1.41,1.89h0a2.1,2.1,0,0,1,1.75,2.33l0,.4a2.11,2.11,0,0,0,2.84,2.22l1.08-.41a2.11,2.11,0,0,1,2.68,1.11l1.34,3a2.11,2.11,0,0,0,3,1l3.62-2.41a2.09,2.09,0,0,1,2.16,0l4,2.41a2.11,2.11,0,0,0,3-1l1.34-3a2.11,2.11,0,0,1,2.68-1.11l1.08.41a2.12,2.12,0,0,0,2.85-2.22l-.05-.4a2.12,2.12,0,0,1,1.75-2.33,1.59,1.59,0,0,0,1.32-1.1Z" style="opacity:0.1"></path><path d="M249.42,179.22l17-39.49h3l17.38,39.49c.63,1.28.27,2.79-1.13,3a2.1,2.1,0,0,0-1.75,2.32l.05.41a2.11,2.11,0,0,1-2.85,2.21l-1.08-.41a2.11,2.11,0,0,0-2.68,1.11l-1.34,3a2.1,2.1,0,0,1-3,1l-4-2.41a2.09,2.09,0,0,0-2.16,0l-3.62,2.41a2.11,2.11,0,0,1-3-1l-1.34-3a2.11,2.11,0,0,0-2.68-1.11l-1.08.41a2.1,2.1,0,0,1-2.84-2.21l0-.41a2.09,2.09,0,0,0-1.75-2.32h0C249.15,182,248.8,180.49,249.42,179.22Z" style="fill:#FF5050"></path><path d="M249.42,179.22l17-39.49h3l17.38,39.49c.63,1.28.27,2.79-1.13,3a2.1,2.1,0,0,0-1.75,2.32l.05.41a2.11,2.11,0,0,1-2.85,2.21l-1.08-.41a2.11,2.11,0,0,0-2.68,1.11l-1.34,3a2.1,2.1,0,0,1-3,1l-4-2.41a2.09,2.09,0,0,0-2.16,0l-3.62,2.41a2.11,2.11,0,0,1-3-1l-1.34-3a2.11,2.11,0,0,0-2.68-1.11l-1.08.41a2.1,2.1,0,0,1-2.84-2.21l0-.41a2.09,2.09,0,0,0-1.75-2.32h0C249.15,182,248.8,180.49,249.42,179.22Z" style="fill:#fff;opacity:0.2"></path><path d="M282,168.33l-12.59-28.6h-3L254,168.55a1.72,1.72,0,0,0,.34.24l.09.05a1.9,1.9,0,0,1,1,1.82h0a1.9,1.9,0,0,0,2.38,2l.74-.19a1.89,1.89,0,0,1,2.16.94l1,1.88a1.9,1.9,0,0,0,2.55.79l2.8-1.46a2,2,0,0,1,1.76,0l2.79,1.46a1.9,1.9,0,0,0,2.55-.79l1-1.88a1.89,1.89,0,0,1,2.16-.94l.74.19a1.9,1.9,0,0,0,2.38-2,1.9,1.9,0,0,1,1-1.82l.1-.05A2,2,0,0,0,282,168.33Z" style="opacity:0.1"></path><path d="M253.65,163.69l12.75-26.8.1-.16a1.61,1.61,0,0,1,2.81,0l.11.16,12.74,26.8a1.9,1.9,0,0,1-.68,2.66l-.1.05a1.89,1.89,0,0,0-1,1.82,1.9,1.9,0,0,1-2.38,2l-.74-.2a1.92,1.92,0,0,0-2.16.94l-1,1.89a1.9,1.9,0,0,1-2.55.79l-2.79-1.46a1.89,1.89,0,0,0-1.76,0l-2.8,1.46a1.9,1.9,0,0,1-2.55-.79l-1-1.89a1.92,1.92,0,0,0-2.16-.94l-.74.2a1.9,1.9,0,0,1-2.38-2h0a1.88,1.88,0,0,0-1-1.82l-.09-.05A1.9,1.9,0,0,1,253.65,163.69Z" style="fill:#FF5050"></path><path d="M253.65,163.69l12.75-26.8.1-.16a1.61,1.61,0,0,1,2.81,0l.11.16,12.74,26.8a1.9,1.9,0,0,1-.68,2.66l-.1.05a1.89,1.89,0,0,0-1,1.82,1.9,1.9,0,0,1-2.38,2l-.74-.2a1.92,1.92,0,0,0-2.16.94l-1,1.89a1.9,1.9,0,0,1-2.55.79l-2.79-1.46a1.89,1.89,0,0,0-1.76,0l-2.8,1.46a1.9,1.9,0,0,1-2.55-.79l-1-1.89a1.92,1.92,0,0,0-2.16-.94l-.74.2a1.9,1.9,0,0,1-2.38-2h0a1.88,1.88,0,0,0-1-1.82l-.09-.05A1.9,1.9,0,0,1,253.65,163.69Z" style="fill:#fff;opacity:0.30000000000000004"></path></g><g id="freepik--pine--inject-99"><path d="M377.13,239v36.58a1.34,1.34,0,0,1-.8,1.1,4.18,4.18,0,0,1-3.83,0,1.33,1.33,0,0,1-.79-1.1V239Z" style="fill:#37474f"></path><path d="M351.27,250.26,372.91,198h3l21.65,52.26a2.77,2.77,0,0,1-2,3.77l-.35.07a2.77,2.77,0,0,0-2.21,3.06h0a2.76,2.76,0,0,1-3.56,3l-1.07-.32a2.76,2.76,0,0,0-3.33,1.5L384,263.69a2.77,2.77,0,0,1-3.93,1.24l-4.2-2.49a2.74,2.74,0,0,0-2.82,0l-4.2,2.49a2.77,2.77,0,0,1-3.93-1.24l-1.08-2.37a2.77,2.77,0,0,0-3.33-1.51l-1.07.33a2.77,2.77,0,0,1-3.56-3h0a2.77,2.77,0,0,0-2.21-3.06l-.36-.07A2.76,2.76,0,0,1,351.27,250.26Z" style="fill:#FF5050"></path><path d="M351.27,250.26,372.91,198h3l21.65,52.26a2.77,2.77,0,0,1-2,3.77l-.35.07a2.77,2.77,0,0,0-2.21,3.06h0a2.76,2.76,0,0,1-3.56,3l-1.07-.32a2.76,2.76,0,0,0-3.33,1.5L384,263.69a2.77,2.77,0,0,1-3.93,1.24l-4.2-2.49a2.74,2.74,0,0,0-2.82,0l-4.2,2.49a2.77,2.77,0,0,1-3.93-1.24l-1.08-2.37a2.77,2.77,0,0,0-3.33-1.51l-1.07.33a2.77,2.77,0,0,1-3.56-3h0a2.77,2.77,0,0,0-2.21-3.06l-.36-.07A2.76,2.76,0,0,1,351.27,250.26Z" style="fill:#fff;opacity:0.1"></path><path d="M383.11,215.35,375.92,199h-3L361,226.68l-5.22,12.61a1.7,1.7,0,0,0,1.4,1.88h0a2.08,2.08,0,0,1,1.74,2.3l-.05.4a2.1,2.1,0,0,0,2.83,2.2l1.07-.41a2.1,2.1,0,0,1,2.65,1.1l1.33,3a2.09,2.09,0,0,0,3,.95l3.59-2.39a2.06,2.06,0,0,1,2.14,0l4,2.39a2.1,2.1,0,0,0,3-.95l1.32-3a2.11,2.11,0,0,1,2.66-1.1l1.07.41a2.09,2.09,0,0,0,2.82-2.2l-.05-.4a2.09,2.09,0,0,1,1.74-2.3,1.6,1.6,0,0,0,1.31-1.1Z" style="opacity:0.1"></path><path d="M356.09,235.06l16.82-39.15h3l17.24,39.15c.62,1.26.27,2.76-1.12,3a2.1,2.1,0,0,0-1.74,2.31l.05.4a2.09,2.09,0,0,1-2.82,2.19l-1.07-.41a2.1,2.1,0,0,0-2.66,1.11l-1.32,3a2.1,2.1,0,0,1-3,.94l-4-2.39a2.1,2.1,0,0,0-2.14,0l-3.59,2.39a2.09,2.09,0,0,1-3-.94l-1.33-3a2.09,2.09,0,0,0-2.65-1.11l-1.07.41a2.1,2.1,0,0,1-2.83-2.19l.05-.41a2.09,2.09,0,0,0-1.74-2.3h0C355.83,237.82,355.47,236.32,356.09,235.06Z" style="fill:#FF5050"></path><path d="M356.09,235.06l16.82-39.15h3l17.24,39.15c.62,1.26.27,2.76-1.12,3a2.1,2.1,0,0,0-1.74,2.31l.05.4a2.09,2.09,0,0,1-2.82,2.19l-1.07-.41a2.1,2.1,0,0,0-2.66,1.11l-1.32,3a2.1,2.1,0,0,1-3,.94l-4-2.39a2.1,2.1,0,0,0-2.14,0l-3.59,2.39a2.09,2.09,0,0,1-3-.94l-1.33-3a2.09,2.09,0,0,0-2.65-1.11l-1.07.41a2.1,2.1,0,0,1-2.83-2.19l.05-.41a2.09,2.09,0,0,0-1.74-2.3h0C355.83,237.82,355.47,236.32,356.09,235.06Z" style="fill:#fff;opacity:0.2"></path><path d="M388.41,224.26l-12.49-28.35h-3l-12.27,28.58a2.62,2.62,0,0,0,.32.23l.1.05a1.87,1.87,0,0,1,.95,1.8h0a1.89,1.89,0,0,0,2.36,2l.73-.2a1.88,1.88,0,0,1,2.14.94l1,1.87a1.88,1.88,0,0,0,2.53.78l2.77-1.45a1.91,1.91,0,0,1,1.74,0l2.77,1.45a1.89,1.89,0,0,0,2.53-.78l1-1.87a1.89,1.89,0,0,1,2.14-.94l.73.2a1.89,1.89,0,0,0,2.36-2,1.89,1.89,0,0,1,1-1.81l.09-.05A2,2,0,0,0,388.41,224.26Z" style="opacity:0.1"></path><path d="M360.28,219.66l12.64-26.57.1-.16a1.62,1.62,0,0,1,1.4-.81,1.61,1.61,0,0,1,1.39.81l.11.17,12.63,26.56a1.88,1.88,0,0,1-.68,2.64l-.09,0a1.87,1.87,0,0,0-1,1.8,1.88,1.88,0,0,1-2.36,2l-.73-.19a1.88,1.88,0,0,0-2.14.93l-1,1.87a1.88,1.88,0,0,1-2.53.78l-2.77-1.44a1.85,1.85,0,0,0-1.74,0l-2.77,1.44a1.88,1.88,0,0,1-2.53-.78l-1-1.87a1.88,1.88,0,0,0-2.14-.93l-.73.19a1.88,1.88,0,0,1-2.36-2h0a1.87,1.87,0,0,0-.95-1.8l-.1,0A1.9,1.9,0,0,1,360.28,219.66Z" style="fill:#FF5050"></path><path d="M360.28,219.66l12.64-26.57.1-.16a1.62,1.62,0,0,1,1.4-.81,1.61,1.61,0,0,1,1.39.81l.11.17,12.63,26.56a1.88,1.88,0,0,1-.68,2.64l-.09,0a1.87,1.87,0,0,0-1,1.8,1.88,1.88,0,0,1-2.36,2l-.73-.19a1.88,1.88,0,0,0-2.14.93l-1,1.87a1.88,1.88,0,0,1-2.53.78l-2.77-1.44a1.85,1.85,0,0,0-1.74,0l-2.77,1.44a1.88,1.88,0,0,1-2.53-.78l-1-1.87a1.88,1.88,0,0,0-2.14-.93l-.73.19a1.88,1.88,0,0,1-2.36-2h0a1.87,1.87,0,0,0-.95-1.8l-.1,0A1.9,1.9,0,0,1,360.28,219.66Z" style="fill:#fff;opacity:0.30000000000000004"></path></g><g id="freepik--Tree--inject-99"><path id="freepik--Bush--inject-99" d="M308.46,234.56c1.63.26,3.09-.19,3.34-1.95a15.24,15.24,0,0,0,0-4.37c-.07-.52-.26-1.14-.77-1.28a1,1,0,0,0-1,.59,2.91,2.91,0,0,0-.18,1.28c-.25-.57-.64-1.23-1.26-1.24a1.16,1.16,0,0,0-1,1.17,3.38,3.38,0,0,0,.53,1.64,1.59,1.59,0,0,0-1.27.2,1.1,1.1,0,0,0-.05,1.44A3.31,3.31,0,0,0,308,233a.58.58,0,0,0-.78.38.87.87,0,0,0,.34.87A1.85,1.85,0,0,0,308.46,234.56Z" style="fill:#455a64"></path><g id="freepik--tree--inject-99"><path d="M320.07,161.19a8.84,8.84,0,0,0-5.15-5c-3.8-1.44-9.84-1.44-12,2.75-.79,1.55-.82,3.43-1.42,5.06-.85,2.31-3.2,3.64-5.1,5a10,10,0,0,0-3.53,11c.72,2,2.31,3.72,2.67,5.88.42,2.49-1.32,5-1.88,7.39a19.39,19.39,0,0,0-.34,6.45c.66,5.6,6.49,9.08,11.51,10.23,5.8,1.31,12.62,1.11,18-1.6,3-1.51,5.63-3.31,6.74-6.61a10,10,0,0,0-1.31-8.23c-1.55-2.51-3.3-4.64-1.4-7.46,1.18-1.72,2.6-3.23,3.33-5.21a8.45,8.45,0,0,0-.14-5.35,9.87,9.87,0,0,0-3.65-4.25c-1.66-1.27-4-2.37-4.88-4.4-.55-1.33-.42-2.71-.86-4.05A12.58,12.58,0,0,0,320.07,161.19Z" style="fill:#FF5050"></path><path d="M320.07,161.19a8.84,8.84,0,0,0-5.15-5c-3.8-1.44-9.84-1.44-12,2.75-.79,1.55-.82,3.43-1.42,5.06-.85,2.31-3.2,3.64-5.1,5a10,10,0,0,0-3.53,11c.72,2,2.31,3.72,2.67,5.88.42,2.49-1.32,5-1.88,7.39a19.39,19.39,0,0,0-.34,6.45c.66,5.6,6.49,9.08,11.51,10.23,5.8,1.31,12.62,1.11,18-1.6,3-1.51,5.63-3.31,6.74-6.61a10,10,0,0,0-1.31-8.23c-1.55-2.51-3.3-4.64-1.4-7.46,1.18-1.72,2.6-3.23,3.33-5.21a8.45,8.45,0,0,0-.14-5.35,9.87,9.87,0,0,0-3.65-4.25c-1.66-1.27-4-2.37-4.88-4.4-.55-1.33-.42-2.71-.86-4.05A12.58,12.58,0,0,0,320.07,161.19Z" style="opacity:0.05"></path><path d="M320.07,161.19a8.84,8.84,0,0,0-5.15-5c-3.8-1.44-9.84-1.44-12,2.75-.79,1.55-.82,3.43-1.42,5.06-.85,2.31-3.2,3.64-5.1,5a10,10,0,0,0-3.53,11c.72,2,2.31,3.72,2.67,5.88.42,2.49-1.32,5-1.88,7.39a19.39,19.39,0,0,0-.34,6.45c.66,5.6,6.49,9.08,11.51,10.23,5.8,1.31,12.62,1.11,18-1.6,3-1.51,5.63-3.31,6.74-6.61a10,10,0,0,0-1.31-8.23c-1.55-2.51-3.3-4.64-1.4-7.46,1.18-1.72,2.6-3.23,3.33-5.21a8.45,8.45,0,0,0-.14-5.35,9.87,9.87,0,0,0-3.65-4.25c-1.66-1.27-4-2.37-4.88-4.4-.55-1.33-.42-2.71-.86-4.05A12.58,12.58,0,0,0,320.07,161.19Z" style="opacity:0.1"></path><path d="M324.89,207.16c-6.52,1.55-12.86,3.27-19.41.21-4.71-2.21-10.78-6.81-7.88-12.6,1.38-2.77,3.73-5.34,3.34-8.67-.34-2.9-2.33-4.27-4.32-6.13a11.77,11.77,0,0,1-3.78-5.89,9.39,9.39,0,0,0,0,5.86c.72,2,2.31,3.72,2.67,5.88.42,2.49-1.32,5-1.88,7.39a19.39,19.39,0,0,0-.34,6.45c.66,5.6,6.49,9.08,11.51,10.23,5.8,1.31,12.62,1.11,18-1.6C323.55,207.94,324.23,207.56,324.89,207.16Z" style="opacity:0.1"></path><path d="M310.8,155.31a10.09,10.09,0,0,1,4.57,2.1,4.94,4.94,0,0,1,1.67,4.3c-.31,1.44-1.57,2.78-1.43,4.32a4.24,4.24,0,0,0,2.13,3.26c2.38,1.31,5.34,1.11,8.07,1.46-1.59-1.11-3.53-2.17-4.28-4-.55-1.33-.42-2.71-.86-4.05a12.58,12.58,0,0,0-.6-1.54,8.84,8.84,0,0,0-5.15-5A14,14,0,0,0,310.8,155.31Z" style="opacity:0.1"></path><path d="M329,194.71a10.86,10.86,0,0,0-.68-1.26c-1.55-2.51-3.3-4.64-1.4-7.46.37-.54.76-1.05,1.14-1.57-2.63.75-6.22,1.91-5.36,5.16C323.23,191.74,326.69,193.23,329,194.71Z" style="opacity:0.1"></path></g><path d="M302.88,198.49l8.23,16.31v-7.51l.83-32,1.22,32v5.05l9-15.8-9,19.4v18.4a.52.52,0,0,1-.3.42,1.61,1.61,0,0,1-1.45,0,.52.52,0,0,1-.3-.42V219Z" style="fill:#37474f"></path><path id="freepik--bush--inject-99" d="M312.82,235.46l5.12-3a4.31,4.31,0,0,0,1.12-1.05,2.91,2.91,0,0,0,.62-1.33.69.69,0,0,0-.05-.51c-.19-.27-.63-.17-.87,0s-.44.41-.7.69a7.61,7.61,0,0,0,.1-1.78A.79.79,0,0,0,318,228a.67.67,0,0,0-.72,0,3,3,0,0,0-1.19,1.89,5.93,5.93,0,0,0-.07-2.26c-.18-.81-1.1-1.13-1.42-.36a4.79,4.79,0,0,0-.27,1.29,5.17,5.17,0,0,0,.12,1.71,5.38,5.38,0,0,0-1.37-1.9c-.22-.19-.52-.38-.79-.27s-.38.55-.35.9a5,5,0,0,0,.7,2.06,4.31,4.31,0,0,0-1.73-.67.53.53,0,0,0-.55.18.72.72,0,0,0,.12.71,4.36,4.36,0,0,0,1.38,1.28,4.33,4.33,0,0,0-1.68-.18.62.62,0,0,0-.45.19c-.14.21,0,.5.21.68a5.62,5.62,0,0,0,1.2.72,1.7,1.7,0,0,0-.74.12.6.6,0,0,0-.35.61c.05.25.31.39.54.48A3.64,3.64,0,0,0,312.82,235.46Z" style="fill:#FF5050"></path><path id="freepik--bush--inject-99" d="M312.82,235.46l5.12-3a4.31,4.31,0,0,0,1.12-1.05,2.91,2.91,0,0,0,.62-1.33.69.69,0,0,0-.05-.51c-.19-.27-.63-.17-.87,0s-.44.41-.7.69a7.61,7.61,0,0,0,.1-1.78A.79.79,0,0,0,318,228a.67.67,0,0,0-.72,0,3,3,0,0,0-1.19,1.89,5.93,5.93,0,0,0-.07-2.26c-.18-.81-1.1-1.13-1.42-.36a4.79,4.79,0,0,0-.27,1.29,5.17,5.17,0,0,0,.12,1.71,5.38,5.38,0,0,0-1.37-1.9c-.22-.19-.52-.38-.79-.27s-.38.55-.35.9a5,5,0,0,0,.7,2.06,4.31,4.31,0,0,0-1.73-.67.53.53,0,0,0-.55.18.72.72,0,0,0,.12.71,4.36,4.36,0,0,0,1.38,1.28,4.33,4.33,0,0,0-1.68-.18.62.62,0,0,0-.45.19c-.14.21,0,.5.21.68a5.62,5.62,0,0,0,1.2.72,1.7,1.7,0,0,0-.74.12.6.6,0,0,0-.35.61c.05.25.31.39.54.48A3.64,3.64,0,0,0,312.82,235.46Z" style="opacity:0.1"></path></g><g id="freepik--tree--inject-99"><path id="freepik--bush--inject-99" d="M418.86,310.36c-3,.48-5.73-.35-6.19-3.62a29,29,0,0,1,0-8.11c.13-1,.48-2.12,1.43-2.37a1.8,1.8,0,0,1,1.94,1.09,5.19,5.19,0,0,1,.33,2.38c.48-1.06,1.19-2.28,2.36-2.31a2.16,2.16,0,0,1,1.92,2.18,6.21,6.21,0,0,1-1,3A2.93,2.93,0,0,1,422,303a2.06,2.06,0,0,1,.09,2.68,6,6,0,0,1-2.37,1.7,1.07,1.07,0,0,1,1.44.7,1.64,1.64,0,0,1-.62,1.63A3.5,3.5,0,0,1,418.86,310.36Z" style="fill:#455a64"></path><g id="freepik--tree--inject-99"><path d="M422.09,212.74a11.39,11.39,0,0,0-6.64-6.49c-4.9-1.86-12.68-1.86-15.45,3.54-1,2-1.07,4.43-1.84,6.52-1.09,3-4.12,4.71-6.57,6.44A12.85,12.85,0,0,0,387,236.91c.93,2.62,3,4.8,3.45,7.58.54,3.22-1.71,6.47-2.42,9.53a24.67,24.67,0,0,0-.44,8.31c.85,7.22,8.36,11.72,14.84,13.19,7.47,1.7,16.26,1.44,23.21-2.06,3.86-1.94,7.25-4.26,8.68-8.52,1.18-3.51.22-7.54-1.68-10.61-2-3.24-4.26-6-1.81-9.61,1.52-2.23,3.35-4.17,4.29-6.73a10.91,10.91,0,0,0-.18-6.89c-.8-2.32-2.8-4-4.7-5.49-2.14-1.64-5.2-3.05-6.29-5.66-.72-1.73-.55-3.5-1.11-5.23A15.36,15.36,0,0,0,422.09,212.74Z" style="fill:#FF5050"></path><path d="M422.09,212.74a11.39,11.39,0,0,0-6.64-6.49c-4.9-1.86-12.68-1.86-15.45,3.54-1,2-1.07,4.43-1.84,6.52-1.09,3-4.12,4.71-6.57,6.44A12.85,12.85,0,0,0,387,236.91c.93,2.62,3,4.8,3.45,7.58.54,3.22-1.71,6.47-2.42,9.53a24.67,24.67,0,0,0-.44,8.31c.85,7.22,8.36,11.72,14.84,13.19,7.47,1.7,16.26,1.44,23.21-2.06,3.86-1.94,7.25-4.26,8.68-8.52,1.18-3.51.22-7.54-1.68-10.61-2-3.24-4.26-6-1.81-9.61,1.52-2.23,3.35-4.17,4.29-6.73a10.91,10.91,0,0,0-.18-6.89c-.8-2.32-2.8-4-4.7-5.49-2.14-1.64-5.2-3.05-6.29-5.66-.72-1.73-.55-3.5-1.11-5.23A15.36,15.36,0,0,0,422.09,212.74Z" style="opacity:0.05"></path><path d="M422.09,212.74a11.39,11.39,0,0,0-6.64-6.49c-4.9-1.86-12.68-1.86-15.45,3.54-1,2-1.07,4.43-1.84,6.52-1.09,3-4.12,4.71-6.57,6.44A12.85,12.85,0,0,0,387,236.91c.93,2.62,3,4.8,3.45,7.58.54,3.22-1.71,6.47-2.42,9.53a24.67,24.67,0,0,0-.44,8.31c.85,7.22,8.36,11.72,14.84,13.19,7.47,1.7,16.26,1.44,23.21-2.06,3.86-1.94,7.25-4.26,8.68-8.52,1.18-3.51.22-7.54-1.68-10.61-2-3.24-4.26-6-1.81-9.61,1.52-2.23,3.35-4.17,4.29-6.73a10.91,10.91,0,0,0-.18-6.89c-.8-2.32-2.8-4-4.7-5.49-2.14-1.64-5.2-3.05-6.29-5.66-.72-1.73-.55-3.5-1.11-5.23A15.36,15.36,0,0,0,422.09,212.74Z" style="opacity:0.1"></path><path d="M428.3,272c-8.39,2-16.58,4.21-25,.27-6.09-2.84-13.9-8.78-10.17-16.24,1.78-3.57,4.81-6.89,4.31-11.18-.45-3.74-3-5.51-5.57-7.91-2.21-2.07-4.29-4.64-4.88-7.59a12.2,12.2,0,0,0,0,7.56c.93,2.62,3,4.8,3.45,7.58.54,3.22-1.71,6.47-2.42,9.53a24.67,24.67,0,0,0-.44,8.31c.85,7.22,8.36,11.72,14.84,13.19,7.47,1.7,16.26,1.44,23.21-2.06C426.58,273,427.46,272.52,428.3,272Z" style="opacity:0.1"></path><path d="M410.14,205.16a12.78,12.78,0,0,1,5.89,2.7,6.35,6.35,0,0,1,2.16,5.54c-.41,1.87-2,3.59-1.85,5.58a5.47,5.47,0,0,0,2.75,4.2c3.06,1.68,6.88,1.42,10.41,1.87-2.05-1.42-4.55-2.79-5.52-5.1-.72-1.73-.55-3.5-1.11-5.23a15.36,15.36,0,0,0-.78-2,11.39,11.39,0,0,0-6.64-6.49A18,18,0,0,0,410.14,205.16Z" style="opacity:0.1"></path><path d="M433.54,256a14.74,14.74,0,0,0-.87-1.62c-2-3.24-4.26-6-1.81-9.61.48-.7,1-1.37,1.48-2-3.4,1-8,2.45-6.92,6.65C426.17,252.12,430.63,254.05,433.54,256Z" style="opacity:0.1"></path></g><path d="M399.93,260.83l10.61,21v-9.68L411.61,231l1.57,41.21v6.51l11.66-20.37-11.66,25v26.26a.67.67,0,0,1-.39.54,2.12,2.12,0,0,1-1.87,0,.65.65,0,0,1-.38-.54V287.21Z" style="fill:#37474f"></path><path id="freepik--bush--inject-99" d="M410.79,312l-9.51-5.49a7.59,7.59,0,0,1-2.07-1.95,5.44,5.44,0,0,1-1.16-2.46,1.32,1.32,0,0,1,.1-.94c.34-.5,1.16-.33,1.61.08s.82.77,1.29,1.28a14.6,14.6,0,0,1-.18-3.3,1.51,1.51,0,0,1,.4-1.1,1.21,1.21,0,0,1,1.33,0c1.25.67,1.78,2.15,2.21,3.5a11.41,11.41,0,0,1,.12-4.2c.33-1.5,2.05-2.08,2.64-.65a8.49,8.49,0,0,1,.5,2.39,9.84,9.84,0,0,1-.21,3.16,9.9,9.9,0,0,1,2.53-3.51,1.54,1.54,0,0,1,1.47-.51c.6.23.7,1,.64,1.67a9,9,0,0,1-1.3,3.83,8.14,8.14,0,0,1,3.22-1.25,1,1,0,0,1,1,.33,1.31,1.31,0,0,1-.22,1.32,8,8,0,0,1-2.56,2.37,8.38,8.38,0,0,1,3.11-.32,1.07,1.07,0,0,1,.84.35c.27.39-.05.92-.39,1.26a9.47,9.47,0,0,1-2.23,1.33,3,3,0,0,1,1.37.23,1.09,1.09,0,0,1,.66,1.12,1.41,1.41,0,0,1-1,.89C413.15,312.11,412.63,312.32,410.79,312Z" style="fill:#FF5050"></path><path id="freepik--bush--inject-99" d="M410.79,312l-9.51-5.49a7.59,7.59,0,0,1-2.07-1.95,5.44,5.44,0,0,1-1.16-2.46,1.32,1.32,0,0,1,.1-.94c.34-.5,1.16-.33,1.61.08s.82.77,1.29,1.28a14.6,14.6,0,0,1-.18-3.3,1.51,1.51,0,0,1,.4-1.1,1.21,1.21,0,0,1,1.33,0c1.25.67,1.78,2.15,2.21,3.5a11.41,11.41,0,0,1,.12-4.2c.33-1.5,2.05-2.08,2.64-.65a8.49,8.49,0,0,1,.5,2.39,9.84,9.84,0,0,1-.21,3.16,9.9,9.9,0,0,1,2.53-3.51,1.54,1.54,0,0,1,1.47-.51c.6.23.7,1,.64,1.67a9,9,0,0,1-1.3,3.83,8.14,8.14,0,0,1,3.22-1.25,1,1,0,0,1,1,.33,1.31,1.31,0,0,1-.22,1.32,8,8,0,0,1-2.56,2.37,8.38,8.38,0,0,1,3.11-.32,1.07,1.07,0,0,1,.84.35c.27.39-.05.92-.39,1.26a9.47,9.47,0,0,1-2.23,1.33,3,3,0,0,1,1.37.23,1.09,1.09,0,0,1,.66,1.12,1.41,1.41,0,0,1-1,.89C413.15,312.11,412.63,312.32,410.79,312Z" style="opacity:0.1"></path></g><g id="freepik--tree--inject-99"><path id="freepik--bush--inject-99" d="M28.5,327.85c3.25.52,6.17-.38,6.67-3.9a31.13,31.13,0,0,0,0-8.73c-.15-1.05-.52-2.28-1.54-2.55a1.94,1.94,0,0,0-2.1,1.18,5.66,5.66,0,0,0-.35,2.56c-.52-1.14-1.28-2.46-2.54-2.49a2.32,2.32,0,0,0-2.07,2.35,6.73,6.73,0,0,0,1.06,3.26,3.18,3.18,0,0,0-2.54.4,2.22,2.22,0,0,0-.09,2.89,6.52,6.52,0,0,0,2.55,1.82,1.15,1.15,0,0,0-1.55.76,1.74,1.74,0,0,0,.67,1.75A3.7,3.7,0,0,0,28.5,327.85Z" style="fill:#455a64"></path><g id="freepik--tree--inject-99"><path d="M46.47,223.58a12.11,12.11,0,0,0-7.06-6.89c-5.2-2-13.47-2-16.42,3.77-1.09,2.13-1.13,4.7-1.95,6.93-1.16,3.16-4.38,5-7,6.84a13.66,13.66,0,0,0-4.85,15.05c1,2.78,3.17,5.1,3.67,8,.57,3.42-1.82,6.88-2.58,10.13a26.18,26.18,0,0,0-.46,8.83c.9,7.68,8.88,12.45,15.77,14,7.94,1.8,17.28,1.53,24.66-2.19,4.11-2.06,7.71-4.53,9.23-9.05,1.25-3.73.24-8-1.78-11.28-2.13-3.44-4.54-6.36-1.92-10.22,1.6-2.37,3.55-4.43,4.56-7.15a11.61,11.61,0,0,0-.2-7.32c-.85-2.46-3-4.28-5-5.83-2.28-1.74-5.53-3.24-6.69-6-.76-1.84-.59-3.72-1.18-5.56A18.11,18.11,0,0,0,46.47,223.58Z" style="fill:#FF5050"></path><path d="M46.47,223.58a12.11,12.11,0,0,0-7.06-6.89c-5.2-2-13.47-2-16.42,3.77-1.09,2.13-1.13,4.7-1.95,6.93-1.16,3.16-4.38,5-7,6.84a13.66,13.66,0,0,0-4.85,15.05c1,2.78,3.17,5.1,3.67,8,.57,3.42-1.82,6.88-2.58,10.13a26.18,26.18,0,0,0-.46,8.83c.9,7.68,8.88,12.45,15.77,14,7.94,1.8,17.28,1.53,24.66-2.19,4.11-2.06,7.71-4.53,9.23-9.05,1.25-3.73.24-8-1.78-11.28-2.13-3.44-4.54-6.36-1.92-10.22,1.6-2.37,3.55-4.43,4.56-7.15a11.61,11.61,0,0,0-.2-7.32c-.85-2.46-3-4.28-5-5.83-2.28-1.74-5.53-3.24-6.69-6-.76-1.84-.59-3.72-1.18-5.56A18.11,18.11,0,0,0,46.47,223.58Z" style="opacity:0.05"></path><path d="M46.47,223.58a12.11,12.11,0,0,0-7.06-6.89c-5.2-2-13.47-2-16.42,3.77-1.09,2.13-1.13,4.7-1.95,6.93-1.16,3.16-4.38,5-7,6.84a13.66,13.66,0,0,0-4.85,15.05c1,2.78,3.17,5.1,3.67,8,.57,3.42-1.82,6.88-2.58,10.13a26.18,26.18,0,0,0-.46,8.83c.9,7.68,8.88,12.45,15.77,14,7.94,1.8,17.28,1.53,24.66-2.19,4.11-2.06,7.71-4.53,9.23-9.05,1.25-3.73.24-8-1.78-11.28-2.13-3.44-4.54-6.36-1.92-10.22,1.6-2.37,3.55-4.43,4.56-7.15a11.61,11.61,0,0,0-.2-7.32c-.85-2.46-3-4.28-5-5.83-2.28-1.74-5.53-3.24-6.69-6-.76-1.84-.59-3.72-1.18-5.56A18.11,18.11,0,0,0,46.47,223.58Z" style="opacity:0.1"></path><path d="M53.07,286.57c-8.92,2.13-17.62,4.48-26.58.29-6.47-3-14.78-9.34-10.81-17.27,1.9-3.79,5.12-7.32,4.58-11.87-.47-4-3.19-5.86-5.92-8.41-2.35-2.2-4.55-4.93-5.18-8.06a13,13,0,0,0,.05,8c1,2.78,3.17,5.1,3.67,8,.57,3.42-1.82,6.88-2.58,10.13a26.18,26.18,0,0,0-.46,8.83c.9,7.68,8.88,12.45,15.77,14,7.94,1.8,17.28,1.53,24.66-2.19C51.24,287.64,52.18,287.12,53.07,286.57Z" style="opacity:0.1"></path><path d="M33.77,215.53A13.53,13.53,0,0,1,40,218.41c1.53,1.33,2.74,3.85,2.3,5.88s-2.15,3.82-2,5.93a5.8,5.8,0,0,0,2.93,4.46c3.25,1.79,7.3,1.52,11.05,2-2.17-1.52-4.83-3-5.86-5.43-.76-1.84-.59-3.72-1.18-5.56a18.11,18.11,0,0,0-.83-2.11,12.11,12.11,0,0,0-7.06-6.89A19.15,19.15,0,0,0,33.77,215.53Z" style="opacity:0.1"></path><path d="M58.64,269.51a15.63,15.63,0,0,0-.92-1.72c-2.13-3.44-4.54-6.36-1.92-10.22.5-.74,1-1.45,1.56-2.16-3.61,1-8.53,2.61-7.35,7.07C50.8,265.45,55.54,267.49,58.64,269.51Z" style="opacity:0.1"></path></g><path d="M22.92,274.69,34.19,297V286.75L35.34,243,37,286.75v6.92L49.39,272,37,298.6v27.91a.69.69,0,0,1-.41.57,2.18,2.18,0,0,1-2,0,.71.71,0,0,1-.41-.57V302.74Z" style="fill:#37474f"></path><path id="freepik--bush--inject-99" d="M37.19,329.64s8.33-4.8,10.25-5.92a8.07,8.07,0,0,0,2.22-2.09A5.8,5.8,0,0,0,50.91,319a1.34,1.34,0,0,0-.11-1c-.37-.55-1.24-.36-1.73.08s-.88.83-1.39,1.38a15.7,15.7,0,0,0,.19-3.56,1.55,1.55,0,0,0-.43-1.18,1.32,1.32,0,0,0-1.43,0c-1.34.73-1.91,2.32-2.37,3.78A12.27,12.27,0,0,0,43.5,314c-.36-1.62-2.21-2.25-2.84-.71a9.06,9.06,0,0,0-.54,2.58,10.48,10.48,0,0,0,.23,3.4,10.78,10.78,0,0,0-2.73-3.78,1.64,1.64,0,0,0-1.58-.55c-.64.25-.75,1.11-.69,1.8a9.81,9.81,0,0,0,1.4,4.12,8.68,8.68,0,0,0-3.47-1.35,1,1,0,0,0-1.08.36,1.39,1.39,0,0,0,.23,1.42,8.61,8.61,0,0,0,2.76,2.56,9.08,9.08,0,0,0-3.36-.36,1.15,1.15,0,0,0-.89.38c-.29.43,0,1,.42,1.36a10.1,10.1,0,0,0,2.39,1.43,3.33,3.33,0,0,0-1.47.25,1.17,1.17,0,0,0-.71,1.21,1.52,1.52,0,0,0,1.08,1C34.65,329.74,35.21,330,37.19,329.64Z" style="fill:#FF5050"></path><path id="freepik--bush--inject-99" d="M37.19,329.64s8.33-4.8,10.25-5.92a8.07,8.07,0,0,0,2.22-2.09A5.8,5.8,0,0,0,50.91,319a1.34,1.34,0,0,0-.11-1c-.37-.55-1.24-.36-1.73.08s-.88.83-1.39,1.38a15.7,15.7,0,0,0,.19-3.56,1.55,1.55,0,0,0-.43-1.18,1.32,1.32,0,0,0-1.43,0c-1.34.73-1.91,2.32-2.37,3.78A12.27,12.27,0,0,0,43.5,314c-.36-1.62-2.21-2.25-2.84-.71a9.06,9.06,0,0,0-.54,2.58,10.48,10.48,0,0,0,.23,3.4,10.78,10.78,0,0,0-2.73-3.78,1.64,1.64,0,0,0-1.58-.55c-.64.25-.75,1.11-.69,1.8a9.81,9.81,0,0,0,1.4,4.12,8.68,8.68,0,0,0-3.47-1.35,1,1,0,0,0-1.08.36,1.39,1.39,0,0,0,.23,1.42,8.61,8.61,0,0,0,2.76,2.56,9.08,9.08,0,0,0-3.36-.36,1.15,1.15,0,0,0-.89.38c-.29.43,0,1,.42,1.36a10.1,10.1,0,0,0,2.39,1.43,3.33,3.33,0,0,0-1.47.25,1.17,1.17,0,0,0-.71,1.21,1.52,1.52,0,0,0,1.08,1C34.65,329.74,35.21,330,37.19,329.64Z" style="opacity:0.1"></path></g><g id="freepik--tree--inject-99"><path id="freepik--bush--inject-99" d="M134.68,332.92c2.09.33,4-.25,4.28-2.51a20.2,20.2,0,0,0,0-5.6c-.09-.67-.33-1.46-1-1.63a1.23,1.23,0,0,0-1.34.75,3.66,3.66,0,0,0-.23,1.64c-.33-.73-.82-1.57-1.62-1.59a1.47,1.47,0,0,0-1.33,1.5,4.25,4.25,0,0,0,.68,2.1,2,2,0,0,0-1.63.25,1.42,1.42,0,0,0-.06,1.85,4.07,4.07,0,0,0,1.64,1.18.74.74,0,0,0-1,.48,1.12,1.12,0,0,0,.43,1.12A2.45,2.45,0,0,0,134.68,332.92Z" style="fill:#455a64"></path><g id="freepik--tree--inject-99"><path d="M146.21,266.05a7.74,7.74,0,0,0-4.53-4.42c-3.34-1.27-8.64-1.28-10.53,2.41-.7,1.36-.73,3-1.25,4.44-.74,2-2.81,3.21-4.48,4.39a8.77,8.77,0,0,0-3.11,9.65c.63,1.78,2,3.27,2.35,5.17.37,2.19-1.16,4.41-1.65,6.49a17.13,17.13,0,0,0-.3,5.67c.59,4.92,5.7,8,10.12,9,5.09,1.15,11.08,1,15.82-1.4,2.63-1.33,4.94-2.91,5.92-5.81a8.85,8.85,0,0,0-1.15-7.24c-1.36-2.2-2.91-4.08-1.23-6.55,1-1.52,2.28-2.84,2.92-4.58a7.41,7.41,0,0,0-.12-4.7,8.73,8.73,0,0,0-3.21-3.74c-1.46-1.12-3.54-2.08-4.28-3.86-.49-1.18-.38-2.38-.76-3.56A13,13,0,0,0,146.21,266.05Z" style="fill:#FF5050"></path><path d="M146.21,266.05a7.74,7.74,0,0,0-4.53-4.42c-3.34-1.27-8.64-1.28-10.53,2.41-.7,1.36-.73,3-1.25,4.44-.74,2-2.81,3.21-4.48,4.39a8.77,8.77,0,0,0-3.11,9.65c.63,1.78,2,3.27,2.35,5.17.37,2.19-1.16,4.41-1.65,6.49a17.13,17.13,0,0,0-.3,5.67c.59,4.92,5.7,8,10.12,9,5.09,1.15,11.08,1,15.82-1.4,2.63-1.33,4.94-2.91,5.92-5.81a8.85,8.85,0,0,0-1.15-7.24c-1.36-2.2-2.91-4.08-1.23-6.55,1-1.52,2.28-2.84,2.92-4.58a7.41,7.41,0,0,0-.12-4.7,8.73,8.73,0,0,0-3.21-3.74c-1.46-1.12-3.54-2.08-4.28-3.86-.49-1.18-.38-2.38-.76-3.56A13,13,0,0,0,146.21,266.05Z" style="opacity:0.05"></path><path d="M146.21,266.05a7.74,7.74,0,0,0-4.53-4.42c-3.34-1.27-8.64-1.28-10.53,2.41-.7,1.36-.73,3-1.25,4.44-.74,2-2.81,3.21-4.48,4.39a8.77,8.77,0,0,0-3.11,9.65c.63,1.78,2,3.27,2.35,5.17.37,2.19-1.16,4.41-1.65,6.49a17.13,17.13,0,0,0-.3,5.67c.59,4.92,5.7,8,10.12,9,5.09,1.15,11.08,1,15.82-1.4,2.63-1.33,4.94-2.91,5.92-5.81a8.85,8.85,0,0,0-1.15-7.24c-1.36-2.2-2.91-4.08-1.23-6.55,1-1.52,2.28-2.84,2.92-4.58a7.41,7.41,0,0,0-.12-4.7,8.73,8.73,0,0,0-3.21-3.74c-1.46-1.12-3.54-2.08-4.28-3.86-.49-1.18-.38-2.38-.76-3.56A13,13,0,0,0,146.21,266.05Z" style="opacity:0.1"></path><path d="M150.44,306.44c-5.72,1.36-11.3,2.87-17.05.19-4.14-1.94-9.47-6-6.93-11.08,1.22-2.43,3.28-4.69,2.94-7.62-.3-2.54-2-3.75-3.8-5.39a10.3,10.3,0,0,1-3.32-5.17,8.31,8.31,0,0,0,0,5.15c.63,1.78,2,3.27,2.35,5.17.37,2.19-1.16,4.41-1.65,6.49a17.13,17.13,0,0,0-.3,5.67c.58,4.92,5.7,8,10.12,9,5.09,1.15,11.08,1,15.82-1.4C149.27,307.12,149.87,306.8,150.44,306.44Z" style="opacity:0.1"></path><path d="M138.06,260.88a8.72,8.72,0,0,1,4,1.84,4.33,4.33,0,0,1,1.47,3.78c-.28,1.27-1.38,2.45-1.26,3.8a3.72,3.72,0,0,0,1.88,2.86c2.08,1.15,4.68,1,7.09,1.28-1.4-1-3.1-1.9-3.76-3.48-.49-1.18-.38-2.38-.76-3.56a13,13,0,0,0-.53-1.35,7.74,7.74,0,0,0-4.53-4.42A12.06,12.06,0,0,0,138.06,260.88Z" style="opacity:0.1"></path><path d="M154,295.5a8.38,8.38,0,0,0-.59-1.11c-1.36-2.2-2.91-4.08-1.23-6.55.32-.47.66-.93,1-1.38-2.31.66-5.47,1.67-4.71,4.53C149,292.89,152,294.2,154,295.5Z" style="opacity:0.1"></path></g><path d="M131.1,298.82l7.23,14.33v-6.59l.74-28.09,1.07,28.09V311l7.94-13.88-7.94,17v17.9a.45.45,0,0,1-.27.37,1.42,1.42,0,0,1-1.27,0,.45.45,0,0,1-.27-.37V316.81Z" style="fill:#263238"></path><path id="freepik--bush--inject-99" d="M140.26,334.06l6.57-3.79a5.07,5.07,0,0,0,1.42-1.35,3.52,3.52,0,0,0,.8-1.7.91.91,0,0,0-.06-.65c-.24-.34-.8-.22-1.11.06a12.26,12.26,0,0,0-.9.88,10.24,10.24,0,0,0,.13-2.28,1,1,0,0,0-.28-.75.85.85,0,0,0-.92,0,3.92,3.92,0,0,0-1.52,2.42,7.81,7.81,0,0,0-.09-2.89c-.23-1-1.41-1.45-1.82-.46a5.84,5.84,0,0,0-.34,1.66,6.93,6.93,0,0,0,.14,2.18,6.81,6.81,0,0,0-1.75-2.43,1,1,0,0,0-1-.35c-.41.16-.48.71-.44,1.15a6.23,6.23,0,0,0,.89,2.65,5.55,5.55,0,0,0-2.22-.87.67.67,0,0,0-.7.23.89.89,0,0,0,.16.91,5.34,5.34,0,0,0,1.76,1.64,5.78,5.78,0,0,0-2.15-.22.73.73,0,0,0-.57.24c-.19.27,0,.64.27.87a6.55,6.55,0,0,0,1.53.92,2.05,2.05,0,0,0-1,.16.78.78,0,0,0-.45.78,1,1,0,0,0,.7.61A4.64,4.64,0,0,0,140.26,334.06Z" style="fill:#FF5050"></path><path id="freepik--bush--inject-99" d="M140.26,334.06l6.57-3.79a5.07,5.07,0,0,0,1.42-1.35,3.52,3.52,0,0,0,.8-1.7.91.91,0,0,0-.06-.65c-.24-.34-.8-.22-1.11.06a12.26,12.26,0,0,0-.9.88,10.24,10.24,0,0,0,.13-2.28,1,1,0,0,0-.28-.75.85.85,0,0,0-.92,0,3.92,3.92,0,0,0-1.52,2.42,7.81,7.81,0,0,0-.09-2.89c-.23-1-1.41-1.45-1.82-.46a5.84,5.84,0,0,0-.34,1.66,6.93,6.93,0,0,0,.14,2.18,6.81,6.81,0,0,0-1.75-2.43,1,1,0,0,0-1-.35c-.41.16-.48.71-.44,1.15a6.23,6.23,0,0,0,.89,2.65,5.55,5.55,0,0,0-2.22-.87.67.67,0,0,0-.7.23.89.89,0,0,0,.16.91,5.34,5.34,0,0,0,1.76,1.64,5.78,5.78,0,0,0-2.15-.22.73.73,0,0,0-.57.24c-.19.27,0,.64.27.87a6.55,6.55,0,0,0,1.53.92,2.05,2.05,0,0,0-1,.16.78.78,0,0,0-.45.78,1,1,0,0,0,.7.61A4.64,4.64,0,0,0,140.26,334.06Z" style="opacity:0.4"></path></g><g id="freepik--pine--inject-99"><path d="M87.29,306.45v34.73a1.28,1.28,0,0,1-.75,1.05,4,4,0,0,1-3.64,0,1.28,1.28,0,0,1-.75-1.05V306.45Z" style="fill:#37474f"></path><path d="M62.74,320.38l20.55-49.62h2.86l20.55,49.62a2.63,2.63,0,0,1-1.92,3.58l-.33.07a2.63,2.63,0,0,0-2.1,2.9h0A2.62,2.62,0,0,1,99,329.76l-1-.31a2.61,2.61,0,0,0-3.16,1.43l-1,2.25a2.63,2.63,0,0,1-3.73,1.17l-4-2.36a2.63,2.63,0,0,0-2.68,0l-4,2.36a2.63,2.63,0,0,1-3.73-1.17l-1-2.25a2.61,2.61,0,0,0-3.16-1.43l-1,.31a2.62,2.62,0,0,1-3.37-2.83h0A2.62,2.62,0,0,0,65,324l-.33-.07A2.63,2.63,0,0,1,62.74,320.38Z" style="fill:#FF5050"></path><path d="M62.74,320.38l20.55-49.62h2.86l20.55,49.62a2.63,2.63,0,0,1-1.92,3.58l-.33.07a2.63,2.63,0,0,0-2.1,2.9h0A2.62,2.62,0,0,1,99,329.76l-1-.31a2.61,2.61,0,0,0-3.16,1.43l-1,2.25a2.63,2.63,0,0,1-3.73,1.17l-4-2.36a2.63,2.63,0,0,0-2.68,0l-4,2.36a2.63,2.63,0,0,1-3.73-1.17l-1-2.25a2.61,2.61,0,0,0-3.16-1.43l-1,.31a2.62,2.62,0,0,1-3.37-2.83h0A2.62,2.62,0,0,0,65,324l-.33-.07A2.63,2.63,0,0,1,62.74,320.38Z" style="opacity:0.1"></path><path d="M93,287.24l-6.82-15.5H83.29L72,298l-5,12a1.59,1.59,0,0,0,1.33,1.78h0A2,2,0,0,1,70,313.94l-.05.38a2,2,0,0,0,2.68,2.08l1-.38a2,2,0,0,1,2.52,1l1.26,2.83a2,2,0,0,0,2.83.9l3.4-2.27a2,2,0,0,1,2,0l3.8,2.27a2,2,0,0,0,2.83-.9l1.26-2.83a2,2,0,0,1,2.52-1l1,.38a2,2,0,0,0,2.67-2.08l0-.38a2,2,0,0,1,1.65-2.19,1.51,1.51,0,0,0,1.24-1Z" style="opacity:0.1"></path><path d="M67.32,306l16-37.17h2.86L102.51,306c.59,1.2.26,2.62-1.06,2.84A2,2,0,0,0,99.8,311l0,.38a2,2,0,0,1-2.67,2.08l-1-.38a2,2,0,0,0-2.52,1l-1.26,2.83a2,2,0,0,1-2.83.9l-3.8-2.27a2,2,0,0,0-2,0l-3.4,2.27a2,2,0,0,1-2.83-.9l-1.26-2.83a2,2,0,0,0-2.52-1l-1,.38A2,2,0,0,1,70,311.36L70,311a2,2,0,0,0-1.65-2.19h0C67.07,308.57,66.73,307.15,67.32,306Z" style="fill:#FF5050"></path><path d="M67.32,306l16-37.17h2.86L102.51,306c.59,1.2.26,2.62-1.06,2.84A2,2,0,0,0,99.8,311l0,.38a2,2,0,0,1-2.67,2.08l-1-.38a2,2,0,0,0-2.52,1l-1.26,2.83a2,2,0,0,1-2.83.9l-3.8-2.27a2,2,0,0,0-2,0l-3.4,2.27a2,2,0,0,1-2.83-.9l-1.26-2.83a2,2,0,0,0-2.52-1l-1,.38A2,2,0,0,1,70,311.36L70,311a2,2,0,0,0-1.65-2.19h0C67.07,308.57,66.73,307.15,67.32,306Z" style="fill:#fff;opacity:0.2"></path><path d="M98,295.7,86.15,268.78H83.29L71.64,295.91a1.16,1.16,0,0,0,.31.22l.09.05a1.8,1.8,0,0,1,.9,1.72h0a1.8,1.8,0,0,0,2.24,1.88l.7-.19a1.79,1.79,0,0,1,2,.89l1,1.77a1.8,1.8,0,0,0,2.41.75l2.62-1.38a1.8,1.8,0,0,1,1.66,0L88.18,303a1.77,1.77,0,0,0,2.4-.74l1-1.77a1.79,1.79,0,0,1,2-.89l.7.19a1.8,1.8,0,0,0,2.24-1.88,1.8,1.8,0,0,1,.9-1.72l.09-.05A1.77,1.77,0,0,0,98,295.7Z" style="opacity:0.1"></path><path d="M71.3,291.33l12-25.22.09-.15a1.54,1.54,0,0,1,1.33-.77A1.51,1.51,0,0,1,86,266l.1.15,12,25.22a1.79,1.79,0,0,1-.65,2.5l-.09.05a1.82,1.82,0,0,0-.91,1.71,1.79,1.79,0,0,1-2.23,1.89l-.7-.19a1.79,1.79,0,0,0-2,.89l-1,1.77a1.77,1.77,0,0,1-2.4.74l-2.63-1.37a1.8,1.8,0,0,0-1.66,0l-2.62,1.37a1.78,1.78,0,0,1-2.41-.74l-1-1.77a1.79,1.79,0,0,0-2-.89l-.7.19a1.8,1.8,0,0,1-2.24-1.89h0a1.8,1.8,0,0,0-.9-1.71l-.09-.05A1.79,1.79,0,0,1,71.3,291.33Z" style="fill:#FF5050"></path><path d="M71.3,291.33l12-25.22.09-.15a1.54,1.54,0,0,1,1.33-.77A1.51,1.51,0,0,1,86,266l.1.15,12,25.22a1.79,1.79,0,0,1-.65,2.5l-.09.05a1.82,1.82,0,0,0-.91,1.71,1.79,1.79,0,0,1-2.23,1.89l-.7-.19a1.79,1.79,0,0,0-2,.89l-1,1.77a1.77,1.77,0,0,1-2.4.74l-2.63-1.37a1.8,1.8,0,0,0-1.66,0l-2.62,1.37a1.78,1.78,0,0,1-2.41-.74l-1-1.77a1.79,1.79,0,0,0-2-.89l-.7.19a1.8,1.8,0,0,1-2.24-1.89h0a1.8,1.8,0,0,0-.9-1.71l-.09-.05A1.79,1.79,0,0,1,71.3,291.33Z" style="fill:#fff;opacity:0.30000000000000004"></path></g></g><g id="freepik--Shadows--inject-99"><path id="freepik--Shadow--inject-99" d="M139.61,407.32c4.27,1.52,8.08,4.22,12.16,6.44,6.24,3.39,12.91,5.85,19,9.57,3.73,2.28,14.87,7.1,13.5,12.81-1.05,4.39-9.52,4.21-13.12,4.05-10.3-.44-18.4-5-26.94-10.3-6.81-4.26-13.38-9.56-20.87-12.44-3.1-1.2-6.66-2.18-8.81-4.86a13.53,13.53,0,0,1-2.38-6.76c-.22-1.83.23-4.08-1.45-5.35a5.77,5.77,0,0,1,3.82,1.19c-1.23-2.45-3.14-4.81-6.3-4.59,2.23-.1,4.45-.35,6.5.79,3.89,2.17,5.13,7.22,9.57,8.76a4.22,4.22,0,0,1-.84-3.15c3.16,2.7,5.68,2.63,9.71,2.65A19.35,19.35,0,0,1,139.61,407.32Z" style="opacity:0.15"></path><ellipse id="freepik--shadow--inject-99" cx="250.13" cy="435.82" rx="26.03" ry="15.03" style="opacity:0.15"></ellipse><path id="freepik--shadow--inject-99" d="M321,304.15a46.32,46.32,0,0,1,6.81-2.41,22.79,22.79,0,0,1,9.11-.62c4,.65,8,3.37,5,7.73-2,2.87-6.54,3.09-9.6,3.83a30.39,30.39,0,0,0-6.52,2.47c-.95.47-1.95.86-2.88,1.38-2.23,1.26-4.79,2.86-7.41,3.09A16,16,0,0,1,303.41,316c-1.75-1.42-1-3.31.53-4.63a18.61,18.61,0,0,1,6.21-3.19c1.26-.47,2.53-.86,3.81-1.26C316.36,306.14,318.68,305.12,321,304.15Z" style="opacity:0.15"></path></g><g id="freepik--Deer--inject-99"><g id="freepik--deer--inject-99"><path d="M328.16,304.3a4.32,4.32,0,0,1-.12,1.41,2.41,2.41,0,0,1-2.53.83l0-.49-.49.21a6.06,6.06,0,0,1,.91-2.25Z" style="fill:#263238"></path><path d="M331.61,281.41c-.51,1-.65,4.64.68,6s1.68,2.08,1.36,2.75-3.43,6.79-4,8.82a31.37,31.37,0,0,0-1.33,5.73s-1.87.83-2.77-.49c0,0,.77.31,3.06-5.51s2.2-7.19,1.79-8.12-2.81-2.24-4.06-5.26c0,0-.5-3.81,1.94-5.12S331.94,279.92,331.61,281.41Z" style="fill:#37474f"></path><path d="M312.43,310.27a4.52,4.52,0,0,1,1,1.12,2.52,2.52,0,0,1-1.23,2.51l-.39-.32-.21.52a6.52,6.52,0,0,1-1-2.34Z" style="fill:#263238"></path><path d="M313.86,288.68c-.71,1-2.19,3.46-3.11,4.71a23.73,23.73,0,0,0-2,4,2.48,2.48,0,0,0-.14,1.52c.6,2.64,2.09,9.68,4.1,11a2.8,2.8,0,0,1-2.31,2.8s-.81-4.07-1.29-6.13a61.71,61.71,0,0,0-2.15-7.56c-.64-1.43-.48-1.88.61-3.8s1.35-7.61,1.61-8.57a3.15,3.15,0,0,1,3-.17A2.48,2.48,0,0,1,313.86,288.68Z" style="fill:#37474f"></path><path d="M305,264.23c.07-.49.37-1.26,1.86-2.27s3.78-1.26,4.84-1.79,1.4.23.54,1.09-1.49,2.7-3.1,3.85a5.72,5.72,0,0,1-3.7.86Z" style="fill:#37474f"></path><path d="M297.67,264.44c-.05-.5-.31-1.28-1.76-2.35s-3.72-1.44-4.75-2-1.41.17-.59,1.07,1.37,2.76,2.93,4a5.68,5.68,0,0,0,3.65,1Z" style="fill:#37474f"></path><path d="M312,245.13c.06.16.45,5.88.45,5.88l-2.83,3-1,4.52-4.4,5.13-1.51-.59,4.87-5.27,1.2-3.8-1.07-2.1.6-2.81.13,2.86,1,1.12,2.25-2.37Z" style="fill:#f5f5f5"></path><polygon points="298.25 263.48 297.91 260.19 294.52 255.39 293.2 253 293.92 248.27 296 245.97 294.37 248.53 294.08 252.72 294.87 253.94 296.73 252.59 296.76 251 297.11 253.11 295.51 254.69 299.2 259.44 299.98 263.17 298.25 263.48" style="fill:#f5f5f5"></polygon><path d="M338.63,306.07a4.34,4.34,0,0,1,.14,1.4,2.41,2.41,0,0,1-2.34,1.27l-.13-.47-.44.29a6.06,6.06,0,0,1,.49-2.38Z" style="fill:#263238"></path><path d="M321.32,312.39a4.31,4.31,0,0,1,.28,1.46,2.49,2.49,0,0,1-2.31,1.55l-.18-.47-.44.35a6.47,6.47,0,0,1,.28-2.54Z" style="fill:#263238"></path><path d="M301.4,275.32c2,2.37,1.71,4.74,3.51,7.19a29,29,0,0,0,4.7,4.56c2.61,2.34,8,1.77,8,1.77.77,2,.85,9.14,1.1,11.86a56.06,56.06,0,0,1,.53,7.6,20.06,20.06,0,0,1-.66,5.07,2.11,2.11,0,0,0,2.86-1c-.12-1.25-1-9.1-1.05-11.1a25.1,25.1,0,0,1,.73-5.77c.56-2.88,1.24-7.72,1.24-7.72,5-1.64,5.58-5.56,7.44-6.3a6.47,6.47,0,0,0,2.08-.09c.74,6,5,7.7,5.5,9.19s.26,6.66,0,9.47a45.83,45.83,0,0,1-1.36,6.69,2.45,2.45,0,0,0,2.86-.51,27.81,27.81,0,0,1-.18-5.07c.09-3.9,1.26-11.06,1.28-12.33s-1-1.24-1.73-3.4,1.57-7.16,2.37-9.83a11.77,11.77,0,0,0,.34-5.06s1.14.41,1.67-.47-3.74-3.91-7.42-4.89-9.35,1.32-13.22,3.41-4.78.92-8.19,2.17c-2.49.92-4.3,4-6.46,1.68-.5-.55-1.73-2.47-1.54-3.83s.64-3.17-.43-4.52C304,262.34,299,262,297.32,264c-1.07,1.25-.45,3.51-.09,5.37s-.63,5.84,2.32,6.19A3.4,3.4,0,0,0,301.4,275.32Z" style="fill:#455a64"></path><path d="M315.87,280.07a13.47,13.47,0,0,1-7.67-.93,11.57,11.57,0,0,1-5.33-5.4,5.64,5.64,0,0,1-1.47,1.58h0c2,2.37,1.71,4.74,3.51,7.19a29,29,0,0,0,4.7,4.56c1.79,1.61,4.91,1.84,6.68,1.83h0c.8,0,1.32-.06,1.33-.06a20.55,20.55,0,0,1-.78-4.76C316.9,282.23,317.83,279.82,315.87,280.07Z" style="fill:#e0e0e0"></path><path d="M301.3,273.74l-1.89,1.65v.09l.14,0a3.4,3.4,0,0,0,1.85-.19,8,8,0,0,1,.58.8,3.53,3.53,0,0,0,1.93-2.93c.19-.79.55-2.17.55-2.17-.16.4-.78,1.4-.86,1.78Z" style="fill:#37474f"></path><path d="M330.94,281.48a10.93,10.93,0,0,1,1.06-5.22,13.5,13.5,0,0,0-.11,5.1A6.91,6.91,0,0,1,330.94,281.48Z" style="fill:#37474f"></path><path d="M297.35,271.94c.68,0,1.71-1,2.08-2.14s.76-1.15,1.1,0a3,3,0,0,0,2.38,2.08c1.17.31.65,1.33.1,2.14a4.26,4.26,0,0,1-1.61,1.27h0a3.4,3.4,0,0,1-1.85.19C297.68,275.29,297.4,273.61,297.35,271.94Z" style="fill:#ebebeb"></path><path d="M299.8,273.79c-.58,0-.87-.54-1.14-.67a.45.45,0,0,1-.22-.69c.2-.3.69-.19,1.39-.17s1.21-.07,1.39.23a.44.44,0,0,1-.25.68C300.69,273.29,300.38,273.81,299.8,273.79Z" style="fill:#263238"></path><path d="M302.91,267.18a1.61,1.61,0,0,1,1.5-.25,1.71,1.71,0,0,1-.24,1.37,1.54,1.54,0,0,1-1.47.3A1.46,1.46,0,0,1,302.91,267.18Z" style="fill:#263238"></path><path d="M298.65,267.08a1.62,1.62,0,0,0-1.49-.31,1.68,1.68,0,0,0,.19,1.38,1.51,1.51,0,0,0,1.44.36A1.44,1.44,0,0,0,298.65,267.08Z" style="fill:#263238"></path></g></g><g id="freepik--Foxes--inject-99"><g id="freepik--Fox--inject-99"><path d="M137.93,383c-1.6-3.68-4.23-5.75-8.38-6.93a9,9,0,0,1,1.82,3.46,9.73,9.73,0,0,0-6.81-3.95,3.08,3.08,0,0,1,1.52,2.64c-2.22-1.41-3.83-1.13-6.34-1.32-4-.29-5.78-4.09-3.91-7.83a8.76,8.76,0,0,0-5.37,6.75,4.77,4.77,0,0,1,.46-3.65,7,7,0,0,0-2.77,6.18c.2,4.3,2.58,6.31,5.1,7.9-1.71-.49-3.16-1-3.16-1a10,10,0,0,0,3.16,3.19c2.45,1.73,6.81,1.18,9.51.62s3.93-1.39,6.31-1a5.08,5.08,0,0,0-3.06,1.66,6.41,6.41,0,0,1,4.57,0c2.36,1,5,1.6,6.65,0S138.93,385.28,137.93,383Z" style="fill:#FF5050"></path><path d="M137.93,383c-1.6-3.68-4.23-5.75-8.38-6.93a9,9,0,0,1,1.82,3.46,9.73,9.73,0,0,0-6.81-3.95,3.08,3.08,0,0,1,1.52,2.64c-2.22-1.41-3.83-1.13-6.34-1.32-4-.29-5.78-4.09-3.91-7.83a8.76,8.76,0,0,0-5.37,6.75,4.77,4.77,0,0,1,.46-3.65,7,7,0,0,0-2.77,6.18c.2,4.3,2.58,6.31,5.1,7.9-1.71-.49-3.16-1-3.16-1a10,10,0,0,0,3.16,3.19c2.45,1.73,6.81,1.18,9.51.62s3.93-1.39,6.31-1a5.08,5.08,0,0,0-3.06,1.66,6.41,6.41,0,0,1,4.57,0c2.36,1,5,1.6,6.65,0S138.93,385.28,137.93,383Z" style="opacity:0.2"></path><path d="M120,376.92l-.3,0c-4-.29-5.78-4.09-3.91-7.83a8.76,8.76,0,0,0-5.37,6.75,4.77,4.77,0,0,1,.46-3.65,7,7,0,0,0-2.77,6.18,8.48,8.48,0,0,0,3,6.35c.28-.07.44-.28.28-.77a9.07,9.07,0,0,1-.8-2.48,10.62,10.62,0,0,0,2.07,1.1c1.2.42,3.46.82,3.75.39-.15-.59-.88-.84-1.51-1.49a2.27,2.27,0,0,1-.79-1.34,7.16,7.16,0,0,0,3.51,0c1.48-.4-.73-1.51-1-2.17a14.86,14.86,0,0,0,2.82-.71A3.81,3.81,0,0,0,120,376.92Z" style="fill:#fafafa"></path><path d="M183.71,388.92a6.79,6.79,0,0,1,.1,7.23l-1.49-.6a6.49,6.49,0,0,1-.35-3.18C182.21,390.53,182.88,389.27,183.71,388.92Z" style="fill:#37474f"></path><path d="M182.5,392.4a.89.89,0,0,0-.56.32,6.44,6.44,0,0,0,.38,2.83l.64.2c0-.08.09-.17.13-.27s.29-.87-.18-.63a1.29,1.29,0,0,0,.42-.85c-.05-.27-.34-.15-.48,0C183,393.57,183.33,392.29,182.5,392.4Z" style="fill:#e0e0e0"></path><path d="M178.23,395.7a7.47,7.47,0,0,0,2.87-3.5c.73-1.55,1.37-3,2.61-3.28-.93,1-1.83,2.94-1.39,6.63Z" style="fill:#FF5050"></path><path d="M178.23,395.7a7.47,7.47,0,0,0,2.87-3.5c.73-1.55,1.37-3,2.61-3.28-.93,1-1.83,2.94-1.39,6.63Z" style="opacity:0.15"></path><path d="M143.6,410.73c-.32-.31-.82-2.45-.63-5.84,0-.24,0-.45,0-.66h0a.21.21,0,0,1,0,.06v-.06s-.07-2.28,1.07-2.49-5.94-2-5.94-2l-.07.08a3.2,3.2,0,0,0-.57.82c-.63,1.45.25,5,.82,7s.94,4.84,2.64,5.84a5,5,0,0,0,4.65.44C146.59,413.36,145.67,412.49,143.6,410.73Z" style="fill:#FF5050"></path><path d="M143.6,410.73c-.32-.31-.82-2.45-.63-5.84,0-.24,0-.45,0-.66h0a.21.21,0,0,1,0,.06v-.06s-.07-2.28,1.07-2.49-5.94-2-5.94-2l-.07.08a3.2,3.2,0,0,0-.57.82c-.63,1.45.25,5,.82,7s.94,4.84,2.64,5.84a5,5,0,0,0,4.65.44C146.59,413.36,145.67,412.49,143.6,410.73Z" style="opacity:0.15"></path><path d="M145.61,413.87c1-.51.06-1.38-2-3.14-.32-.31-.82-2.45-.63-5.84,0-.24,0-.45,0-.66h0s-.07,1.22-1.46.64-4.05-3.25-3.41-5.16a3.19,3.19,0,0,0-.64.9c-.63,1.45.25,5,.82,7s.94,4.84,2.64,5.84A5,5,0,0,0,145.61,413.87Z" style="fill:#37474f"></path><path d="M175.29,429.15a28.43,28.43,0,0,1-.89-7.81l.12-2.84h-6.84a51.15,51.15,0,0,0,1.44,6.58c.89,3,1.66,6.05,3.47,6.9a6.31,6.31,0,0,0,5.27,0C178.76,431.37,178.3,430.28,175.29,429.15Z" style="fill:#FF5050"></path><path d="M175.29,429.15a28.43,28.43,0,0,1-.89-7.81l.12-2.84h-6.84a51.15,51.15,0,0,0,1.44,6.58c.89,3,1.66,6.05,3.47,6.9a6.31,6.31,0,0,0,5.27,0C178.76,431.37,178.3,430.28,175.29,429.15Z" style="opacity:0.15"></path><path d="M175.29,429.15a28.43,28.43,0,0,1-.89-7.81,1.86,1.86,0,0,0-.66-.65c-1.11-.59-3.89,2-4.62,4.39.89,3,1.66,6.05,3.47,6.9a6.31,6.31,0,0,0,5.27,0C178.76,431.37,178.3,430.28,175.29,429.15Z" style="fill:#37474f"></path><path d="M190.18,405.43c-1.15-1.11-2-1.89-2-1.89s1.71-1.3,1.84-2.66a2.24,2.24,0,0,1-2.13.24,1.62,1.62,0,0,0,1.39-1.25c-1.23.29-1.89-.24-3.4-2.18s-3.38-3.29-7.32-2.58c-2.89.53-4.37,2.13-7.06,4.56a3.29,3.29,0,0,1-2.44,1.21c-1.1.14-2.63-.65-3.84-1.52a49.75,49.75,0,0,1-11-9.71c-3-3.71-7.62-7-14.14-4.91a10.17,10.17,0,0,0-2.31,1.15c-6.27,3.95-6.45,11.89-6.74,13.87-.31,2.2-3,3.33-3.64,4.78s.25,5,.81,7,.95,4.84,2.64,5.85a5,5,0,0,0,4.65.44c1-.51.07-1.38-2-3.14-.31-.32-.81-2.46-.63-5.85s.5-3.84,1.83-3.64a8.42,8.42,0,0,0,6.52-1.36s1.38-.43,3.65,1.37c3.55,2.8,4.57,5.46,6.57,9.3,2.82,5.42,6.6,6.28,6.6,6.28s.88,5.35,1.82,8.49,1.7,6.41,3.58,7.29a6.33,6.33,0,0,0,5.28,0c.9-.61.44-1.69-2.58-2.83a29.76,29.76,0,0,1-.62-10.94,13.28,13.28,0,0,0,9.43-4.94,33.44,33.44,0,0,0,3.31-5.06c1-2,2-3.42,2.94-3.85l2.82,1a5.61,5.61,0,0,0,4.22.17,5.14,5.14,0,0,0,2.48-2A2.08,2.08,0,0,0,190.18,405.43Z" style="fill:#FF5050"></path><path d="M171.77,402.38c-.14,2.18-2.27,3.56-3,3.85a6.27,6.27,0,0,0,3.69-.24,3.46,3.46,0,0,1-1.09,1.74,3.65,3.65,0,0,0,3.27-1.06,5,5,0,0,1-2.19.52,3.55,3.55,0,0,0,.4-1.73,4.17,4.17,0,0,1-2.39.37A4.51,4.51,0,0,0,171.77,402.38Z" style="fill:#fff;opacity:0.2"></path><path d="M190.9,407.38a2.48,2.48,0,0,1-.53-.35l-1.36.69c-.4.51-.9,1-2.19.48s-2.59-1.83-3.9-2.61a7.05,7.05,0,0,0-2.81-1.11,10.07,10.07,0,0,0-3.24.1,6.55,6.55,0,0,0-4.56,2.88,5,5,0,0,1,1.55-.21,2,2,0,0,1,1.34.38,3,3,0,0,0-1.88,2.63c.58-.63,2.15-1.52,3-.66.68.68.32,2,.06,3a3.44,3.44,0,0,1-1.74,2.14,2.41,2.41,0,0,1-2.08-.31,4,4,0,0,1-1.22-1.27,6.37,6.37,0,0,1-.11,2.23,7.35,7.35,0,0,0-.47-1.19,2.07,2.07,0,0,0-.88-.95,4.84,4.84,0,0,1-.2,2.61,6.9,6.9,0,0,1-2.14,3,5.54,5.54,0,0,0-2.05,4,13.28,13.28,0,0,0,9.43-4.94,33.44,33.44,0,0,0,3.31-5.06c1-2,2-3.42,2.94-3.85,0,0,1,.34,2.82,1a5.6,5.6,0,0,0,4.22.15,5.14,5.14,0,0,0,2.48-2,5,5,0,0,0,.19-.62Z" style="fill:#fafafa"></path><path d="M166.13,433.71a28.46,28.46,0,0,1-.88-7.81,2,2,0,0,0-.67-.65c-1.11-.59-3.88,2-4.61,4.4.89,3,1.66,6.05,3.46,6.89a6.33,6.33,0,0,0,5.28,0C169.61,435.93,169.15,434.85,166.13,433.71Z" style="fill:#455a64"></path><path d="M157.56,413.14l0-.06c-.21,1.78-.14,3.27.51,7.68,0,0,.88,5.35,1.82,8.49s1.7,6.41,3.58,7.29a6.37,6.37,0,0,0,2.13.54h0c-3.36-1-5.08-9.64-5.39-15.76A16.67,16.67,0,0,0,157.56,413.14Z" style="opacity:0.15"></path><path d="M135.5,417.8c1-.51.07-1.38-2-3.14-.31-.32-.81-2.46-.63-5.85,0-.23,0-.45,0-.65h0s-.07,1.22-1.47.63-4-3.24-3.4-5.15a3.06,3.06,0,0,0-.64.9c-.63,1.44.25,5,.81,7s.95,4.84,2.64,5.85A5,5,0,0,0,135.5,417.8Z" style="fill:#455a64"></path><path d="M131,399.76c-.31,2.2-3,3.33-3.64,4.78a3.73,3.73,0,0,0-.22,1.44c0-.43.36-1.93,3.44-3,3.63-1.3,3.1-2.05,2.86-5.17-.21-2.94,0-8.12,2.75-10.73C131.48,391.23,131.3,398,131,399.76Z" style="opacity:0.15"></path><path d="M189.26,406.35c-1.3.57-1.65,1.09-1.32,1.64a1.83,1.83,0,0,0,1.26.77,1.19,1.19,0,0,0,.88-.22,2.61,2.61,0,0,0,.8-1.65C190.91,406.42,190.33,405.88,189.26,406.35Z" style="fill:#37474f"></path><path d="M155.92,414.79l-.37-.33a8,8,0,0,0-1-.8,3.31,3.31,0,0,0-1-.46,3,3,0,0,1,1.07,2.13c-.83-1.56-2-1.72-3.34-2.66a7,7,0,0,1-1.77-1.89c.54,1.24,1.28,2.5,1.91,3.7,2.82,5.41,6.59,6.28,6.6,6.28a8.88,8.88,0,0,1-.23-1.62c-.07-.46-.13-.93-.18-1.39-.08-.71-.1-1.44-.2-2.14A3,3,0,0,1,155.92,414.79Z" style="fill:#fafafa"></path><path d="M175,398.77c-.09,0-.17.1-.26.15l-.12.09a4.38,4.38,0,0,0-1.33,1.49.09.09,0,0,0,0,.06,3.82,3.82,0,0,0-.21.46,6.47,6.47,0,0,1-2.95-1c-2.11-1.9-2.05-5.41-1.75-7.1,1.52.39,3.89,1.09,5.32,2.91A5.62,5.62,0,0,1,175,398.77Z" style="fill:#FF5050"></path><path d="M175,398.77c-.09,0-.17.1-.26.15l-.12.09a4.38,4.38,0,0,0-1.33,1.49.09.09,0,0,0,0,.06,3.82,3.82,0,0,0-.21.46,6.47,6.47,0,0,1-2.95-1c-2.11-1.9-2.05-5.41-1.75-7.1,1.52.39,3.89,1.09,5.32,2.91A5.62,5.62,0,0,1,175,398.77Z" style="opacity:0.15"></path><path d="M174.73,398.92l-.12.09a4.38,4.38,0,0,0-1.33,1.49.09.09,0,0,0,0,.06,5.3,5.3,0,0,1-1.81-.63c-3-1.68-2.62-6.45-2.62-6.45a10,10,0,0,1,3.59,1.67A6.28,6.28,0,0,1,174.73,398.92Z" style="fill:#37474f"></path><path d="M174.61,399a4.38,4.38,0,0,0-1.33,1.49,3.19,3.19,0,0,1-.59-.21c-.24-.11-1.15-.66-.71-1a.67.67,0,0,1,.68,0,2,2,0,0,1-.69-1c-.14-.43-.27-1,.36-1.1.88-.14,1.39,1,1.59,1.69,0-.42.41-.45.65,0A1,1,0,0,1,174.61,399Z" style="fill:#e0e0e0"></path><path d="M180.52,401.74a1.77,1.77,0,0,0-1.56.61s.29.95,1,1.17a1.69,1.69,0,0,0,1.56-.54S181.35,402,180.52,401.74Z" style="fill:#263238"></path><path d="M185.3,400.19a1.11,1.11,0,0,1,1-.67,2.08,2.08,0,0,1,.3,1.36,1,1,0,0,1-1,.71A1.79,1.79,0,0,1,185.3,400.19Z" style="fill:#263238"></path><path d="M188.14,403.54s1.71-1.3,1.84-2.66a2.24,2.24,0,0,1-2.13.24,1.62,1.62,0,0,0,1.39-1.25,1.83,1.83,0,0,1-1.65-.3A3.44,3.44,0,0,0,188.14,403.54Z" style="fill:#f0f0f0"></path><path d="M143.43,399.4a7.17,7.17,0,0,1-3.05,4.41,8.66,8.66,0,0,1-5.11,1.43,8.19,8.19,0,0,0,5.94-1.43A6.15,6.15,0,0,0,143.43,399.4Z" style="fill:#fff;opacity:0.2"></path><path d="M181.19,408.92a3.28,3.28,0,0,0-2.94.46,3.55,3.55,0,0,1,2.22.05A2.92,2.92,0,0,1,181.19,408.92Z" style="fill:#e0e0e0"></path></g><g id="freepik--fox--inject-99"><path d="M235.59,423.33c-4.35,1.95-5.41.56-7.69-2.18s-5.86-8.65-6.77-8.91-4-.58-3.52-2.28c.45-1.53,2.54-2.15,4.88-1.44s4.84,3.72,4.84,3.72Z" style="fill:#37474f"></path><path d="M269.75,428.77a7.17,7.17,0,0,1-6.15-3.65l-1.12,6.28Z" style="fill:#FF5050"></path><path d="M269.75,428.77a7.17,7.17,0,0,1-6.15-3.65l-1.12,6.28Z" style="opacity:0.4"></path><path d="M251.22,437.19c-2.39,1.13-7.91-.52-9.57-3.64s-1.13-14.21,3.24-15.65S255.1,432.57,251.22,437.19Z" style="fill:#fafafa"></path><path d="M252.43,434.5l-1.76-6.57a6.66,6.66,0,0,1,1.18-1.8c-.1-.34-.2-.68-.31-1a8.23,8.23,0,0,0-2.17,2.55c-2,3.67-.75,8.5-.75,8.5a8.83,8.83,0,0,1-5.39-2.85,11.55,11.55,0,0,1-2.44-4.26,11.13,11.13,0,0,0,.86,4.49c1.66,3.12,7.18,4.77,9.57,3.64A6.12,6.12,0,0,0,252.43,434.5Z" style="fill:#ebebeb"></path><path d="M231,399.25c-3.12,4.1-4.74,11.67-2.75,16.74s7.06,7.35,8.67,9.26,2,10.39.82,14.06c0,0-3.72,1.24-2.76,2.86s3.2,1.11,4.52.74,4.8-2.92,6.9-21c0,0,3.47,3.05,4.32,6a11.36,11.36,0,0,0-1,4.88,9,9,0,0,0,1.56,4.38,9.38,9.38,0,0,0-2.51,1c-1.34.83-1.44,1.61-1.14,2.35s1.71,1.19,3.74.53a53.39,53.39,0,0,0,10.2-5.77c2.5-2.06,3.49-8,1.77-12.57-2-5.27-6.47-10.85-13.55-16.06-3.31-2.43-6.37-4.39-5.85-9.2Z" style="fill:#FF5050"></path><path d="M251.22,437.19a9.38,9.38,0,0,0-2.51,1c-1.34.83-1.44,1.61-1.14,2.35s1.71,1.19,3.74.53a49.48,49.48,0,0,0,5.92-3C254.71,438.51,252.17,438.13,251.22,437.19Z" style="fill:#263238"></path><path d="M228.2,416c2,5.07,7.06,7.35,8.67,9.26a3.5,3.5,0,0,1,.49.87c0-.11-.1-.44-.13-.62-.91-4.29,2.1-8.34,1.73-13.7a13,13,0,0,0-1.47-5.67,4.38,4.38,0,0,1,2.3,1.49l-2.47-9.22-6.37.85C227.83,403.35,226.21,410.92,228.2,416Z" style="fill:#fafafa"></path><g style="opacity:0.15"><path d="M255.47,423.23a9.82,9.82,0,0,0-5.34,3.29,9.82,9.82,0,0,1,.54,1.41C251.78,425.3,255.47,423.23,255.47,423.23Z"></path></g><path d="M247.43,423h0c-.17-4.45-2-6.64-2-6.64a15.13,15.13,0,0,1,.91,5.54A9.13,9.13,0,0,1,247.43,423Z" style="opacity:0.15"></path><path d="M273.61,436a11,11,0,0,0,.66-6.11c-.51-2.47-1.52-4.12-4-5a6.05,6.05,0,0,0-6.07,1.55,9.34,9.34,0,0,1,1.86-.28,23.08,23.08,0,0,0-4,3.4c-3.09,2.87-7.35,1.54-8.91-2.62a9.29,9.29,0,0,0,1.35,9,5,5,0,0,1-2.49-3,7.36,7.36,0,0,0,2.8,6.61c3.49,2.94,6.77,2.54,9.82,1.74-1.61,1-3.09,1.71-3.09,1.71a10.67,10.67,0,0,0,4.76-.16C269.37,442.3,271.92,439.77,273.61,436Z" style="fill:#FF5050"></path><path d="M273.61,436a11,11,0,0,0,.66-6.11c-.51-2.47-1.52-4.12-4-5a6.05,6.05,0,0,0-6.07,1.55,9.34,9.34,0,0,1,1.86-.28,23.08,23.08,0,0,0-4,3.4c-3.09,2.87-7.35,1.54-8.91-2.62a9.29,9.29,0,0,0,1.35,9,5,5,0,0,1-2.49-3,7.36,7.36,0,0,0,2.8,6.61c3.49,2.94,6.77,2.54,9.82,1.74-1.61,1-3.09,1.71-3.09,1.71a10.67,10.67,0,0,0,4.76-.16C269.37,442.3,271.92,439.77,273.61,436Z" style="opacity:0.2"></path><path d="M262.24,429.38l-.23.22c-3.09,2.87-7.35,1.54-8.91-2.62a9.29,9.29,0,0,0,1.35,9,5,5,0,0,1-2.49-3,7.36,7.36,0,0,0,2.8,6.61,9,9,0,0,0,7.08,2.27c.16-.27.11-.55-.39-.77a10,10,0,0,1-2.51-1.17,11,11,0,0,0,2.36-.83c1.19-.62,3.13-2.08,3-2.62-.57-.32-1.29.07-2.25.1a2.46,2.46,0,0,1-1.62-.36,7.61,7.61,0,0,0,2.56-2.71c.76-1.44-1.69-.52-2.43-.76a16.86,16.86,0,0,0,1.49-2.7A4.87,4.87,0,0,0,262.24,429.38Z" style="fill:#fafafa"></path><path d="M228.53,379.64a6.77,6.77,0,0,0,.71,7.18l1.41-.76a6.43,6.43,0,0,0,0-3.2C230.19,381.06,229.39,379.89,228.53,379.64Z" style="fill:#37474f"></path><path d="M230.13,383a.9.9,0,0,1,.59.25,6.43,6.43,0,0,1-.07,2.85l-.61.26-.16-.25c-.1-.17-.39-.82.11-.64a1.23,1.23,0,0,1-.51-.79c0-.27.32-.19.47-.07C229.8,384.17,229.28,382.94,230.13,383Z" style="fill:#e0e0e0"></path><path d="M234.73,385.75a7.41,7.41,0,0,1-3.24-3.15c-.9-1.45-1.7-2.78-3-3,1,.9,2.14,2.71,2.12,6.42Z" style="fill:#FF5050"></path><path d="M234.73,385.75a7.41,7.41,0,0,1-3.24-3.15c-.9-1.45-1.7-2.78-3-3,1,.9,2.14,2.71,2.12,6.42Z" style="opacity:0.15"></path><path d="M234.38,385.2c-4-.26-5.76,1.38-7,3.37s-1.87,2.7-3.12,2.56a1.62,1.62,0,0,0,1.52,1.08,2.28,2.28,0,0,1-2.14,0c.27,1.33,2.12,2.43,2.12,2.43s-.8.87-1.81,2.11a2.09,2.09,0,0,0-.24,2.63,5.17,5.17,0,0,0,2.69,1.74,5.61,5.61,0,0,0,4.17-.64,15.08,15.08,0,0,1,2.69-1.29c1.74.59,4.62,3.64,6.19,7.46a14.75,14.75,0,0,0,4.29-13,10.16,10.16,0,0,0-5.49-7.44A10,10,0,0,0,234.38,385.2Z" style="fill:#FF5050"></path><path d="M241.88,391.65c.39,2.14,2.65,3.27,3.37,3.48a6.2,6.2,0,0,1-3.7.18,3.49,3.49,0,0,0,1.29,1.61,3.65,3.65,0,0,1-3.37-.68,4.91,4.91,0,0,0,2.23.26,3.59,3.59,0,0,1-.59-1.66,4.19,4.19,0,0,0,2.41.09A4.51,4.51,0,0,1,241.88,391.65Z" style="fill:#fff;opacity:0.2"></path><path d="M241.23,399.64a3,3,0,0,0-2.16-2.39,1.92,1.92,0,0,1,1.29-.53,5.05,5.05,0,0,1,1.56,0,6.5,6.5,0,0,0-4.85-2.34,10.26,10.26,0,0,0-3.22.26,6.79,6.79,0,0,0-2.66,1.42c-1.21.91-2.25,2.28-3.58,3a1.58,1.58,0,0,1-2.23-.23l-1.42-.54a2.83,2.83,0,0,1-.49.41,5.76,5.76,0,0,0,.26.62,5.17,5.17,0,0,0,2.69,1.74,5.57,5.57,0,0,0,4.17-.64c1.72-.85,2.69-1.29,2.69-1.29,1.74.59,4,4.93,6.19,7.46a9.57,9.57,0,0,0-.93-4.23,4.45,4.45,0,0,1-.38-3.09C238.61,398.19,240.59,399.09,241.23,399.64Z" style="fill:#fafafa"></path><path d="M229.89,400.79c.7-.31,2.35-1.2,3.39-1.6a3.18,3.18,0,0,1,3,.13,4.08,4.08,0,0,0-3.18.79,12.29,12.29,0,0,1-3.62,1.6Z" style="fill:#e0e0e0"></path><path d="M225,397.55c1.34.42,1.75.9,1.49,1.48a1.79,1.79,0,0,1-1.17.9,1.13,1.13,0,0,1-.9-.12,2.66,2.66,0,0,1-1-1.54C223.35,397.8,223.87,397.2,225,397.55Z" style="fill:#37474f"></path><path d="M238.29,388.43l.27.12.13.07a4.5,4.5,0,0,1,1.49,1.34l0,.05a3.83,3.83,0,0,1,.25.44,6.49,6.49,0,0,0,2.81-1.36c1.88-2.12,1.43-5.59.94-7.23-1.46.55-3.73,1.51-4.95,3.48A5.67,5.67,0,0,0,238.29,388.43Z" style="fill:#FF5050"></path><path d="M238.29,388.43l.27.12.13.07a4.5,4.5,0,0,1,1.49,1.34l0,.05a3.83,3.83,0,0,1,.25.44,6.49,6.49,0,0,0,2.81-1.36c1.88-2.12,1.43-5.59.94-7.23-1.46.55-3.73,1.51-4.95,3.48A5.67,5.67,0,0,0,238.29,388.43Z" style="opacity:0.15"></path><path d="M238.56,388.55l.13.07a4.5,4.5,0,0,1,1.49,1.34l0,.05a5.06,5.06,0,0,0,1.72-.83c2.78-2,1.87-6.69,1.87-6.69a9.92,9.92,0,0,0-3.37,2.06A6.25,6.25,0,0,0,238.56,388.55Z" style="fill:#37474f"></path><path d="M238.69,388.62a4.5,4.5,0,0,1,1.49,1.34,4.18,4.18,0,0,0,.56-.28c.22-.14,1.06-.78.59-1.08a.68.68,0,0,0-.67.1,1.9,1.9,0,0,0,.57-1.08c.09-.44.15-1-.49-1.06-.88,0-1.26,1.19-1.38,1.86-.05-.41-.46-.4-.64.1Z" style="fill:#e0e0e0"></path><path d="M233.13,392a1.78,1.78,0,0,1,1.62.42s-.18,1-.86,1.28a1.67,1.67,0,0,1-1.61-.36A1.61,1.61,0,0,1,233.13,392Z" style="fill:#263238"></path><path d="M228.21,391a1.09,1.09,0,0,0-1.1-.55,2.09,2.09,0,0,0-.15,1.38,1,1,0,0,0,1.07.59A1.76,1.76,0,0,0,228.21,391Z" style="fill:#263238"></path><path d="M225.78,394.64s-1.85-1.1-2.12-2.43a2.28,2.28,0,0,0,2.14,0,1.62,1.62,0,0,1-1.52-1.08,1.87,1.87,0,0,0,1.6-.49A3.44,3.44,0,0,1,225.78,394.64Z" style="fill:#f0f0f0"></path><path d="M241.31,429.59c-1.32-1.35-2.6-1.75-3.21-.39a27.28,27.28,0,0,1-.41,10.11s-3.72,1.24-2.76,2.86,3.2,1.11,4.52.74c1-.26,3-1.67,4.89-9.17A15.22,15.22,0,0,0,241.31,429.59Z" style="fill:#455a64"></path></g></g></svg>